{"glyphs":{"0":{"ha":814,"x_min":0,"x_max":0,"o":"m 407 -14 b 719 475 614 -14 719 148 b 407 977 719 810 614 977 b 95 475 199 977 95 810 b 407 -14 95 148 199 -14 z m 407 47 b 157 475 241 47 157 189 b 407 916 157 770 241 916 b 656 475 573 916 656 770 b 407 47 656 189 573 47 z m 407 408 b 475 475 448 408 475 434 b 407 543 475 515 448 543 b 339 475 366 543 339 515 b 407 408 339 434 366 408 z "},"1":{"ha":814,"x_min":0,"x_max":0,"o":"m 132 0 l 697 0 l 697 60 l 458 60 l 458 963 l 397 963 l 145 882 l 145 819 l 397 898 l 397 60 l 132 60 z "},"2":{"ha":814,"x_min":0,"x_max":0,"o":"m 119 0 l 713 0 l 713 60 l 180 60 l 180 66 b 673 680 503 239 673 443 b 385 977 673 868 568 977 b 88 855 252 977 160 930 l 127 817 b 382 916 202 883 287 916 b 610 680 528 916 610 829 b 119 89 610 466 448 270 z "},"3":{"ha":814,"x_min":0,"x_max":0,"o":"m 349 -14 b 692 244 567 -14 692 81 b 406 503 692 386 578 488 l 406 509 b 671 761 566 542 671 635 b 419 977 671 898 580 977 b 101 859 277 977 182 941 l 147 813 b 411 916 234 885 313 916 b 609 761 537 916 609 859 b 243 522 609 646 464 551 l 253 462 l 279 462 b 629 244 490 462 629 376 b 343 47 629 119 524 47 b 126 78 241 47 179 65 l 118 19 b 349 -14 182 -1 256 -14 z "},"4":{"ha":814,"x_min":0,"x_max":0,"o":"m 65 222 l 553 222 l 553 0 l 614 0 l 614 222 l 743 222 l 743 281 l 614 281 l 614 963 l 553 963 l 553 281 l 138 281 l 248 909 l 186 909 l 66 224 z "},"5":{"ha":814,"x_min":0,"x_max":0,"o":"m 416 -14 b 725 311 612 -14 725 104 b 456 608 725 499 627 608 b 227 529 378 608 303 590 l 237 903 l 664 903 l 664 963 l 178 963 l 167 461 l 224 461 b 449 547 294 518 368 547 b 663 311 585 547 663 460 b 418 47 663 143 573 47 b 169 270 258 47 169 130 l 106 270 b 416 -14 106 90 219 -14 z "},"6":{"ha":814,"x_min":0,"x_max":0,"o":"m 412 -14 b 726 312 618 -14 726 98 b 425 610 726 502 617 610 b 172 453 296 610 202 553 l 167 453 b 644 906 168 743 324 892 l 637 967 b 103 423 277 949 103 769 l 103 323 b 412 -14 103 102 209 -14 z m 420 47 b 165 298 260 47 165 140 b 418 549 165 458 257 549 b 663 312 576 549 663 464 b 420 47 663 138 580 47 z "},"7":{"ha":814,"x_min":0,"x_max":0,"o":"m 374 0 l 438 0 l 753 963 l 79 963 l 79 666 l 140 666 l 140 903 l 669 903 z "},"8":{"ha":814,"x_min":0,"x_max":0,"o":"m 407 -14 b 719 251 606 -14 719 83 b 521 511 719 388 648 479 l 521 515 b 692 746 631 546 692 627 b 407 977 692 892 588 977 b 122 746 226 977 122 892 b 294 515 122 626 184 545 l 294 511 b 95 251 166 479 95 389 b 407 -14 95 83 208 -14 z m 407 47 b 157 258 248 47 157 124 b 407 478 157 397 248 478 b 656 258 566 478 656 397 b 407 47 656 124 566 47 z m 407 539 b 184 719 266 539 184 606 b 407 916 184 844 266 916 b 629 719 548 916 629 844 b 407 539 629 606 548 539 z "},"9":{"ha":814,"x_min":0,"x_max":0,"o":"m 396 343 b 648 500 524 343 618 400 l 654 500 b 177 47 653 211 496 62 l 183 -14 b 718 530 544 4 718 184 l 718 624 b 408 967 718 850 612 967 b 95 642 202 967 95 855 b 396 343 95 452 203 343 z m 403 404 b 157 642 245 404 157 490 b 400 906 157 815 241 906 b 655 655 560 906 655 813 b 403 404 655 495 564 404 z "},"A":{"ha":814,"x_min":0,"x_max":0,"o":"m 47 0 l 109 0 l 196 269 l 618 269 l 705 0 l 767 0 l 450 963 l 363 963 z m 215 329 l 404 911 l 410 911 l 599 329 z "},"Á":{"ha":814,"x_min":0,"x_max":0,"o":"m 47 0 l 109 0 l 196 269 l 618 269 l 705 0 l 767 0 l 450 963 l 363 963 z m 215 329 l 404 911 l 410 911 l 599 329 z m 369 1072 l 445 1072 l 604 1241 l 522 1241 z "},"Ă":{"ha":814,"x_min":0,"x_max":0,"o":"m 47 0 l 109 0 l 196 269 l 618 269 l 705 0 l 767 0 l 450 963 l 363 963 z m 215 329 l 404 911 l 410 911 l 599 329 z m 407 1065 b 647 1261 559 1065 647 1137 l 586 1261 b 407 1122 586 1173 520 1122 b 228 1261 294 1122 228 1173 l 167 1261 b 407 1065 167 1137 255 1065 z "},"Ắ":{"ha":814,"x_min":0,"x_max":0,"o":"m 47 0 l 109 0 l 196 269 l 618 269 l 705 0 l 767 0 l 450 963 l 363 963 z m 215 329 l 404 911 l 410 911 l 599 329 z m 407 1065 b 647 1261 559 1065 647 1137 l 586 1261 b 407 1122 586 1173 520 1122 b 228 1261 294 1122 228 1173 l 167 1261 b 407 1065 167 1137 255 1065 z m 369 1343 l 445 1343 l 604 1512 l 522 1512 z "},"Ặ":{"ha":814,"x_min":0,"x_max":0,"o":"m 47 0 l 109 0 l 196 269 l 618 269 l 705 0 l 767 0 l 450 963 l 363 963 z m 215 329 l 404 911 l 410 911 l 599 329 z m 407 1065 b 647 1261 559 1065 647 1137 l 586 1261 b 407 1122 586 1173 520 1122 b 228 1261 294 1122 228 1173 l 167 1261 b 407 1065 167 1137 255 1065 z m 407 -262 b 475 -195 444 -262 475 -232 b 407 -127 475 -157 444 -127 b 339 -195 370 -127 339 -157 b 407 -262 339 -232 370 -262 z "},"Ằ":{"ha":814,"x_min":0,"x_max":0,"o":"m 47 0 l 109 0 l 196 269 l 618 269 l 705 0 l 767 0 l 450 963 l 363 963 z m 215 329 l 404 911 l 410 911 l 599 329 z m 407 1065 b 647 1261 559 1065 647 1137 l 586 1261 b 407 1122 586 1173 520 1122 b 228 1261 294 1122 228 1173 l 167 1261 b 407 1065 167 1137 255 1065 z m 370 1343 l 446 1343 l 293 1512 l 210 1512 z "},"Ẳ":{"ha":814,"x_min":0,"x_max":0,"o":"m 47 0 l 109 0 l 196 269 l 618 269 l 705 0 l 767 0 l 450 963 l 363 963 z m 215 329 l 404 911 l 410 911 l 599 329 z m 407 1065 b 647 1261 559 1065 647 1137 l 586 1261 b 407 1122 586 1173 520 1122 b 228 1261 294 1122 228 1173 l 167 1261 b 407 1065 167 1137 255 1065 z m 380 1308 l 446 1308 b 465 1339 446 1321 454 1332 b 553 1459 534 1380 553 1415 b 419 1563 553 1528 509 1563 b 255 1512 348 1563 288 1544 l 281 1465 b 405 1504 313 1490 358 1504 b 488 1452 460 1504 488 1487 b 429 1382 488 1427 470 1407 b 380 1322 399 1364 380 1349 z "},"Ẵ":{"ha":814,"x_min":0,"x_max":0,"o":"m 47 0 l 109 0 l 196 269 l 618 269 l 705 0 l 767 0 l 450 963 l 363 963 z m 215 329 l 404 911 l 410 911 l 599 329 z m 166 1333 l 227 1333 l 227 1394 b 292 1479 227 1451 248 1479 b 404 1423 319 1479 355 1460 b 550 1356 459 1378 507 1356 b 663 1506 625 1356 663 1406 l 663 1553 l 602 1553 l 602 1499 b 549 1414 602 1442 584 1414 b 431 1474 520 1414 481 1434 b 292 1537 378 1516 332 1537 b 166 1388 208 1537 166 1487 z m 407 1065 b 647 1261 559 1065 647 1137 l 586 1261 b 407 1122 586 1173 520 1122 b 228 1261 294 1122 228 1173 l 167 1261 b 407 1065 167 1137 255 1065 z "},"Ǎ":{"ha":814,"x_min":0,"x_max":0,"o":"m 47 0 l 109 0 l 196 269 l 618 269 l 705 0 l 767 0 l 450 963 l 363 963 z m 215 329 l 404 911 l 410 911 l 599 329 z m 379 1072 l 435 1072 l 628 1248 l 542 1248 l 407 1123 l 272 1248 l 186 1248 z "},"Â":{"ha":814,"x_min":0,"x_max":0,"o":"m 47 0 l 109 0 l 196 269 l 618 269 l 705 0 l 767 0 l 450 963 l 363 963 z m 215 329 l 404 911 l 410 911 l 599 329 z m 186 1072 l 272 1072 l 407 1196 l 542 1072 l 628 1072 l 435 1248 l 379 1248 z "},"Ấ":{"ha":814,"x_min":0,"x_max":0,"o":"m 47 0 l 109 0 l 196 269 l 618 269 l 705 0 l 767 0 l 450 963 l 363 963 z m 215 329 l 404 911 l 410 911 l 599 329 z m 186 1072 l 272 1072 l 407 1196 l 542 1072 l 628 1072 l 435 1248 l 379 1248 z m 563 1240 l 639 1240 l 798 1409 l 715 1409 z "},"Ậ":{"ha":814,"x_min":0,"x_max":0,"o":"m 47 0 l 109 0 l 196 269 l 618 269 l 705 0 l 767 0 l 450 963 l 363 963 z m 215 329 l 404 911 l 410 911 l 599 329 z m 186 1072 l 272 1072 l 407 1196 l 542 1072 l 628 1072 l 435 1248 l 379 1248 z m 407 -262 b 475 -195 444 -262 475 -232 b 407 -127 475 -157 444 -127 b 339 -195 370 -127 339 -157 b 407 -262 339 -232 370 -262 z "},"Ầ":{"ha":814,"x_min":0,"x_max":0,"o":"m 47 0 l 109 0 l 196 269 l 618 269 l 705 0 l 767 0 l 450 963 l 363 963 z m 215 329 l 404 911 l 410 911 l 599 329 z m 186 1072 l 272 1072 l 407 1196 l 542 1072 l 628 1072 l 435 1248 l 379 1248 z m 564 1240 l 640 1240 l 487 1409 l 404 1409 z "},"Ẩ":{"ha":814,"x_min":0,"x_max":0,"o":"m 47 0 l 109 0 l 196 269 l 618 269 l 705 0 l 767 0 l 450 963 l 363 963 z m 215 329 l 404 911 l 410 911 l 599 329 z m 574 1205 l 640 1205 b 659 1236 640 1218 648 1229 b 747 1356 728 1277 747 1312 b 613 1459 747 1425 703 1459 b 449 1409 542 1459 482 1441 l 475 1362 b 599 1401 507 1387 552 1401 b 682 1349 654 1401 682 1383 b 623 1279 682 1324 664 1304 b 574 1219 593 1261 574 1246 z m 186 1072 l 272 1072 l 407 1196 l 542 1072 l 628 1072 l 435 1248 l 379 1248 z "},"Ẫ":{"ha":814,"x_min":0,"x_max":0,"o":"m 47 0 l 109 0 l 196 269 l 618 269 l 705 0 l 767 0 l 450 963 l 363 963 z m 215 329 l 404 911 l 410 911 l 599 329 z m 166 1320 l 227 1320 l 227 1381 b 292 1466 227 1438 248 1466 b 404 1409 319 1466 355 1447 b 550 1343 459 1364 507 1343 b 663 1492 625 1343 663 1392 l 663 1539 l 602 1539 l 602 1485 b 549 1400 602 1428 584 1400 b 431 1460 520 1400 481 1420 b 292 1523 378 1502 332 1523 b 166 1374 208 1523 166 1474 z m 186 1072 l 272 1072 l 407 1196 l 542 1072 l 628 1072 l 435 1248 l 379 1248 z "},"Ä":{"ha":814,"x_min":0,"x_max":0,"o":"m 47 0 l 109 0 l 196 269 l 618 269 l 705 0 l 767 0 l 450 963 l 363 963 z m 215 329 l 404 911 l 410 911 l 599 329 z m 266 1095 b 334 1162 303 1095 334 1124 b 266 1230 334 1199 303 1230 b 198 1162 229 1230 198 1199 b 266 1095 198 1124 229 1095 z m 548 1095 b 616 1162 585 1095 616 1124 b 548 1230 616 1199 585 1230 b 480 1162 511 1230 480 1199 b 548 1095 480 1124 511 1095 z "},"Ạ":{"ha":814,"x_min":0,"x_max":0,"o":"m 47 0 l 109 0 l 196 269 l 618 269 l 705 0 l 767 0 l 450 963 l 363 963 z m 215 329 l 404 911 l 410 911 l 599 329 z m 407 -262 b 475 -195 444 -262 475 -232 b 407 -127 475 -157 444 -127 b 339 -195 370 -127 339 -157 b 407 -262 339 -232 370 -262 z "},"À":{"ha":814,"x_min":0,"x_max":0,"o":"m 47 0 l 109 0 l 196 269 l 618 269 l 705 0 l 767 0 l 450 963 l 363 963 z m 215 329 l 404 911 l 410 911 l 599 329 z m 370 1072 l 446 1072 l 293 1241 l 210 1241 z "},"Ả":{"ha":814,"x_min":0,"x_max":0,"o":"m 47 0 l 109 0 l 196 269 l 618 269 l 705 0 l 767 0 l 450 963 l 363 963 z m 215 329 l 404 911 l 410 911 l 599 329 z m 380 1037 l 446 1037 b 465 1067 446 1050 454 1061 b 553 1187 534 1109 553 1144 b 419 1291 553 1257 509 1291 b 255 1240 348 1291 288 1273 l 281 1194 b 405 1233 313 1219 358 1233 b 488 1181 460 1233 488 1215 b 429 1111 488 1156 470 1136 b 380 1051 399 1093 380 1078 z "},"Ɑ":{"ha":814,"x_min":0,"x_max":0,"o":"m 377 -18 b 592 130 495 -18 568 33 l 600 130 l 600 -9 l 775 0 l 775 42 l 649 55 l 649 963 l 591 963 l 591 829 l 585 829 b 377 977 563 926 491 977 b 76 470 179 977 76 803 b 377 -18 76 149 179 -18 z m 591 503 l 591 364 b 384 43 591 153 519 43 b 138 470 222 43 138 189 b 384 916 138 763 222 916 b 591 594 519 916 591 805 z m 600 260 l 600 266 l 600 266 z "},"Ā":{"ha":814,"x_min":0,"x_max":0,"o":"m 47 0 l 109 0 l 196 269 l 618 269 l 705 0 l 767 0 l 450 963 l 363 963 z m 215 329 l 404 911 l 410 911 l 599 329 z m 144 1105 l 669 1105 l 669 1165 l 144 1165 z "},"Ą":{"ha":814,"x_min":0,"x_max":0,"o":"m 687 -288 b 751 -283 705 -288 729 -286 l 755 -229 b 705 -231 737 -230 719 -231 b 619 -175 648 -231 619 -212 b 767 0 619 -123 659 -76 l 450 963 l 363 963 l 47 0 l 109 0 l 196 269 l 618 269 l 705 0 b 558 -178 600 -71 558 -114 b 687 -288 558 -251 601 -288 z m 215 329 l 404 911 l 410 911 l 599 329 z "},"Å":{"ha":814,"x_min":0,"x_max":0,"o":"m 47 0 l 109 0 l 196 269 l 618 269 l 705 0 l 767 0 l 450 963 l 363 963 z m 215 329 l 404 911 l 410 911 l 599 329 z m 407 1009 b 555 1149 496 1009 555 1065 b 407 1289 555 1233 496 1289 b 259 1149 318 1289 259 1233 b 407 1009 259 1065 318 1009 z m 407 1061 b 311 1149 349 1061 311 1096 b 407 1237 311 1202 349 1237 b 503 1149 465 1237 503 1202 b 407 1061 503 1096 465 1061 z "},"Ǻ":{"ha":814,"x_min":0,"x_max":0,"o":"m 47 0 l 109 0 l 196 269 l 618 269 l 705 0 l 767 0 l 450 963 l 363 963 z m 215 329 l 404 911 l 410 911 l 599 329 z m 407 1009 b 555 1149 496 1009 555 1065 b 428 1287 555 1226 505 1279 l 543 1409 l 460 1409 l 340 1276 b 259 1149 290 1255 259 1209 b 407 1009 259 1065 318 1009 z m 407 1061 b 311 1149 349 1061 311 1096 b 407 1237 311 1202 349 1237 b 503 1149 465 1237 503 1202 b 407 1061 503 1096 465 1061 z "},"Ⱥ":{"ha":814,"x_min":0,"x_max":0,"o":"m 327 -224 l 423 269 l 618 269 l 705 0 l 767 0 l 519 755 l 595 1147 l 530 1158 l 477 882 l 450 963 l 363 963 l 47 0 l 109 0 l 196 269 l 360 269 l 268 -213 z m 371 329 l 215 329 l 404 911 l 410 911 l 456 770 z m 496 644 l 599 329 l 435 329 z "},"Ã":{"ha":814,"x_min":0,"x_max":0,"o":"m 47 0 l 109 0 l 196 269 l 618 269 l 705 0 l 767 0 l 450 963 l 363 963 z m 215 329 l 404 911 l 410 911 l 599 329 z m 166 1062 l 227 1062 l 227 1123 b 292 1208 227 1180 248 1208 b 404 1152 319 1208 355 1189 b 550 1085 459 1107 507 1085 b 663 1234 625 1085 663 1135 l 663 1282 l 602 1282 l 602 1227 b 549 1143 602 1171 584 1143 b 431 1202 520 1143 481 1162 b 292 1265 378 1244 332 1265 b 166 1116 208 1265 166 1216 z "},"Æ":{"ha":814,"x_min":0,"x_max":0,"o":"m 46 0 l 104 0 l 172 193 l 434 193 l 434 0 l 728 0 l 728 60 l 495 60 l 495 452 l 688 452 l 688 512 l 495 512 l 495 903 l 728 903 l 728 963 l 385 963 z m 434 903 l 434 252 l 193 252 l 422 903 z "},"Ǽ":{"ha":814,"x_min":0,"x_max":0,"o":"m 46 0 l 104 0 l 172 193 l 434 193 l 434 0 l 728 0 l 728 60 l 495 60 l 495 452 l 688 452 l 688 512 l 495 512 l 495 903 l 728 903 l 728 963 l 385 963 z m 434 903 l 434 252 l 193 252 l 422 903 z m 396 1072 l 472 1072 l 631 1241 l 549 1241 z "},"B":{"ha":814,"x_min":0,"x_max":0,"o":"m 125 0 l 450 0 b 753 258 643 0 753 94 b 477 509 753 414 653 506 l 477 515 b 685 726 610 522 685 597 b 395 963 685 876 579 963 l 125 963 z m 186 60 l 186 479 l 456 479 b 690 258 605 479 690 398 b 452 60 690 132 604 60 z m 186 538 l 186 903 l 401 903 b 623 726 542 903 623 839 b 397 538 623 607 541 538 z "},"C":{"ha":814,"x_min":0,"x_max":0,"o":"m 500 -14 b 732 33 581 -14 658 1 l 715 93 b 510 47 648 62 581 47 b 130 490 258 47 130 195 b 486 916 130 762 271 916 b 705 810 575 916 656 877 l 749 855 b 484 977 707 932 610 977 b 68 483 219 977 68 796 b 500 -14 68 152 213 -14 z "},"Ć":{"ha":814,"x_min":0,"x_max":0,"o":"m 500 -14 b 732 33 581 -14 658 1 l 715 93 b 510 47 648 62 581 47 b 130 490 258 47 130 195 b 486 916 130 762 271 916 b 705 810 575 916 656 877 l 749 855 b 484 977 707 932 610 977 b 68 483 219 977 68 796 b 500 -14 68 152 213 -14 z m 433 1072 l 509 1072 l 669 1241 l 586 1241 z "},"Č":{"ha":814,"x_min":0,"x_max":0,"o":"m 500 -14 b 732 33 581 -14 658 1 l 715 93 b 510 47 648 62 581 47 b 130 490 258 47 130 195 b 486 916 130 762 271 916 b 705 810 575 916 656 877 l 749 855 b 484 977 707 932 610 977 b 68 483 219 977 68 796 b 500 -14 68 152 213 -14 z m 444 1072 l 499 1072 l 692 1248 l 606 1248 l 471 1123 l 336 1248 l 250 1248 z "},"Ç":{"ha":814,"x_min":0,"x_max":0,"o":"m 500 -14 b 732 33 581 -14 658 1 l 715 93 b 510 47 648 62 581 47 b 130 490 258 47 130 195 b 486 916 130 762 271 916 b 705 810 575 916 656 877 l 749 855 b 484 977 707 932 610 977 b 68 483 219 977 68 796 b 417 -8 68 186 185 22 l 376 -115 b 526 -188 482 -115 526 -136 b 355 -271 526 -246 475 -271 l 355 -326 b 585 -188 516 -326 585 -284 b 454 -75 585 -122 546 -81 l 475 -13 b 500 -14 483 -14 492 -14 z "},"Ĉ":{"ha":814,"x_min":0,"x_max":0,"o":"m 500 -14 b 732 33 581 -14 658 1 l 715 93 b 510 47 648 62 581 47 b 130 490 258 47 130 195 b 486 916 130 762 271 916 b 705 810 575 916 656 877 l 749 855 b 484 977 707 932 610 977 b 68 483 219 977 68 796 b 500 -14 68 152 213 -14 z m 250 1072 l 336 1072 l 471 1196 l 606 1072 l 692 1072 l 499 1248 l 444 1248 z "},"Ċ":{"ha":814,"x_min":0,"x_max":0,"o":"m 500 -14 b 732 33 581 -14 658 1 l 715 93 b 510 47 648 62 581 47 b 130 490 258 47 130 195 b 486 916 130 762 271 916 b 705 810 575 916 656 877 l 749 855 b 484 977 707 932 610 977 b 68 483 219 977 68 796 b 500 -14 68 152 213 -14 z m 471 1095 b 539 1162 509 1095 539 1125 b 471 1230 539 1200 509 1230 b 404 1162 434 1230 404 1200 b 471 1095 404 1125 434 1095 z "},"Ȼ":{"ha":814,"x_min":0,"x_max":0,"o":"m 358 -224 l 401 -6 b 500 -14 432 -11 465 -14 b 732 33 581 -14 658 1 l 715 93 b 510 47 648 62 581 47 b 413 56 475 47 443 50 l 578 901 b 705 810 629 884 673 852 l 749 855 b 591 964 720 909 664 947 l 627 1147 l 561 1158 l 526 975 b 484 977 512 976 498 977 b 68 483 219 977 68 796 b 341 7 68 220 159 62 l 299 -213 z m 353 72 b 130 490 205 125 130 264 b 486 916 130 762 271 916 b 514 914 495 916 505 915 z "},"D":{"ha":814,"x_min":0,"x_max":0,"o":"m 104 0 l 321 0 b 746 468 606 0 746 155 b 321 963 746 799 606 963 l 104 963 z m 165 60 l 165 903 l 321 903 b 684 468 564 903 684 759 b 321 60 684 195 564 60 z "},"Ð":{"ha":814,"x_min":0,"x_max":0,"o":"m 8 450 l 104 450 l 104 0 l 321 0 b 746 468 606 0 746 155 b 321 963 746 799 606 963 l 104 963 l 104 509 l 8 509 z m 165 60 l 165 450 l 441 450 l 441 509 l 165 509 l 165 903 l 321 903 b 684 468 564 903 684 759 b 321 60 684 195 564 60 z "},"Ď":{"ha":814,"x_min":0,"x_max":0,"o":"m 104 0 l 321 0 b 746 468 606 0 746 155 b 321 963 746 799 606 963 l 104 963 z m 165 60 l 165 903 l 321 903 b 684 468 564 903 684 759 b 321 60 684 195 564 60 z m 338 1072 l 394 1072 l 587 1248 l 501 1248 l 366 1123 l 231 1248 l 145 1248 z "},"Đ":{"ha":814,"x_min":0,"x_max":0,"o":"m 104 0 l 321 0 b 746 468 606 0 746 155 b 321 963 746 799 606 963 l 104 963 l 104 509 l 8 509 l 8 450 l 104 450 z m 165 60 l 165 450 l 441 450 l 441 509 l 165 509 l 165 903 l 321 903 b 684 468 564 903 684 759 b 321 60 684 195 564 60 z "},"E":{"ha":814,"x_min":0,"x_max":0,"o":"m 125 0 l 730 0 l 730 60 l 186 60 l 186 452 l 608 452 l 608 512 l 186 512 l 186 903 l 730 903 l 730 963 l 125 963 z "},"É":{"ha":814,"x_min":0,"x_max":0,"o":"m 125 0 l 730 0 l 730 60 l 186 60 l 186 452 l 608 452 l 608 512 l 186 512 l 186 903 l 730 903 l 730 963 l 125 963 z m 389 1072 l 465 1072 l 625 1241 l 542 1241 z "},"Ĕ":{"ha":814,"x_min":0,"x_max":0,"o":"m 125 0 l 730 0 l 730 60 l 186 60 l 186 452 l 608 452 l 608 512 l 186 512 l 186 903 l 730 903 l 730 963 l 125 963 z m 427 1065 b 667 1261 579 1065 667 1137 l 606 1261 b 427 1122 606 1173 541 1122 b 248 1261 314 1122 248 1173 l 187 1261 b 427 1065 187 1137 275 1065 z "},"Ě":{"ha":814,"x_min":0,"x_max":0,"o":"m 125 0 l 730 0 l 730 60 l 186 60 l 186 452 l 608 452 l 608 512 l 186 512 l 186 903 l 730 903 l 730 963 l 125 963 z m 399 1072 l 455 1072 l 648 1248 l 562 1248 l 427 1123 l 292 1248 l 206 1248 z "},"Ê":{"ha":814,"x_min":0,"x_max":0,"o":"m 125 0 l 730 0 l 730 60 l 186 60 l 186 452 l 608 452 l 608 512 l 186 512 l 186 903 l 730 903 l 730 963 l 125 963 z m 206 1072 l 292 1072 l 427 1196 l 562 1072 l 648 1072 l 455 1248 l 399 1248 z "},"Ế":{"ha":814,"x_min":0,"x_max":0,"o":"m 125 0 l 730 0 l 730 60 l 186 60 l 186 452 l 608 452 l 608 512 l 186 512 l 186 903 l 730 903 l 730 963 l 125 963 z m 206 1072 l 292 1072 l 427 1196 l 562 1072 l 648 1072 l 455 1248 l 399 1248 z m 583 1240 l 659 1240 l 819 1409 l 736 1409 z "},"Ệ":{"ha":814,"x_min":0,"x_max":0,"o":"m 125 0 l 730 0 l 730 60 l 186 60 l 186 452 l 608 452 l 608 512 l 186 512 l 186 903 l 730 903 l 730 963 l 125 963 z m 206 1072 l 292 1072 l 427 1196 l 562 1072 l 648 1072 l 455 1248 l 399 1248 z m 427 -262 b 495 -195 465 -262 495 -232 b 427 -127 495 -157 465 -127 b 359 -195 390 -127 359 -157 b 427 -262 359 -232 390 -262 z "},"Ề":{"ha":814,"x_min":0,"x_max":0,"o":"m 125 0 l 730 0 l 730 60 l 186 60 l 186 452 l 608 452 l 608 512 l 186 512 l 186 903 l 730 903 l 730 963 l 125 963 z m 206 1072 l 292 1072 l 427 1196 l 562 1072 l 648 1072 l 455 1248 l 399 1248 z m 584 1240 l 660 1240 l 507 1409 l 425 1409 z "},"Ể":{"ha":814,"x_min":0,"x_max":0,"o":"m 125 0 l 730 0 l 730 60 l 186 60 l 186 452 l 608 452 l 608 512 l 186 512 l 186 903 l 730 903 l 730 963 l 125 963 z m 595 1205 l 660 1205 b 680 1236 660 1218 668 1229 b 767 1356 748 1277 767 1312 b 633 1459 767 1425 723 1459 b 469 1409 562 1459 503 1441 l 495 1362 b 619 1401 527 1387 572 1401 b 702 1349 675 1401 702 1383 b 643 1279 702 1324 684 1304 b 595 1219 614 1261 595 1246 z m 206 1072 l 292 1072 l 427 1196 l 562 1072 l 648 1072 l 455 1248 l 399 1248 z "},"Ễ":{"ha":814,"x_min":0,"x_max":0,"o":"m 125 0 l 730 0 l 730 60 l 186 60 l 186 452 l 608 452 l 608 512 l 186 512 l 186 903 l 730 903 l 730 963 l 125 963 z m 186 1320 l 248 1320 l 248 1381 b 312 1466 248 1438 269 1466 b 424 1409 339 1466 376 1447 b 570 1343 479 1364 528 1343 b 683 1492 646 1343 683 1392 l 683 1539 l 622 1539 l 622 1485 b 570 1400 622 1428 604 1400 b 452 1460 541 1400 501 1420 b 313 1523 399 1502 353 1523 b 186 1374 229 1523 186 1474 z m 206 1072 l 292 1072 l 427 1196 l 562 1072 l 648 1072 l 455 1248 l 399 1248 z "},"Ë":{"ha":814,"x_min":0,"x_max":0,"o":"m 125 0 l 730 0 l 730 60 l 186 60 l 186 452 l 608 452 l 608 512 l 186 512 l 186 903 l 730 903 l 730 963 l 125 963 z m 286 1095 b 354 1162 323 1095 354 1124 b 286 1230 354 1199 323 1230 b 218 1162 249 1230 218 1199 b 286 1095 218 1124 249 1095 z m 568 1095 b 636 1162 606 1095 636 1124 b 568 1230 636 1199 606 1230 b 500 1162 531 1230 500 1199 b 568 1095 500 1124 531 1095 z "},"Ė":{"ha":814,"x_min":0,"x_max":0,"o":"m 125 0 l 730 0 l 730 60 l 186 60 l 186 452 l 608 452 l 608 512 l 186 512 l 186 903 l 730 903 l 730 963 l 125 963 z m 427 1095 b 495 1162 465 1095 495 1125 b 427 1230 495 1200 465 1230 b 359 1162 390 1230 359 1200 b 427 1095 359 1125 390 1095 z "},"Ẹ":{"ha":814,"x_min":0,"x_max":0,"o":"m 125 0 l 730 0 l 730 60 l 186 60 l 186 452 l 608 452 l 608 512 l 186 512 l 186 903 l 730 903 l 730 963 l 125 963 z m 427 -262 b 495 -195 465 -262 495 -232 b 427 -127 495 -157 465 -127 b 359 -195 390 -127 359 -157 b 427 -262 359 -232 390 -262 z "},"È":{"ha":814,"x_min":0,"x_max":0,"o":"m 125 0 l 730 0 l 730 60 l 186 60 l 186 452 l 608 452 l 608 512 l 186 512 l 186 903 l 730 903 l 730 963 l 125 963 z m 390 1072 l 466 1072 l 313 1241 l 231 1241 z "},"Ẻ":{"ha":814,"x_min":0,"x_max":0,"o":"m 125 0 l 730 0 l 730 60 l 186 60 l 186 452 l 608 452 l 608 512 l 186 512 l 186 903 l 730 903 l 730 963 l 125 963 z m 401 1037 l 466 1037 b 486 1067 466 1050 474 1061 b 573 1187 554 1109 573 1144 b 439 1291 573 1257 529 1291 b 275 1240 368 1291 309 1273 l 301 1194 b 425 1233 333 1219 378 1233 b 508 1181 481 1233 508 1215 b 449 1111 508 1156 490 1136 b 401 1051 420 1093 401 1078 z "},"Ē":{"ha":814,"x_min":0,"x_max":0,"o":"m 125 0 l 730 0 l 730 60 l 186 60 l 186 452 l 608 452 l 608 512 l 186 512 l 186 903 l 730 903 l 730 963 l 125 963 z m 165 1105 l 690 1105 l 690 1165 l 165 1165 z "},"Ę":{"ha":814,"x_min":0,"x_max":0,"o":"m 649 -288 b 713 -281 667 -288 691 -287 l 718 -228 b 667 -231 699 -230 681 -231 b 554 -141 595 -231 554 -199 b 729 0 554 -59 618 0 l 730 0 l 730 60 l 186 60 l 186 452 l 608 452 l 608 512 l 186 512 l 186 903 l 730 903 l 730 963 l 125 963 l 125 0 l 576 0 l 576 -7 b 493 -148 524 -39 493 -91 b 649 -288 493 -237 550 -288 z "},"Ɛ":{"ha":814,"x_min":0,"x_max":0,"o":"m 461 977 b 141 741 258 977 141 891 b 359 515 141 627 203 536 l 359 509 b 103 240 224 501 103 410 b 457 -14 103 86 239 -14 b 730 33 584 -14 648 -3 l 713 93 b 454 47 616 57 564 47 b 165 254 274 47 165 125 b 452 476 165 397 281 476 l 553 476 l 568 536 b 203 718 307 544 203 599 b 462 916 203 844 298 916 b 709 823 562 916 652 875 l 750 872 b 461 977 696 932 591 977 z "},"Ǝ":{"ha":814,"x_min":0,"x_max":0,"o":"m 689 0 l 689 963 l 84 963 l 84 903 l 628 903 l 628 512 l 206 512 l 206 452 l 628 452 l 628 60 l 84 60 l 84 0 z "},"Ʃ":{"ha":814,"x_min":0,"x_max":0,"o":"m 118 0 l 709 0 l 709 61 l 196 61 l 547 484 l 195 903 l 696 903 l 696 963 l 118 963 l 118 903 l 462 484 l 118 61 z "},"Ẽ":{"ha":814,"x_min":0,"x_max":0,"o":"m 125 0 l 730 0 l 730 60 l 186 60 l 186 452 l 608 452 l 608 512 l 186 512 l 186 903 l 730 903 l 730 963 l 125 963 z m 186 1062 l 248 1062 l 248 1123 b 312 1208 248 1180 269 1208 b 424 1152 339 1208 376 1189 b 570 1085 479 1107 528 1085 b 683 1234 646 1085 683 1135 l 683 1282 l 622 1282 l 622 1227 b 570 1143 622 1171 604 1143 b 452 1202 541 1143 501 1162 b 313 1265 399 1244 353 1265 b 186 1116 229 1265 186 1216 z "},"Ʒ":{"ha":814,"x_min":0,"x_max":0,"o":"m 384 -14 b 718 260 596 -14 718 86 b 318 537 718 436 585 528 l 673 893 l 673 963 l 127 963 l 127 903 l 602 903 l 219 519 l 229 477 l 294 477 b 655 261 536 477 655 406 b 387 49 655 126 557 49 b 112 148 273 49 207 77 l 66 102 b 384 -14 149 25 252 -14 z "},"F":{"ha":814,"x_min":0,"x_max":0,"o":"m 138 0 l 199 0 l 199 412 l 648 412 l 648 471 l 199 471 l 199 903 l 743 903 l 743 963 l 138 963 z "},"G":{"ha":814,"x_min":0,"x_max":0,"o":"m 469 -14 b 716 27 584 -14 678 15 l 716 448 l 407 448 l 407 388 l 655 388 l 655 75 b 486 47 614 63 556 47 b 117 490 251 47 117 209 b 472 916 117 760 246 916 b 692 825 559 916 640 883 l 739 871 b 464 977 686 939 587 977 b 54 483 203 977 54 797 b 469 -14 54 168 205 -14 z "},"Ğ":{"ha":814,"x_min":0,"x_max":0,"o":"m 469 -14 b 716 27 584 -14 678 15 l 716 448 l 407 448 l 407 388 l 655 388 l 655 75 b 486 47 614 63 556 47 b 117 490 251 47 117 209 b 472 916 117 760 246 916 b 692 825 559 916 640 883 l 739 871 b 464 977 686 939 587 977 b 54 483 203 977 54 797 b 469 -14 54 168 205 -14 z m 458 1065 b 698 1261 610 1065 698 1137 l 637 1261 b 458 1122 637 1173 571 1122 b 279 1261 345 1122 279 1173 l 218 1261 b 458 1065 218 1137 306 1065 z "},"Ǧ":{"ha":814,"x_min":0,"x_max":0,"o":"m 469 -14 b 716 27 584 -14 678 15 l 716 448 l 407 448 l 407 388 l 655 388 l 655 75 b 486 47 614 63 556 47 b 117 490 251 47 117 209 b 472 916 117 760 246 916 b 692 825 559 916 640 883 l 739 871 b 464 977 686 939 587 977 b 54 483 203 977 54 797 b 469 -14 54 168 205 -14 z m 430 1072 l 486 1072 l 679 1248 l 593 1248 l 458 1123 l 323 1248 l 237 1248 z "},"Ĝ":{"ha":814,"x_min":0,"x_max":0,"o":"m 469 -14 b 716 27 584 -14 678 15 l 716 448 l 407 448 l 407 388 l 655 388 l 655 75 b 486 47 614 63 556 47 b 117 490 251 47 117 209 b 472 916 117 760 246 916 b 692 825 559 916 640 883 l 739 871 b 464 977 686 939 587 977 b 54 483 203 977 54 797 b 469 -14 54 168 205 -14 z m 237 1072 l 323 1072 l 458 1196 l 593 1072 l 679 1072 l 486 1248 l 430 1248 z "},"Ģ":{"ha":814,"x_min":0,"x_max":0,"o":"m 469 -14 b 716 27 584 -14 678 15 l 716 448 l 407 448 l 407 388 l 655 388 l 655 75 b 486 47 614 63 556 47 b 117 490 251 47 117 209 b 472 916 117 760 246 916 b 692 825 559 916 640 883 l 739 871 b 464 977 686 939 587 977 b 54 483 203 977 54 797 b 469 -14 54 168 205 -14 z m 388 -326 l 450 -326 l 505 -95 l 439 -95 z "},"Ġ":{"ha":814,"x_min":0,"x_max":0,"o":"m 469 -14 b 716 27 584 -14 678 15 l 716 448 l 407 448 l 407 388 l 655 388 l 655 75 b 486 47 614 63 556 47 b 117 490 251 47 117 209 b 472 916 117 760 246 916 b 692 825 559 916 640 883 l 739 871 b 464 977 686 939 587 977 b 54 483 203 977 54 797 b 469 -14 54 168 205 -14 z m 458 1095 b 526 1162 495 1095 526 1125 b 458 1230 526 1200 495 1230 b 390 1162 420 1230 390 1200 b 458 1095 390 1125 420 1095 z "},"Ǥ":{"ha":814,"x_min":0,"x_max":0,"o":"m 469 -14 b 703 27 578 -14 667 15 l 703 288 l 814 288 l 814 347 l 703 347 l 703 448 l 642 448 l 642 347 l 427 347 l 427 288 l 642 288 l 642 75 b 486 47 604 62 550 47 b 117 490 251 47 117 209 b 472 916 117 760 246 916 b 692 825 559 916 640 883 l 739 871 b 464 977 686 939 587 977 b 54 483 203 977 54 797 b 469 -14 54 168 205 -14 z "},"H":{"ha":814,"x_min":0,"x_max":0,"o":"m 642 0 l 703 0 l 703 963 l 642 963 l 642 509 l 172 509 l 172 963 l 111 963 l 111 0 l 172 0 l 172 450 l 642 450 z "},"Ħ":{"ha":814,"x_min":0,"x_max":0,"o":"m 28 714 l 111 714 l 111 0 l 172 0 l 172 450 l 642 450 l 642 0 l 703 0 l 703 714 l 785 714 l 785 774 l 703 774 l 703 963 l 642 963 l 642 774 l 172 774 l 172 963 l 111 963 l 111 774 l 28 774 z m 172 509 l 172 714 l 642 714 l 642 509 z "},"Ȟ":{"ha":814,"x_min":0,"x_max":0,"o":"m 642 0 l 703 0 l 703 963 l 642 963 l 642 509 l 172 509 l 172 963 l 111 963 l 111 0 l 172 0 l 172 450 l 642 450 z m 379 1072 l 435 1072 l 628 1248 l 542 1248 l 407 1123 l 272 1248 l 186 1248 z "},"Ĥ":{"ha":814,"x_min":0,"x_max":0,"o":"m 642 0 l 703 0 l 703 963 l 642 963 l 642 509 l 172 509 l 172 963 l 111 963 l 111 0 l 172 0 l 172 450 l 642 450 z m 186 1072 l 272 1072 l 407 1196 l 542 1072 l 628 1072 l 435 1248 l 379 1248 z "},"Ḥ":{"ha":814,"x_min":0,"x_max":0,"o":"m 642 0 l 703 0 l 703 963 l 642 963 l 642 509 l 172 509 l 172 963 l 111 963 l 111 0 l 172 0 l 172 450 l 642 450 z m 407 -262 b 475 -195 444 -262 475 -232 b 407 -127 475 -157 444 -127 b 339 -195 370 -127 339 -157 b 407 -262 339 -232 370 -262 z "},"I":{"ha":814,"x_min":0,"x_max":0,"o":"m 130 0 l 684 0 l 684 60 l 437 60 l 437 903 l 684 903 l 684 963 l 130 963 l 130 903 l 376 903 l 376 60 l 130 60 z "},"Ĳ":{"ha":814,"x_min":0,"x_max":0,"o":"m 451 -14 b 718 269 621 -14 718 90 l 718 963 l 468 963 l 468 903 l 656 903 l 656 269 b 454 47 656 128 583 47 b 252 255 326 47 252 123 l 190 255 b 451 -14 190 84 285 -14 z m 37 351 l 406 351 l 406 410 l 252 410 l 252 903 l 393 903 l 393 963 l 37 963 l 37 903 l 191 903 l 191 410 l 37 410 z "},"Í":{"ha":814,"x_min":0,"x_max":0,"o":"m 130 0 l 684 0 l 684 60 l 437 60 l 437 903 l 684 903 l 684 963 l 130 963 l 130 903 l 376 903 l 376 60 l 130 60 z m 369 1072 l 445 1072 l 604 1241 l 522 1241 z "},"Ĭ":{"ha":814,"x_min":0,"x_max":0,"o":"m 130 0 l 684 0 l 684 60 l 437 60 l 437 903 l 684 903 l 684 963 l 130 963 l 130 903 l 376 903 l 376 60 l 130 60 z m 407 1065 b 647 1261 559 1065 647 1137 l 586 1261 b 407 1122 586 1173 520 1122 b 228 1261 294 1122 228 1173 l 167 1261 b 407 1065 167 1137 255 1065 z "},"Î":{"ha":814,"x_min":0,"x_max":0,"o":"m 130 0 l 684 0 l 684 60 l 437 60 l 437 903 l 684 903 l 684 963 l 130 963 l 130 903 l 376 903 l 376 60 l 130 60 z m 186 1072 l 272 1072 l 407 1196 l 542 1072 l 628 1072 l 435 1248 l 379 1248 z "},"Ï":{"ha":814,"x_min":0,"x_max":0,"o":"m 130 0 l 684 0 l 684 60 l 437 60 l 437 903 l 684 903 l 684 963 l 130 963 l 130 903 l 376 903 l 376 60 l 130 60 z m 266 1095 b 334 1162 303 1095 334 1124 b 266 1230 334 1199 303 1230 b 198 1162 229 1230 198 1199 b 266 1095 198 1124 229 1095 z m 548 1095 b 616 1162 585 1095 616 1124 b 548 1230 616 1199 585 1230 b 480 1162 511 1230 480 1199 b 548 1095 480 1124 511 1095 z "},"İ":{"ha":814,"x_min":0,"x_max":0,"o":"m 130 0 l 684 0 l 684 60 l 437 60 l 437 903 l 684 903 l 684 963 l 130 963 l 130 903 l 376 903 l 376 60 l 130 60 z m 407 1095 b 475 1162 444 1095 475 1125 b 407 1230 475 1200 444 1230 b 339 1162 370 1230 339 1200 b 407 1095 339 1125 370 1095 z "},"Ị":{"ha":814,"x_min":0,"x_max":0,"o":"m 130 0 l 684 0 l 684 60 l 437 60 l 437 903 l 684 903 l 684 963 l 130 963 l 130 903 l 376 903 l 376 60 l 130 60 z m 407 -262 b 475 -195 444 -262 475 -232 b 407 -127 475 -157 444 -127 b 339 -195 370 -127 339 -157 b 407 -262 339 -232 370 -262 z "},"Ì":{"ha":814,"x_min":0,"x_max":0,"o":"m 130 0 l 684 0 l 684 60 l 437 60 l 437 903 l 684 903 l 684 963 l 130 963 l 130 903 l 376 903 l 376 60 l 130 60 z m 370 1072 l 446 1072 l 293 1241 l 210 1241 z "},"Ỉ":{"ha":814,"x_min":0,"x_max":0,"o":"m 130 0 l 684 0 l 684 60 l 437 60 l 437 903 l 684 903 l 684 963 l 130 963 l 130 903 l 376 903 l 376 60 l 130 60 z m 380 1037 l 446 1037 b 465 1067 446 1050 454 1061 b 553 1187 534 1109 553 1144 b 419 1291 553 1257 509 1291 b 255 1240 348 1291 288 1273 l 281 1194 b 405 1233 313 1219 358 1233 b 488 1181 460 1233 488 1215 b 429 1111 488 1156 470 1136 b 380 1051 399 1093 380 1078 z "},"Ī":{"ha":814,"x_min":0,"x_max":0,"o":"m 130 0 l 684 0 l 684 60 l 437 60 l 437 903 l 684 903 l 684 963 l 130 963 l 130 903 l 376 903 l 376 60 l 130 60 z m 144 1105 l 669 1105 l 669 1165 l 144 1165 z "},"Į":{"ha":814,"x_min":0,"x_max":0,"o":"m 429 -288 b 492 -281 447 -288 471 -287 l 497 -228 b 446 -231 479 -230 460 -231 b 334 -141 374 -231 334 -199 b 522 0 334 -59 402 0 l 684 0 l 684 60 l 437 60 l 437 903 l 684 903 l 684 963 l 130 963 l 130 903 l 376 903 l 376 60 l 130 60 l 130 0 l 356 0 l 356 -7 b 273 -148 303 -39 273 -91 b 429 -288 273 -237 330 -288 z "},"Ɩ":{"ha":814,"x_min":0,"x_max":0,"o":"m 562 -14 b 712 8 616 -14 661 -7 l 705 68 b 568 49 648 55 607 49 b 382 237 444 49 382 111 l 382 1017 l 83 1017 l 83 956 l 318 956 l 318 237 b 562 -14 318 70 399 -14 z "},"Ĩ":{"ha":814,"x_min":0,"x_max":0,"o":"m 130 0 l 684 0 l 684 60 l 437 60 l 437 903 l 684 903 l 684 963 l 130 963 l 130 903 l 376 903 l 376 60 l 130 60 z m 166 1062 l 227 1062 l 227 1123 b 292 1208 227 1180 248 1208 b 404 1152 319 1208 355 1189 b 550 1085 459 1107 507 1085 b 663 1234 625 1085 663 1135 l 663 1282 l 602 1282 l 602 1227 b 549 1143 602 1171 584 1143 b 431 1202 520 1143 481 1162 b 292 1265 378 1244 332 1265 b 166 1116 208 1265 166 1216 z "},"J":{"ha":814,"x_min":0,"x_max":0,"o":"m 389 -14 b 704 323 600 -14 704 98 l 704 963 l 332 963 l 332 903 l 643 903 l 643 323 b 393 47 643 139 560 47 b 137 323 222 47 137 139 l 75 323 b 389 -14 75 98 179 -14 z "},"Ĵ":{"ha":814,"x_min":0,"x_max":0,"o":"m 389 -14 b 704 323 600 -14 704 98 l 704 963 l 332 963 l 332 903 l 643 903 l 643 323 b 393 47 643 139 560 47 b 137 323 222 47 137 139 l 75 323 b 389 -14 75 98 179 -14 z m 315 1072 l 401 1072 l 536 1196 l 671 1072 l 757 1072 l 564 1248 l 508 1248 z "},"K":{"ha":814,"x_min":0,"x_max":0,"o":"m 118 0 l 179 0 l 179 334 b 488 421 301 336 404 366 l 699 0 l 772 0 l 541 461 b 726 963 661 568 726 739 l 663 963 b 179 395 663 604 487 397 l 179 963 l 118 963 z "},"Ḱ":{"ha":814,"x_min":0,"x_max":0,"o":"m 118 0 l 179 0 l 179 334 b 488 421 301 336 404 366 l 699 0 l 772 0 l 541 461 b 726 963 661 568 726 739 l 663 963 b 179 395 663 604 487 397 l 179 963 l 118 963 z m 382 1072 l 458 1072 l 618 1241 l 535 1241 z "},"Ķ":{"ha":814,"x_min":0,"x_max":0,"o":"m 118 0 l 179 0 l 179 334 b 488 421 301 336 404 366 l 699 0 l 772 0 l 541 461 b 726 963 661 568 726 739 l 663 963 b 179 395 663 604 487 397 l 179 963 l 118 963 z m 337 -326 l 399 -326 l 454 -95 l 388 -95 z "},"Ḳ":{"ha":814,"x_min":0,"x_max":0,"o":"m 118 0 l 179 0 l 179 334 b 488 421 301 336 404 366 l 699 0 l 772 0 l 541 461 b 726 963 661 568 726 739 l 663 963 b 179 395 663 604 487 397 l 179 963 l 118 963 z m 420 -262 b 488 -195 458 -262 488 -232 b 420 -127 488 -157 458 -127 b 353 -195 383 -127 353 -157 b 420 -262 353 -232 383 -262 z "},"Ḵ":{"ha":814,"x_min":0,"x_max":0,"o":"m 118 0 l 179 0 l 179 334 b 488 421 301 336 404 366 l 699 0 l 772 0 l 541 461 b 726 963 661 568 726 739 l 663 963 b 179 395 663 604 487 397 l 179 963 l 118 963 z m 146 -202 l 694 -202 l 694 -141 l 146 -141 z "},"L":{"ha":814,"x_min":0,"x_max":0,"o":"m 125 0 l 730 0 l 730 60 l 186 60 l 186 963 l 125 963 z "},"Ĺ":{"ha":814,"x_min":0,"x_max":0,"o":"m 125 0 l 730 0 l 730 60 l 186 60 l 186 963 l 125 963 z m 117 1072 l 193 1072 l 353 1241 l 270 1241 z "},"Ƚ":{"ha":814,"x_min":0,"x_max":0,"o":"m -14 460 l 125 460 l 125 0 l 730 0 l 730 60 l 186 60 l 186 460 l 540 460 l 540 519 l 186 519 l 186 963 l 125 963 l 125 519 l -14 519 z "},"Ľ":{"ha":814,"x_min":0,"x_max":0,"o":"m 125 0 l 730 0 l 730 60 l 186 60 l 186 963 l 125 963 z m 541 806 l 603 806 l 657 1063 l 591 1063 z "},"Ļ":{"ha":814,"x_min":0,"x_max":0,"o":"m 125 0 l 730 0 l 730 60 l 186 60 l 186 963 l 125 963 z m 337 -326 l 399 -326 l 454 -95 l 388 -95 z "},"Ŀ":{"ha":814,"x_min":0,"x_max":0,"o":"m 125 0 l 730 0 l 730 60 l 186 60 l 186 963 l 125 963 z m 543 564 b 610 631 580 564 610 594 b 543 699 610 669 580 699 b 475 631 505 699 475 669 b 543 564 475 594 505 564 z "},"Ḷ":{"ha":814,"x_min":0,"x_max":0,"o":"m 125 0 l 730 0 l 730 60 l 186 60 l 186 963 l 125 963 z m 420 -262 b 488 -195 458 -262 488 -232 b 420 -127 488 -157 458 -127 b 353 -195 383 -127 353 -157 b 420 -262 353 -232 383 -262 z "},"Ḻ":{"ha":814,"x_min":0,"x_max":0,"o":"m 125 0 l 730 0 l 730 60 l 186 60 l 186 963 l 125 963 z m 146 -202 l 694 -202 l 694 -141 l 146 -141 z "},"Ɫ":{"ha":814,"x_min":0,"x_max":0,"o":"m 243 0 l 730 0 l 730 60 l 298 60 l 298 490 b 456 418 370 432 398 418 b 574 570 538 418 574 463 l 574 640 l 518 640 l 518 564 b 456 470 518 498 500 470 b 314 541 419 470 385 485 b 298 553 309 545 303 549 l 298 963 l 243 963 l 243 593 b 150 622 208 616 184 622 b 16 470 56 622 16 576 l 16 399 l 72 399 l 72 475 b 149 570 72 541 95 570 b 243 533 178 570 204 561 z "},"Ł":{"ha":814,"x_min":0,"x_max":0,"o":"m 39 309 l 125 362 l 125 0 l 730 0 l 730 60 l 186 60 l 186 400 l 586 651 l 586 719 l 186 468 l 186 963 l 125 963 l 125 430 l 39 376 z "},"M":{"ha":814,"x_min":0,"x_max":0,"o":"m 103 0 l 164 0 l 164 903 l 171 903 l 369 448 l 445 448 l 643 903 l 650 903 l 650 0 l 711 0 l 711 963 l 606 963 l 408 507 l 406 507 l 208 963 l 103 963 z "},"N":{"ha":814,"x_min":0,"x_max":0,"o":"m 597 0 l 697 0 l 697 963 l 636 963 l 636 60 l 631 60 l 217 963 l 117 963 l 117 0 l 178 0 l 178 903 l 183 903 z "},"Ń":{"ha":814,"x_min":0,"x_max":0,"o":"m 597 0 l 697 0 l 697 963 l 636 963 l 636 60 l 631 60 l 217 963 l 117 963 l 117 0 l 178 0 l 178 903 l 183 903 z m 369 1072 l 445 1072 l 604 1241 l 522 1241 z "},"Ň":{"ha":814,"x_min":0,"x_max":0,"o":"m 597 0 l 697 0 l 697 963 l 636 963 l 636 60 l 631 60 l 217 963 l 117 963 l 117 0 l 178 0 l 178 903 l 183 903 z m 379 1072 l 435 1072 l 628 1248 l 542 1248 l 407 1123 l 272 1248 l 186 1248 z "},"Ņ":{"ha":814,"x_min":0,"x_max":0,"o":"m 597 0 l 697 0 l 697 963 l 636 963 l 636 60 l 631 60 l 217 963 l 117 963 l 117 0 l 178 0 l 178 903 l 183 903 z m 323 -326 l 386 -326 l 440 -95 l 374 -95 z "},"Ŋ":{"ha":814,"x_min":0,"x_max":0,"o":"m 439 -326 l 500 -314 b 697 -38 645 -287 697 -217 l 697 963 l 636 963 l 636 60 l 631 60 l 217 963 l 117 963 l 117 0 l 178 0 l 178 903 l 183 903 l 597 0 l 636 0 l 636 -33 b 494 -252 636 -174 598 -232 l 433 -263 z "},"Ɲ":{"ha":814,"x_min":0,"x_max":0,"o":"m -44 -317 l -19 -314 b 178 -38 127 -294 178 -217 l 178 903 l 183 903 l 597 0 l 697 0 l 697 963 l 636 963 l 636 60 l 631 60 l 217 963 l 117 963 l 117 -33 b -26 -252 117 -174 79 -237 l -51 -255 z "},"Ṉ":{"ha":814,"x_min":0,"x_max":0,"o":"m 597 0 l 697 0 l 697 963 l 636 963 l 636 60 l 631 60 l 217 963 l 117 963 l 117 0 l 178 0 l 178 903 l 183 903 z m 133 -202 l 681 -202 l 681 -141 l 133 -141 z "},"Ñ":{"ha":814,"x_min":0,"x_max":0,"o":"m 597 0 l 697 0 l 697 963 l 636 963 l 636 60 l 631 60 l 217 963 l 117 963 l 117 0 l 178 0 l 178 903 l 183 903 z m 166 1062 l 227 1062 l 227 1123 b 292 1208 227 1180 248 1208 b 404 1152 319 1208 355 1189 b 550 1085 459 1107 507 1085 b 663 1234 625 1085 663 1135 l 663 1282 l 602 1282 l 602 1227 b 549 1143 602 1171 584 1143 b 431 1202 520 1143 481 1162 b 292 1265 378 1244 332 1265 b 166 1116 208 1265 166 1216 z "},"O":{"ha":814,"x_min":0,"x_max":0,"o":"m 407 -14 b 746 475 632 -14 746 148 b 407 977 746 810 632 977 b 68 475 182 977 68 810 b 407 -14 68 148 182 -14 z m 407 41 b 130 475 222 41 130 185 b 407 916 130 770 222 916 b 684 475 591 916 684 770 b 407 41 684 185 591 41 z "},"Ó":{"ha":814,"x_min":0,"x_max":0,"o":"m 407 -14 b 746 475 632 -14 746 148 b 407 977 746 810 632 977 b 68 475 182 977 68 810 b 407 -14 68 148 182 -14 z m 407 41 b 130 475 222 41 130 185 b 407 916 130 770 222 916 b 684 475 591 916 684 770 b 407 41 684 185 591 41 z m 369 1072 l 445 1072 l 604 1241 l 522 1241 z "},"Ŏ":{"ha":814,"x_min":0,"x_max":0,"o":"m 407 -14 b 746 475 632 -14 746 148 b 407 977 746 810 632 977 b 68 475 182 977 68 810 b 407 -14 68 148 182 -14 z m 407 41 b 130 475 222 41 130 185 b 407 916 130 770 222 916 b 684 475 591 916 684 770 b 407 41 684 185 591 41 z m 407 1065 b 647 1261 559 1065 647 1137 l 586 1261 b 407 1122 586 1173 520 1122 b 228 1261 294 1122 228 1173 l 167 1261 b 407 1065 167 1137 255 1065 z "},"Ô":{"ha":814,"x_min":0,"x_max":0,"o":"m 407 -14 b 746 475 632 -14 746 148 b 407 977 746 810 632 977 b 68 475 182 977 68 810 b 407 -14 68 148 182 -14 z m 407 41 b 130 475 222 41 130 185 b 407 916 130 770 222 916 b 684 475 591 916 684 770 b 407 41 684 185 591 41 z m 186 1072 l 272 1072 l 407 1196 l 542 1072 l 628 1072 l 435 1248 l 379 1248 z "},"Ố":{"ha":814,"x_min":0,"x_max":0,"o":"m 407 -14 b 746 475 632 -14 746 148 b 407 977 746 810 632 977 b 68 475 182 977 68 810 b 407 -14 68 148 182 -14 z m 407 41 b 130 475 222 41 130 185 b 407 916 130 770 222 916 b 684 475 591 916 684 770 b 407 41 684 185 591 41 z m 186 1072 l 272 1072 l 407 1196 l 542 1072 l 628 1072 l 435 1248 l 379 1248 z m 563 1240 l 639 1240 l 798 1409 l 715 1409 z "},"Ộ":{"ha":814,"x_min":0,"x_max":0,"o":"m 407 -14 b 746 475 632 -14 746 148 b 407 977 746 810 632 977 b 68 475 182 977 68 810 b 407 -14 68 148 182 -14 z m 407 41 b 130 475 222 41 130 185 b 407 916 130 770 222 916 b 684 475 591 916 684 770 b 407 41 684 185 591 41 z m 186 1072 l 272 1072 l 407 1196 l 542 1072 l 628 1072 l 435 1248 l 379 1248 z m 407 -262 b 475 -195 444 -262 475 -232 b 407 -127 475 -157 444 -127 b 339 -195 370 -127 339 -157 b 407 -262 339 -232 370 -262 z "},"Ồ":{"ha":814,"x_min":0,"x_max":0,"o":"m 407 -14 b 746 475 632 -14 746 148 b 407 977 746 810 632 977 b 68 475 182 977 68 810 b 407 -14 68 148 182 -14 z m 407 41 b 130 475 222 41 130 185 b 407 916 130 770 222 916 b 684 475 591 916 684 770 b 407 41 684 185 591 41 z m 186 1072 l 272 1072 l 407 1196 l 542 1072 l 628 1072 l 435 1248 l 379 1248 z m 564 1240 l 640 1240 l 487 1409 l 404 1409 z "},"Ổ":{"ha":814,"x_min":0,"x_max":0,"o":"m 407 -14 b 746 475 632 -14 746 148 b 407 977 746 810 632 977 b 68 475 182 977 68 810 b 407 -14 68 148 182 -14 z m 407 41 b 130 475 222 41 130 185 b 407 916 130 770 222 916 b 684 475 591 916 684 770 b 407 41 684 185 591 41 z m 574 1205 l 640 1205 b 659 1236 640 1218 648 1229 b 747 1356 728 1277 747 1312 b 613 1459 747 1425 703 1459 b 449 1409 542 1459 482 1441 l 475 1362 b 599 1401 507 1387 552 1401 b 682 1349 654 1401 682 1383 b 623 1279 682 1324 664 1304 b 574 1219 593 1261 574 1246 z m 186 1072 l 272 1072 l 407 1196 l 542 1072 l 628 1072 l 435 1248 l 379 1248 z "},"Ỗ":{"ha":814,"x_min":0,"x_max":0,"o":"m 407 -14 b 746 475 632 -14 746 148 b 407 977 746 810 632 977 b 68 475 182 977 68 810 b 407 -14 68 148 182 -14 z m 407 41 b 130 475 222 41 130 185 b 407 916 130 770 222 916 b 684 475 591 916 684 770 b 407 41 684 185 591 41 z m 166 1320 l 227 1320 l 227 1381 b 292 1466 227 1438 248 1466 b 404 1409 319 1466 355 1447 b 550 1343 459 1364 507 1343 b 663 1492 625 1343 663 1392 l 663 1539 l 602 1539 l 602 1485 b 549 1400 602 1428 584 1400 b 431 1460 520 1400 481 1420 b 292 1523 378 1502 332 1523 b 166 1374 208 1523 166 1474 z m 186 1072 l 272 1072 l 407 1196 l 542 1072 l 628 1072 l 435 1248 l 379 1248 z "},"Ö":{"ha":814,"x_min":0,"x_max":0,"o":"m 407 -14 b 746 475 632 -14 746 148 b 407 977 746 810 632 977 b 68 475 182 977 68 810 b 407 -14 68 148 182 -14 z m 407 41 b 130 475 222 41 130 185 b 407 916 130 770 222 916 b 684 475 591 916 684 770 b 407 41 684 185 591 41 z m 266 1095 b 334 1162 303 1095 334 1124 b 266 1230 334 1199 303 1230 b 198 1162 229 1230 198 1199 b 266 1095 198 1124 229 1095 z m 548 1095 b 616 1162 585 1095 616 1124 b 548 1230 616 1199 585 1230 b 480 1162 511 1230 480 1199 b 548 1095 480 1124 511 1095 z "},"Ọ":{"ha":814,"x_min":0,"x_max":0,"o":"m 407 -14 b 746 475 632 -14 746 148 b 407 977 746 810 632 977 b 68 475 182 977 68 810 b 407 -14 68 148 182 -14 z m 407 41 b 130 475 222 41 130 185 b 407 916 130 770 222 916 b 684 475 591 916 684 770 b 407 41 684 185 591 41 z m 407 -262 b 475 -195 444 -262 475 -232 b 407 -127 475 -157 444 -127 b 339 -195 370 -127 339 -157 b 407 -262 339 -232 370 -262 z "},"Ò":{"ha":814,"x_min":0,"x_max":0,"o":"m 407 -14 b 746 475 632 -14 746 148 b 407 977 746 810 632 977 b 68 475 182 977 68 810 b 407 -14 68 148 182 -14 z m 407 41 b 130 475 222 41 130 185 b 407 916 130 770 222 916 b 684 475 591 916 684 770 b 407 41 684 185 591 41 z m 370 1072 l 446 1072 l 293 1241 l 210 1241 z "},"Ỏ":{"ha":814,"x_min":0,"x_max":0,"o":"m 407 -14 b 746 475 632 -14 746 148 b 407 977 746 810 632 977 b 68 475 182 977 68 810 b 407 -14 68 148 182 -14 z m 407 41 b 130 475 222 41 130 185 b 407 916 130 770 222 916 b 684 475 591 916 684 770 b 407 41 684 185 591 41 z m 380 1037 l 446 1037 b 465 1067 446 1050 454 1061 b 553 1187 534 1109 553 1144 b 419 1291 553 1257 509 1291 b 255 1240 348 1291 288 1273 l 281 1194 b 405 1233 313 1219 358 1233 b 488 1181 460 1233 488 1215 b 429 1111 488 1156 470 1136 b 380 1051 399 1093 380 1078 z "},"Ơ":{"ha":814,"x_min":0,"x_max":0,"o":"m 407 -14 b 746 475 632 -14 746 148 b 654 862 746 650 715 779 b 833 1121 779 889 833 964 l 770 1121 b 620 916 770 991 725 933 l 605 913 b 407 977 553 956 487 977 b 68 475 182 977 68 810 b 407 -14 68 148 182 -14 z m 407 41 b 130 475 222 41 130 185 b 407 916 130 770 222 916 b 684 475 591 916 684 770 b 407 41 684 185 591 41 z "},"Ớ":{"ha":814,"x_min":0,"x_max":0,"o":"m 407 -14 b 746 475 632 -14 746 148 b 654 862 746 650 715 779 b 833 1121 779 889 833 964 l 770 1121 b 620 916 770 991 725 933 l 605 913 b 407 977 553 956 487 977 b 68 475 182 977 68 810 b 407 -14 68 148 182 -14 z m 407 41 b 130 475 222 41 130 185 b 407 916 130 770 222 916 b 684 475 591 916 684 770 b 407 41 684 185 591 41 z m 369 1072 l 445 1072 l 604 1241 l 522 1241 z "},"Ợ":{"ha":814,"x_min":0,"x_max":0,"o":"m 407 -14 b 746 475 632 -14 746 148 b 654 862 746 650 715 779 b 833 1121 779 889 833 964 l 770 1121 b 620 916 770 991 725 933 l 605 913 b 407 977 553 956 487 977 b 68 475 182 977 68 810 b 407 -14 68 148 182 -14 z m 407 41 b 130 475 222 41 130 185 b 407 916 130 770 222 916 b 684 475 591 916 684 770 b 407 41 684 185 591 41 z m 407 -262 b 475 -195 444 -262 475 -232 b 407 -127 475 -157 444 -127 b 339 -195 370 -127 339 -157 b 407 -262 339 -232 370 -262 z "},"Ờ":{"ha":814,"x_min":0,"x_max":0,"o":"m 407 -14 b 746 475 632 -14 746 148 b 654 862 746 650 715 779 b 833 1121 779 889 833 964 l 770 1121 b 620 916 770 991 725 933 l 605 913 b 407 977 553 956 487 977 b 68 475 182 977 68 810 b 407 -14 68 148 182 -14 z m 407 41 b 130 475 222 41 130 185 b 407 916 130 770 222 916 b 684 475 591 916 684 770 b 407 41 684 185 591 41 z m 370 1072 l 446 1072 l 293 1241 l 210 1241 z "},"Ở":{"ha":814,"x_min":0,"x_max":0,"o":"m 407 -14 b 746 475 632 -14 746 148 b 654 862 746 650 715 779 b 833 1121 779 889 833 964 l 770 1121 b 620 916 770 991 725 933 l 605 913 b 407 977 553 956 487 977 b 68 475 182 977 68 810 b 407 -14 68 148 182 -14 z m 407 41 b 130 475 222 41 130 185 b 407 916 130 770 222 916 b 684 475 591 916 684 770 b 407 41 684 185 591 41 z m 380 1037 l 446 1037 b 465 1067 446 1050 454 1061 b 553 1187 534 1109 553 1144 b 419 1291 553 1257 509 1291 b 255 1240 348 1291 288 1273 l 281 1194 b 405 1233 313 1219 358 1233 b 488 1181 460 1233 488 1215 b 429 1111 488 1156 470 1136 b 380 1051 399 1093 380 1078 z "},"Ỡ":{"ha":814,"x_min":0,"x_max":0,"o":"m 407 -14 b 746 475 632 -14 746 148 b 654 862 746 650 715 779 b 833 1121 779 889 833 964 l 770 1121 b 620 916 770 991 725 933 l 605 913 b 407 977 553 956 487 977 b 68 475 182 977 68 810 b 407 -14 68 148 182 -14 z m 407 41 b 130 475 222 41 130 185 b 407 916 130 770 222 916 b 684 475 591 916 684 770 b 407 41 684 185 591 41 z m 166 1062 l 227 1062 l 227 1123 b 292 1208 227 1180 248 1208 b 404 1152 319 1208 355 1189 b 550 1085 459 1107 507 1085 b 663 1234 625 1085 663 1135 l 663 1282 l 602 1282 l 602 1227 b 549 1143 602 1171 584 1143 b 431 1202 520 1143 481 1162 b 292 1265 378 1244 332 1265 b 166 1116 208 1265 166 1216 z "},"Ő":{"ha":814,"x_min":0,"x_max":0,"o":"m 407 -14 b 746 475 632 -14 746 148 b 407 977 746 810 632 977 b 68 475 182 977 68 810 b 407 -14 68 148 182 -14 z m 407 41 b 130 475 222 41 130 185 b 407 916 130 770 222 916 b 684 475 591 916 684 770 b 407 41 684 185 591 41 z m 247 1072 l 323 1072 l 441 1241 l 359 1241 z m 464 1072 l 540 1072 l 659 1241 l 576 1241 z "},"Ō":{"ha":814,"x_min":0,"x_max":0,"o":"m 407 -14 b 746 475 632 -14 746 148 b 407 977 746 810 632 977 b 68 475 182 977 68 810 b 407 -14 68 148 182 -14 z m 407 41 b 130 475 222 41 130 185 b 407 916 130 770 222 916 b 684 475 591 916 684 770 b 407 41 684 185 591 41 z m 144 1105 l 669 1105 l 669 1165 l 144 1165 z "},"Ṓ":{"ha":814,"x_min":0,"x_max":0,"o":"m 407 -14 b 746 475 632 -14 746 148 b 407 977 746 810 632 977 b 68 475 182 977 68 810 b 407 -14 68 148 182 -14 z m 407 41 b 130 475 222 41 130 185 b 407 916 130 770 222 916 b 684 475 591 916 684 770 b 407 41 684 185 591 41 z m 144 1105 l 669 1105 l 669 1165 l 144 1165 z m 369 1275 l 445 1275 l 604 1444 l 522 1444 z "},"Ṑ":{"ha":814,"x_min":0,"x_max":0,"o":"m 407 -14 b 746 475 632 -14 746 148 b 407 977 746 810 632 977 b 68 475 182 977 68 810 b 407 -14 68 148 182 -14 z m 407 41 b 130 475 222 41 130 185 b 407 916 130 770 222 916 b 684 475 591 916 684 770 b 407 41 684 185 591 41 z m 144 1105 l 669 1105 l 669 1165 l 144 1165 z m 370 1275 l 446 1275 l 293 1444 l 210 1444 z "},"Ǫ":{"ha":814,"x_min":0,"x_max":0,"o":"m 429 -288 b 492 -281 447 -288 471 -287 l 497 -228 b 446 -231 479 -230 460 -231 b 334 -141 374 -231 334 -199 b 505 -1 334 -61 395 -33 b 516 1 509 -1 512 1 b 522 3 518 2 520 3 l 522 3 b 746 475 671 53 746 209 b 407 977 746 810 632 977 b 68 475 182 977 68 810 b 361 -12 68 171 166 9 l 361 -18 b 273 -148 305 -41 273 -88 b 429 -288 273 -237 330 -288 z m 407 41 b 130 475 222 41 130 185 b 407 916 130 770 222 916 b 684 475 591 916 684 770 b 407 41 684 185 591 41 z "},"Ɔ":{"ha":814,"x_min":0,"x_max":0,"o":"m 336 -14 b 746 484 609 -14 746 174 b 322 977 746 802 601 977 b 88 930 239 977 163 962 l 107 873 b 306 914 172 901 236 914 b 681 478 553 914 681 755 b 344 49 681 210 556 49 b 89 149 241 49 181 73 l 41 102 b 336 -14 118 25 220 -14 z "},"Ø":{"ha":814,"x_min":0,"x_max":0,"o":"m 130 -91 l 205 51 b 407 -14 258 8 325 -14 b 746 475 632 -14 746 148 b 646 872 746 657 712 789 l 718 1008 l 671 1039 l 604 914 b 407 977 552 956 486 977 b 68 475 182 977 68 810 b 164 93 68 301 100 174 l 82 -60 z m 407 41 b 235 105 336 41 278 62 l 612 810 b 684 475 660 736 684 625 b 407 41 684 185 591 41 z m 197 153 b 130 475 153 226 130 333 b 407 916 130 770 222 916 b 573 857 475 916 530 896 z "},"Ǿ":{"ha":814,"x_min":0,"x_max":0,"o":"m 130 -91 l 205 51 b 407 -14 258 8 325 -14 b 746 475 632 -14 746 148 b 646 872 746 657 712 789 l 718 1008 l 671 1039 l 604 914 b 407 977 552 956 486 977 b 68 475 182 977 68 810 b 164 93 68 301 100 174 l 82 -60 z m 407 41 b 235 105 336 41 278 62 l 612 810 b 684 475 660 736 684 625 b 407 41 684 185 591 41 z m 197 153 b 130 475 153 226 130 333 b 407 916 130 770 222 916 b 573 857 475 916 530 896 z m 369 1072 l 445 1072 l 604 1241 l 522 1241 z "},"Õ":{"ha":814,"x_min":0,"x_max":0,"o":"m 407 -14 b 746 475 632 -14 746 148 b 407 977 746 810 632 977 b 68 475 182 977 68 810 b 407 -14 68 148 182 -14 z m 407 41 b 130 475 222 41 130 185 b 407 916 130 770 222 916 b 684 475 591 916 684 770 b 407 41 684 185 591 41 z m 166 1062 l 227 1062 l 227 1123 b 292 1208 227 1180 248 1208 b 404 1152 319 1208 355 1189 b 550 1085 459 1107 507 1085 b 663 1234 625 1085 663 1135 l 663 1282 l 602 1282 l 602 1227 b 549 1143 602 1171 584 1143 b 431 1202 520 1143 481 1162 b 292 1265 378 1244 332 1265 b 166 1116 208 1265 166 1216 z "},"Œ":{"ha":814,"x_min":0,"x_max":0,"o":"m 353 -14 b 475 0 404 -14 443 0 l 728 0 l 728 60 l 495 60 l 495 452 l 688 452 l 688 512 l 495 512 l 495 903 l 728 903 l 728 963 l 475 963 b 353 977 433 963 401 977 b 69 475 173 977 69 793 b 353 -14 69 164 173 -14 z m 359 47 b 132 475 215 47 132 203 b 353 916 132 755 212 916 b 434 901 383 916 412 910 l 434 52 b 359 47 413 49 386 47 z "},"P":{"ha":814,"x_min":0,"x_max":0,"o":"m 125 0 l 186 0 l 186 332 l 406 332 b 743 648 621 332 743 447 b 406 963 743 848 621 963 l 125 963 z m 186 392 l 186 903 l 406 903 b 681 648 581 903 681 810 b 406 392 681 485 581 392 z "},"Þ":{"ha":814,"x_min":0,"x_max":0,"o":"m 125 0 l 186 0 l 186 166 l 406 166 b 743 481 621 166 743 281 b 406 797 743 682 621 797 l 186 797 l 186 963 l 125 963 z m 186 226 l 186 737 l 406 737 b 681 481 581 737 681 644 b 406 226 681 319 581 226 z "},"Q":{"ha":814,"x_min":0,"x_max":0,"o":"m 665 -312 l 686 -312 l 694 -252 l 665 -252 b 434 -15 518 -252 434 -165 l 434 -13 b 746 475 641 0 746 161 b 407 977 746 810 632 977 b 68 475 182 977 68 810 b 373 -12 68 165 170 3 l 373 -14 b 665 -312 373 -203 479 -312 z m 407 41 b 130 475 222 41 130 185 b 407 916 130 770 222 916 b 684 475 591 916 684 770 b 407 41 684 185 591 41 z "},"R":{"ha":814,"x_min":0,"x_max":0,"o":"m 111 0 l 172 0 l 172 401 l 453 401 b 477 401 461 401 469 401 l 684 0 l 758 0 l 541 411 b 723 685 658 441 723 538 b 453 963 723 862 625 963 l 111 963 z m 172 460 l 172 903 l 453 903 b 661 671 585 903 661 819 b 453 460 661 537 585 460 z "},"Ŕ":{"ha":814,"x_min":0,"x_max":0,"o":"m 111 0 l 172 0 l 172 401 l 453 401 b 477 401 461 401 469 401 l 684 0 l 758 0 l 541 411 b 723 685 658 441 723 538 b 453 963 723 862 625 963 l 111 963 z m 172 460 l 172 903 l 453 903 b 661 671 585 903 661 819 b 453 460 661 537 585 460 z m 342 1072 l 418 1072 l 577 1241 l 494 1241 z "},"Ř":{"ha":814,"x_min":0,"x_max":0,"o":"m 111 0 l 172 0 l 172 401 l 453 401 b 477 401 461 401 469 401 l 684 0 l 758 0 l 541 411 b 723 685 658 441 723 538 b 453 963 723 862 625 963 l 111 963 z m 172 460 l 172 903 l 453 903 b 661 671 585 903 661 819 b 453 460 661 537 585 460 z m 352 1072 l 408 1072 l 601 1248 l 515 1248 l 380 1123 l 245 1248 l 159 1248 z "},"Ŗ":{"ha":814,"x_min":0,"x_max":0,"o":"m 111 0 l 172 0 l 172 401 l 453 401 b 477 401 461 401 469 401 l 684 0 l 758 0 l 541 411 b 723 685 658 441 723 538 b 453 963 723 862 625 963 l 111 963 z m 172 460 l 172 903 l 453 903 b 661 671 585 903 661 819 b 453 460 661 537 585 460 z m 330 -326 l 393 -326 l 447 -95 l 381 -95 z "},"Ṛ":{"ha":814,"x_min":0,"x_max":0,"o":"m 111 0 l 172 0 l 172 401 l 453 401 b 477 401 461 401 469 401 l 684 0 l 758 0 l 541 411 b 723 685 658 441 723 538 b 453 963 723 862 625 963 l 111 963 z m 172 460 l 172 903 l 453 903 b 661 671 585 903 661 819 b 453 460 661 537 585 460 z m 414 -262 b 481 -195 451 -262 481 -232 b 414 -127 481 -157 451 -127 b 346 -195 376 -127 346 -157 b 414 -262 346 -232 376 -262 z "},"S":{"ha":814,"x_min":0,"x_max":0,"o":"m 374 -14 b 701 224 592 -14 701 65 b 543 459 701 325 649 404 l 302 584 b 192 739 230 621 192 668 b 412 916 192 857 264 916 b 661 819 494 916 577 884 l 705 863 b 411 977 627 939 529 977 b 130 732 223 977 130 895 b 269 530 130 640 178 578 l 528 392 b 638 222 602 353 638 296 b 385 47 638 105 554 47 b 113 98 296 47 206 64 l 104 33 b 374 -14 184 2 273 -14 z "},"Ś":{"ha":814,"x_min":0,"x_max":0,"o":"m 374 -14 b 701 224 592 -14 701 65 b 543 459 701 325 649 404 l 302 584 b 192 739 230 621 192 668 b 412 916 192 857 264 916 b 661 819 494 916 577 884 l 705 863 b 411 977 627 939 529 977 b 130 732 223 977 130 895 b 269 530 130 640 178 578 l 528 392 b 638 222 602 353 638 296 b 385 47 638 105 554 47 b 113 98 296 47 206 64 l 104 33 b 374 -14 184 2 273 -14 z m 382 1072 l 458 1072 l 618 1241 l 535 1241 z "},"Š":{"ha":814,"x_min":0,"x_max":0,"o":"m 374 -14 b 701 224 592 -14 701 65 b 543 459 701 325 649 404 l 302 584 b 192 739 230 621 192 668 b 412 916 192 857 264 916 b 661 819 494 916 577 884 l 705 863 b 411 977 627 939 529 977 b 130 732 223 977 130 895 b 269 530 130 640 178 578 l 528 392 b 638 222 602 353 638 296 b 385 47 638 105 554 47 b 113 98 296 47 206 64 l 104 33 b 374 -14 184 2 273 -14 z m 393 1072 l 448 1072 l 642 1248 l 555 1248 l 420 1123 l 286 1248 l 199 1248 z "},"Ş":{"ha":814,"x_min":0,"x_max":0,"o":"m 374 -14 b 378 -14 375 -14 376 -14 l 339 -115 b 489 -188 445 -115 489 -136 b 318 -271 489 -246 438 -271 l 318 -326 b 547 -188 479 -326 547 -284 b 417 -75 547 -122 509 -81 l 438 -11 b 701 224 613 3 701 81 b 543 459 701 325 649 404 l 302 584 b 192 739 230 621 192 668 b 412 916 192 857 264 916 b 661 819 494 916 577 884 l 705 863 b 411 977 627 939 529 977 b 130 732 223 977 130 895 b 269 530 130 640 178 578 l 528 392 b 638 222 602 353 638 296 b 385 47 638 105 554 47 b 113 98 296 47 206 64 l 104 33 b 374 -14 184 2 273 -14 z "},"Ŝ":{"ha":814,"x_min":0,"x_max":0,"o":"m 374 -14 b 701 224 592 -14 701 65 b 543 459 701 325 649 404 l 302 584 b 192 739 230 621 192 668 b 412 916 192 857 264 916 b 661 819 494 916 577 884 l 705 863 b 411 977 627 939 529 977 b 130 732 223 977 130 895 b 269 530 130 640 178 578 l 528 392 b 638 222 602 353 638 296 b 385 47 638 105 554 47 b 113 98 296 47 206 64 l 104 33 b 374 -14 184 2 273 -14 z m 199 1072 l 286 1072 l 420 1196 l 555 1072 l 642 1072 l 448 1248 l 393 1248 z "},"Ș":{"ha":814,"x_min":0,"x_max":0,"o":"m 374 -14 b 701 224 592 -14 701 65 b 543 459 701 325 649 404 l 302 584 b 192 739 230 621 192 668 b 412 916 192 857 264 916 b 661 819 494 916 577 884 l 705 863 b 411 977 627 939 529 977 b 130 732 223 977 130 895 b 269 530 130 640 178 578 l 528 392 b 638 222 602 353 638 296 b 385 47 638 105 554 47 b 113 98 296 47 206 64 l 104 33 b 374 -14 184 2 273 -14 z m 330 -326 l 393 -326 l 447 -95 l 381 -95 z "},"Ṣ":{"ha":814,"x_min":0,"x_max":0,"o":"m 374 -14 b 701 224 592 -14 701 65 b 543 459 701 325 649 404 l 302 584 b 192 739 230 621 192 668 b 412 916 192 857 264 916 b 661 819 494 916 577 884 l 705 863 b 411 977 627 939 529 977 b 130 732 223 977 130 895 b 269 530 130 640 178 578 l 528 392 b 638 222 602 353 638 296 b 385 47 638 105 554 47 b 113 98 296 47 206 64 l 104 33 b 374 -14 184 2 273 -14 z m 414 -262 b 481 -195 451 -262 481 -232 b 414 -127 481 -157 451 -127 b 346 -195 376 -127 346 -157 b 414 -262 346 -232 376 -262 z "},"ẞ":{"ha":814,"x_min":0,"x_max":0,"o":"m 113 0 l 174 0 l 174 631 b 445 916 174 830 254 916 b 648 846 521 916 583 895 l 446 538 l 509 518 b 705 281 633 478 705 392 b 459 47 705 133 615 47 b 329 60 417 47 370 52 l 311 2 b 448 -14 345 -7 395 -14 b 767 281 651 -14 767 94 b 544 576 767 414 686 522 l 732 861 l 731 861 b 445 977 651 942 566 977 b 113 631 212 977 113 873 z "},"Ə":{"ha":814,"x_min":0,"x_max":0,"o":"m 407 -14 b 745 475 631 -14 745 148 b 339 977 745 810 608 977 b 132 945 267 977 197 966 l 144 886 b 339 916 204 905 271 916 b 682 507 559 916 673 781 l 72 507 b 69 427 70 482 69 455 b 407 -14 69 132 182 -14 z m 682 446 b 407 47 676 180 584 47 b 132 427 224 47 132 174 b 132 446 132 434 132 440 z "},"T":{"ha":814,"x_min":0,"x_max":0,"o":"m 376 0 l 437 0 l 437 903 l 743 903 l 743 963 l 71 963 l 71 903 l 376 903 z "},"Ŧ":{"ha":814,"x_min":0,"x_max":0,"o":"m 130 433 l 376 433 l 376 0 l 437 0 l 437 433 l 684 433 l 684 492 l 437 492 l 437 903 l 743 903 l 743 963 l 71 963 l 71 903 l 376 903 l 376 492 l 130 492 z "},"Ť":{"ha":814,"x_min":0,"x_max":0,"o":"m 376 0 l 437 0 l 437 903 l 743 903 l 743 963 l 71 963 l 71 903 l 376 903 z m 379 1072 l 435 1072 l 628 1248 l 542 1248 l 407 1123 l 272 1248 l 186 1248 z "},"Ţ":{"ha":814,"x_min":0,"x_max":0,"o":"m 71 903 l 376 903 l 376 9 l 329 -115 b 479 -188 435 -115 479 -136 b 308 -271 479 -246 428 -271 l 308 -326 b 537 -188 469 -326 537 -284 b 407 -75 537 -122 498 -81 l 431 0 l 437 0 l 437 903 l 743 903 l 743 963 l 71 963 z "},"Ț":{"ha":814,"x_min":0,"x_max":0,"o":"m 376 0 l 437 0 l 437 903 l 743 903 l 743 963 l 71 963 l 71 903 l 376 903 z m 320 -326 l 382 -326 l 437 -95 l 371 -95 z "},"Ⱦ":{"ha":814,"x_min":0,"x_max":0,"o":"m 290 -224 l 376 68 l 376 0 l 437 0 l 437 275 l 623 903 l 743 903 l 743 963 l 640 963 l 694 1147 l 629 1164 l 571 963 l 71 963 l 71 903 l 376 903 l 376 291 l 232 -208 z m 437 502 l 437 903 l 554 903 z "},"Ṯ":{"ha":814,"x_min":0,"x_max":0,"o":"m 376 0 l 437 0 l 437 903 l 743 903 l 743 963 l 71 963 l 71 903 l 376 903 z m 130 -202 l 677 -202 l 677 -141 l 130 -141 z "},"U":{"ha":814,"x_min":0,"x_max":0,"o":"m 404 -14 b 703 309 600 -14 703 94 l 703 963 l 642 963 l 642 309 b 407 47 642 136 562 47 b 172 309 244 47 172 136 l 172 963 l 111 963 l 111 309 b 404 -14 111 94 209 -14 z "},"Ú":{"ha":814,"x_min":0,"x_max":0,"o":"m 404 -14 b 703 309 600 -14 703 94 l 703 963 l 642 963 l 642 309 b 407 47 642 136 562 47 b 172 309 244 47 172 136 l 172 963 l 111 963 l 111 309 b 404 -14 111 94 209 -14 z m 369 1072 l 445 1072 l 604 1241 l 522 1241 z "},"Ŭ":{"ha":814,"x_min":0,"x_max":0,"o":"m 404 -14 b 703 309 600 -14 703 94 l 703 963 l 642 963 l 642 309 b 407 47 642 136 562 47 b 172 309 244 47 172 136 l 172 963 l 111 963 l 111 309 b 404 -14 111 94 209 -14 z m 407 1065 b 647 1261 559 1065 647 1137 l 586 1261 b 407 1122 586 1173 520 1122 b 228 1261 294 1122 228 1173 l 167 1261 b 407 1065 167 1137 255 1065 z "},"Û":{"ha":814,"x_min":0,"x_max":0,"o":"m 404 -14 b 703 309 600 -14 703 94 l 703 963 l 642 963 l 642 309 b 407 47 642 136 562 47 b 172 309 244 47 172 136 l 172 963 l 111 963 l 111 309 b 404 -14 111 94 209 -14 z m 186 1072 l 272 1072 l 407 1196 l 542 1072 l 628 1072 l 435 1248 l 379 1248 z "},"Ü":{"ha":814,"x_min":0,"x_max":0,"o":"m 404 -14 b 703 309 600 -14 703 94 l 703 963 l 642 963 l 642 309 b 407 47 642 136 562 47 b 172 309 244 47 172 136 l 172 963 l 111 963 l 111 309 b 404 -14 111 94 209 -14 z m 266 1095 b 334 1162 303 1095 334 1124 b 266 1230 334 1199 303 1230 b 198 1162 229 1230 198 1199 b 266 1095 198 1124 229 1095 z m 548 1095 b 616 1162 585 1095 616 1124 b 548 1230 616 1199 585 1230 b 480 1162 511 1230 480 1199 b 548 1095 480 1124 511 1095 z "},"Ụ":{"ha":814,"x_min":0,"x_max":0,"o":"m 404 -14 b 703 309 600 -14 703 94 l 703 963 l 642 963 l 642 309 b 407 47 642 136 562 47 b 172 309 244 47 172 136 l 172 963 l 111 963 l 111 309 b 404 -14 111 94 209 -14 z m 407 -262 b 475 -195 444 -262 475 -232 b 407 -127 475 -157 444 -127 b 339 -195 370 -127 339 -157 b 407 -262 339 -232 370 -262 z "},"Ù":{"ha":814,"x_min":0,"x_max":0,"o":"m 404 -14 b 703 309 600 -14 703 94 l 703 963 l 642 963 l 642 309 b 407 47 642 136 562 47 b 172 309 244 47 172 136 l 172 963 l 111 963 l 111 309 b 404 -14 111 94 209 -14 z m 370 1072 l 446 1072 l 293 1241 l 210 1241 z "},"Ủ":{"ha":814,"x_min":0,"x_max":0,"o":"m 404 -14 b 703 309 600 -14 703 94 l 703 963 l 642 963 l 642 309 b 407 47 642 136 562 47 b 172 309 244 47 172 136 l 172 963 l 111 963 l 111 309 b 404 -14 111 94 209 -14 z m 380 1037 l 446 1037 b 465 1067 446 1050 454 1061 b 553 1187 534 1109 553 1144 b 419 1291 553 1257 509 1291 b 255 1240 348 1291 288 1273 l 281 1194 b 405 1233 313 1219 358 1233 b 488 1181 460 1233 488 1215 b 429 1111 488 1156 470 1136 b 380 1051 399 1093 380 1078 z "},"Ư":{"ha":814,"x_min":0,"x_max":0,"o":"m 404 -14 b 703 309 600 -14 703 94 l 703 913 b 867 1121 817 935 867 992 l 804 1121 b 684 970 804 1025 768 984 l 643 963 l 642 963 l 642 309 b 407 47 642 136 562 47 b 172 309 244 47 172 136 l 172 963 l 111 963 l 111 309 b 404 -14 111 94 209 -14 z "},"Ứ":{"ha":814,"x_min":0,"x_max":0,"o":"m 404 -14 b 703 309 600 -14 703 94 l 703 913 b 867 1121 817 935 867 992 l 804 1121 b 684 970 804 1025 768 984 l 643 963 l 642 963 l 642 309 b 407 47 642 136 562 47 b 172 309 244 47 172 136 l 172 963 l 111 963 l 111 309 b 404 -14 111 94 209 -14 z m 369 1072 l 445 1072 l 604 1241 l 522 1241 z "},"Ự":{"ha":814,"x_min":0,"x_max":0,"o":"m 404 -14 b 703 309 600 -14 703 94 l 703 913 b 867 1121 817 935 867 992 l 804 1121 b 684 970 804 1025 768 984 l 643 963 l 642 963 l 642 309 b 407 47 642 136 562 47 b 172 309 244 47 172 136 l 172 963 l 111 963 l 111 309 b 404 -14 111 94 209 -14 z m 407 -262 b 475 -195 444 -262 475 -232 b 407 -127 475 -157 444 -127 b 339 -195 370 -127 339 -157 b 407 -262 339 -232 370 -262 z "},"Ừ":{"ha":814,"x_min":0,"x_max":0,"o":"m 404 -14 b 703 309 600 -14 703 94 l 703 913 b 867 1121 817 935 867 992 l 804 1121 b 684 970 804 1025 768 984 l 643 963 l 642 963 l 642 309 b 407 47 642 136 562 47 b 172 309 244 47 172 136 l 172 963 l 111 963 l 111 309 b 404 -14 111 94 209 -14 z m 370 1072 l 446 1072 l 293 1241 l 210 1241 z "},"Ử":{"ha":814,"x_min":0,"x_max":0,"o":"m 404 -14 b 703 309 600 -14 703 94 l 703 913 b 867 1121 817 935 867 992 l 804 1121 b 684 970 804 1025 768 984 l 643 963 l 642 963 l 642 309 b 407 47 642 136 562 47 b 172 309 244 47 172 136 l 172 963 l 111 963 l 111 309 b 404 -14 111 94 209 -14 z m 380 1037 l 446 1037 b 465 1067 446 1050 454 1061 b 553 1187 534 1109 553 1144 b 419 1291 553 1257 509 1291 b 255 1240 348 1291 288 1273 l 281 1194 b 405 1233 313 1219 358 1233 b 488 1181 460 1233 488 1215 b 429 1111 488 1156 470 1136 b 380 1051 399 1093 380 1078 z "},"Ữ":{"ha":814,"x_min":0,"x_max":0,"o":"m 404 -14 b 703 309 600 -14 703 94 l 703 913 b 867 1121 817 935 867 992 l 804 1121 b 684 970 804 1025 768 984 l 643 963 l 642 963 l 642 309 b 407 47 642 136 562 47 b 172 309 244 47 172 136 l 172 963 l 111 963 l 111 309 b 404 -14 111 94 209 -14 z m 166 1062 l 227 1062 l 227 1123 b 292 1208 227 1180 248 1208 b 404 1152 319 1208 355 1189 b 550 1085 459 1107 507 1085 b 663 1234 625 1085 663 1135 l 663 1282 l 602 1282 l 602 1227 b 549 1143 602 1171 584 1143 b 431 1202 520 1143 481 1162 b 292 1265 378 1244 332 1265 b 166 1116 208 1265 166 1216 z "},"Ű":{"ha":814,"x_min":0,"x_max":0,"o":"m 404 -14 b 703 309 600 -14 703 94 l 703 963 l 642 963 l 642 309 b 407 47 642 136 562 47 b 172 309 244 47 172 136 l 172 963 l 111 963 l 111 309 b 404 -14 111 94 209 -14 z m 247 1072 l 323 1072 l 441 1241 l 359 1241 z m 464 1072 l 540 1072 l 659 1241 l 576 1241 z "},"Ū":{"ha":814,"x_min":0,"x_max":0,"o":"m 404 -14 b 703 309 600 -14 703 94 l 703 963 l 642 963 l 642 309 b 407 47 642 136 562 47 b 172 309 244 47 172 136 l 172 963 l 111 963 l 111 309 b 404 -14 111 94 209 -14 z m 144 1105 l 669 1105 l 669 1165 l 144 1165 z "},"Ų":{"ha":814,"x_min":0,"x_max":0,"o":"m 429 -288 b 492 -281 447 -288 471 -287 l 497 -228 b 446 -231 479 -230 460 -231 b 334 -141 374 -231 334 -199 b 495 -4 334 -64 392 -35 b 703 309 631 26 703 130 l 703 963 l 642 963 l 642 309 b 407 47 642 136 562 47 b 172 309 244 47 172 136 l 172 963 l 111 963 l 111 309 b 361 -12 111 110 195 3 l 361 -18 b 273 -148 305 -41 273 -88 b 429 -288 273 -237 330 -288 z "},"Ʊ":{"ha":814,"x_min":0,"x_max":0,"o":"m 87 963 l 87 903 l 237 903 l 237 897 b 68 420 138 829 68 693 b 407 -14 68 135 184 -14 b 746 420 630 -14 746 135 b 593 897 746 697 682 833 l 593 903 l 727 903 l 727 963 l 471 963 l 471 903 b 684 448 612 848 684 696 b 407 47 684 184 589 47 b 130 448 225 47 130 184 b 359 903 130 692 207 843 l 359 963 z "},"Ů":{"ha":814,"x_min":0,"x_max":0,"o":"m 404 -14 b 703 309 600 -14 703 94 l 703 963 l 642 963 l 642 309 b 407 47 642 136 562 47 b 172 309 244 47 172 136 l 172 963 l 111 963 l 111 309 b 404 -14 111 94 209 -14 z m 407 1009 b 555 1149 496 1009 555 1065 b 407 1289 555 1233 496 1289 b 259 1149 318 1289 259 1233 b 407 1009 259 1065 318 1009 z m 407 1061 b 311 1149 349 1061 311 1096 b 407 1237 311 1202 349 1237 b 503 1149 465 1237 503 1202 b 407 1061 503 1096 465 1061 z "},"Ũ":{"ha":814,"x_min":0,"x_max":0,"o":"m 404 -14 b 703 309 600 -14 703 94 l 703 963 l 642 963 l 642 309 b 407 47 642 136 562 47 b 172 309 244 47 172 136 l 172 963 l 111 963 l 111 309 b 404 -14 111 94 209 -14 z m 166 1062 l 227 1062 l 227 1123 b 292 1208 227 1180 248 1208 b 404 1152 319 1208 355 1189 b 550 1085 459 1107 507 1085 b 663 1234 625 1085 663 1135 l 663 1282 l 602 1282 l 602 1227 b 549 1143 602 1171 584 1143 b 431 1202 520 1143 481 1162 b 292 1265 378 1244 332 1265 b 166 1116 208 1265 166 1216 z "},"V":{"ha":814,"x_min":0,"x_max":0,"o":"m 363 0 l 450 0 l 767 963 l 705 963 l 410 52 l 404 52 l 109 963 l 47 963 z "},"Ɣ":{"ha":814,"x_min":0,"x_max":0,"o":"m 407 -313 b 586 -160 515 -313 586 -252 b 458 23 586 -96 551 -44 l 767 963 l 705 963 l 410 52 l 404 52 l 109 963 l 47 963 l 356 23 b 228 -160 262 -45 228 -96 b 407 -313 228 -252 299 -313 z m 286 -160 b 407 -2 286 -113 319 -68 b 528 -160 494 -68 528 -113 b 407 -258 528 -219 479 -258 b 286 -160 334 -258 286 -219 z "},"Ʋ":{"ha":814,"x_min":0,"x_max":0,"o":"m 458 963 l 458 902 l 552 902 b 642 793 612 902 642 866 l 642 309 b 407 47 642 136 562 47 b 172 309 244 47 172 136 l 172 963 l 111 963 l 111 309 b 404 -14 111 94 209 -14 b 703 309 600 -14 703 94 l 703 793 b 563 963 703 907 656 963 z "},"Ʌ":{"ha":814,"x_min":0,"x_max":0,"o":"m 47 0 l 109 0 l 404 911 l 410 911 l 705 0 l 767 0 l 450 963 l 363 963 z "},"W":{"ha":814,"x_min":0,"x_max":0,"o":"m 179 0 l 284 0 l 403 671 l 411 671 l 530 0 l 635 0 l 784 963 l 726 963 l 590 54 l 576 54 l 458 719 l 357 719 l 237 54 l 224 54 l 88 963 l 30 963 z "},"Ẃ":{"ha":814,"x_min":0,"x_max":0,"o":"m 179 0 l 284 0 l 403 671 l 411 671 l 530 0 l 635 0 l 784 963 l 726 963 l 590 54 l 576 54 l 458 719 l 357 719 l 237 54 l 224 54 l 88 963 l 30 963 z m 369 1072 l 445 1072 l 604 1241 l 522 1241 z "},"Ŵ":{"ha":814,"x_min":0,"x_max":0,"o":"m 179 0 l 284 0 l 403 671 l 411 671 l 530 0 l 635 0 l 784 963 l 726 963 l 590 54 l 576 54 l 458 719 l 357 719 l 237 54 l 224 54 l 88 963 l 30 963 z m 186 1072 l 272 1072 l 407 1196 l 542 1072 l 628 1072 l 435 1248 l 379 1248 z "},"Ẅ":{"ha":814,"x_min":0,"x_max":0,"o":"m 179 0 l 284 0 l 403 671 l 411 671 l 530 0 l 635 0 l 784 963 l 726 963 l 590 54 l 576 54 l 458 719 l 357 719 l 237 54 l 224 54 l 88 963 l 30 963 z m 266 1095 b 334 1162 303 1095 334 1124 b 266 1230 334 1199 303 1230 b 198 1162 229 1230 198 1199 b 266 1095 198 1124 229 1095 z m 548 1095 b 616 1162 585 1095 616 1124 b 548 1230 616 1199 585 1230 b 480 1162 511 1230 480 1199 b 548 1095 480 1124 511 1095 z "},"Ẁ":{"ha":814,"x_min":0,"x_max":0,"o":"m 179 0 l 284 0 l 403 671 l 411 671 l 530 0 l 635 0 l 784 963 l 726 963 l 590 54 l 576 54 l 458 719 l 357 719 l 237 54 l 224 54 l 88 963 l 30 963 z m 370 1072 l 446 1072 l 293 1241 l 210 1241 z "},"X":{"ha":814,"x_min":0,"x_max":0,"o":"m 686 0 l 753 0 l 437 475 l 753 963 l 686 963 l 407 524 l 128 963 l 60 963 l 376 475 l 60 0 l 128 0 l 407 429 z "},"Y":{"ha":814,"x_min":0,"x_max":0,"o":"m 376 0 l 437 0 l 437 346 l 781 963 l 713 963 l 410 410 l 404 410 l 100 963 l 33 963 l 376 346 z "},"Ý":{"ha":814,"x_min":0,"x_max":0,"o":"m 376 0 l 437 0 l 437 346 l 781 963 l 713 963 l 410 410 l 404 410 l 100 963 l 33 963 l 376 346 z m 369 1072 l 445 1072 l 604 1241 l 522 1241 z "},"Ŷ":{"ha":814,"x_min":0,"x_max":0,"o":"m 376 0 l 437 0 l 437 346 l 781 963 l 713 963 l 410 410 l 404 410 l 100 963 l 33 963 l 376 346 z m 186 1072 l 272 1072 l 407 1196 l 542 1072 l 628 1072 l 435 1248 l 379 1248 z "},"Ÿ":{"ha":814,"x_min":0,"x_max":0,"o":"m 376 0 l 437 0 l 437 346 l 781 963 l 713 963 l 410 410 l 404 410 l 100 963 l 33 963 l 376 346 z m 266 1095 b 334 1162 303 1095 334 1124 b 266 1230 334 1199 303 1230 b 198 1162 229 1230 198 1199 b 266 1095 198 1124 229 1095 z m 548 1095 b 616 1162 585 1095 616 1124 b 548 1230 616 1199 585 1230 b 480 1162 511 1230 480 1199 b 548 1095 480 1124 511 1095 z "},"Ỵ":{"ha":814,"x_min":0,"x_max":0,"o":"m 376 0 l 437 0 l 437 346 l 781 963 l 713 963 l 410 410 l 404 410 l 100 963 l 33 963 l 376 346 z m 407 -262 b 475 -195 444 -262 475 -232 b 407 -127 475 -157 444 -127 b 339 -195 370 -127 339 -157 b 407 -262 339 -232 370 -262 z "},"Ỳ":{"ha":814,"x_min":0,"x_max":0,"o":"m 376 0 l 437 0 l 437 346 l 781 963 l 713 963 l 410 410 l 404 410 l 100 963 l 33 963 l 376 346 z m 370 1072 l 446 1072 l 293 1241 l 210 1241 z "},"Ỷ":{"ha":814,"x_min":0,"x_max":0,"o":"m 376 0 l 437 0 l 437 346 l 781 963 l 713 963 l 410 410 l 404 410 l 100 963 l 33 963 l 376 346 z m 380 1037 l 446 1037 b 465 1067 446 1050 454 1061 b 553 1187 534 1109 553 1144 b 419 1291 553 1257 509 1291 b 255 1240 348 1291 288 1273 l 281 1194 b 405 1233 313 1219 358 1233 b 488 1181 460 1233 488 1215 b 429 1111 488 1156 470 1136 b 380 1051 399 1093 380 1078 z "},"Ȳ":{"ha":814,"x_min":0,"x_max":0,"o":"m 376 0 l 437 0 l 437 346 l 781 963 l 713 963 l 410 410 l 404 410 l 100 963 l 33 963 l 376 346 z m 144 1105 l 669 1105 l 669 1165 l 144 1165 z "},"Ỹ":{"ha":814,"x_min":0,"x_max":0,"o":"m 376 0 l 437 0 l 437 346 l 781 963 l 713 963 l 410 410 l 404 410 l 100 963 l 33 963 l 376 346 z m 166 1062 l 227 1062 l 227 1123 b 292 1208 227 1180 248 1208 b 404 1152 319 1208 355 1189 b 550 1085 459 1107 507 1085 b 663 1234 625 1085 663 1135 l 663 1282 l 602 1282 l 602 1227 b 549 1143 602 1171 584 1143 b 431 1202 520 1143 481 1162 b 292 1265 378 1244 332 1265 b 166 1116 208 1265 166 1216 z "},"Z":{"ha":814,"x_min":0,"x_max":0,"o":"m 118 0 l 709 0 l 709 60 l 188 60 l 696 903 l 696 963 l 118 963 l 118 903 l 626 903 l 118 60 z "},"Ź":{"ha":814,"x_min":0,"x_max":0,"o":"m 118 0 l 709 0 l 709 60 l 188 60 l 696 903 l 696 963 l 118 963 l 118 903 l 626 903 l 118 60 z m 369 1072 l 445 1072 l 604 1241 l 522 1241 z "},"Ž":{"ha":814,"x_min":0,"x_max":0,"o":"m 118 0 l 709 0 l 709 60 l 188 60 l 696 903 l 696 963 l 118 963 l 118 903 l 626 903 l 118 60 z m 379 1072 l 435 1072 l 628 1248 l 542 1248 l 407 1123 l 272 1248 l 186 1248 z "},"Ż":{"ha":814,"x_min":0,"x_max":0,"o":"m 118 0 l 709 0 l 709 60 l 188 60 l 696 903 l 696 963 l 118 963 l 118 903 l 626 903 l 118 60 z m 407 1095 b 475 1162 444 1095 475 1125 b 407 1230 475 1200 444 1230 b 339 1162 370 1230 339 1200 b 407 1095 339 1125 370 1095 z "},"ᴀ":{"ha":814,"x_min":0,"x_max":0,"o":"m 45 0 l 114 0 l 199 199 l 615 199 l 700 0 l 768 0 l 455 732 l 359 732 z m 223 256 l 404 681 l 410 681 l 591 256 z "},"ɢ":{"ha":814,"x_min":0,"x_max":0,"o":"m 456 -10 b 732 20 586 -10 690 12 l 732 346 l 441 346 l 441 285 l 668 285 l 668 73 b 473 52 621 64 555 52 b 132 372 256 52 132 167 b 459 680 132 568 251 680 b 709 604 559 680 650 652 l 754 660 b 451 742 696 712 587 742 b 67 367 208 742 67 606 b 456 -10 67 125 208 -10 z "},"ɪ":{"ha":814,"x_min":0,"x_max":0,"o":"m 130 0 l 684 0 l 684 61 l 439 61 l 439 658 l 684 658 l 684 719 l 130 719 l 130 658 l 375 658 l 375 61 l 130 61 z "},"ʟ":{"ha":814,"x_min":0,"x_max":0,"o":"m 124 0 l 731 0 l 731 61 l 188 61 l 188 732 l 124 732 z "},"a":{"ha":814,"x_min":0,"x_max":0,"o":"m 597 -7 l 769 0 l 769 43 l 645 52 l 645 405 b 312 724 645 625 545 720 l 183 726 l 170 663 l 312 661 b 581 414 500 659 581 586 l 581 385 b 392 397 530 393 463 397 b 81 172 184 397 81 323 b 304 -14 81 54 162 -14 b 585 152 450 -14 564 57 l 590 152 z m 581 329 l 581 252 b 304 49 581 136 462 49 b 146 177 204 49 146 95 b 389 338 146 285 227 338 b 581 329 451 338 524 338 z "},"á":{"ha":814,"x_min":0,"x_max":0,"o":"m 597 -7 l 769 0 l 769 43 l 645 52 l 645 405 b 312 724 645 625 545 720 l 183 726 l 170 663 l 312 661 b 581 414 500 659 581 586 l 581 385 b 392 397 530 393 463 397 b 81 172 184 397 81 323 b 304 -14 81 54 162 -14 b 585 152 450 -14 564 57 l 590 152 z m 581 329 l 581 252 b 304 49 581 136 462 49 b 146 177 204 49 146 95 b 389 338 146 285 227 338 b 581 329 451 338 524 338 z m 355 846 l 424 846 l 593 1104 l 518 1104 z "},"ă":{"ha":814,"x_min":0,"x_max":0,"o":"m 597 -7 l 769 0 l 769 43 l 645 52 l 645 405 b 312 724 645 625 545 720 l 183 726 l 170 663 l 312 661 b 581 414 500 659 581 586 l 581 385 b 392 397 530 393 463 397 b 81 172 184 397 81 323 b 304 -14 81 54 162 -14 b 585 152 450 -14 564 57 l 590 152 z m 581 329 l 581 252 b 304 49 581 136 462 49 b 146 177 204 49 146 95 b 389 338 146 285 227 338 b 581 329 451 338 524 338 z m 393 840 b 620 1058 537 840 620 919 l 620 1087 l 559 1087 l 559 1058 b 393 897 559 955 500 897 b 228 1058 287 897 228 955 l 228 1087 l 167 1087 l 167 1058 b 393 840 167 919 250 840 z "},"ắ":{"ha":814,"x_min":0,"x_max":0,"o":"m 597 -7 l 769 0 l 769 43 l 645 52 l 645 405 b 312 724 645 625 545 720 l 183 726 l 170 663 l 312 661 b 581 414 500 659 581 586 l 581 385 b 392 397 530 393 463 397 b 81 172 184 397 81 323 b 304 -14 81 54 162 -14 b 585 152 450 -14 564 57 l 590 152 z m 581 329 l 581 252 b 304 49 581 136 462 49 b 146 177 204 49 146 95 b 389 338 146 285 227 338 b 581 329 451 338 524 338 z m 393 840 b 620 1058 537 840 620 919 l 620 1087 l 559 1087 l 559 1058 b 393 897 559 955 500 897 b 228 1058 287 897 228 955 l 228 1087 l 167 1087 l 167 1058 b 393 840 167 919 250 840 z m 355 1172 l 424 1172 l 593 1430 l 518 1430 z "},"ặ":{"ha":814,"x_min":0,"x_max":0,"o":"m 597 -7 l 769 0 l 769 43 l 645 52 l 645 405 b 312 724 645 625 545 720 l 183 726 l 170 663 l 312 661 b 581 414 500 659 581 586 l 581 385 b 392 397 530 393 463 397 b 81 172 184 397 81 323 b 304 -14 81 54 162 -14 b 585 152 450 -14 564 57 l 590 152 z m 581 329 l 581 252 b 304 49 581 136 462 49 b 146 177 204 49 146 95 b 389 338 146 285 227 338 b 581 329 451 338 524 338 z m 393 840 b 620 1058 537 840 620 919 l 620 1087 l 559 1087 l 559 1058 b 393 897 559 955 500 897 b 228 1058 287 897 228 955 l 228 1087 l 167 1087 l 167 1058 b 393 840 167 919 250 840 z m 407 -262 b 475 -195 444 -262 475 -232 b 407 -127 475 -157 444 -127 b 339 -195 370 -127 339 -157 b 407 -262 339 -232 370 -262 z "},"ằ":{"ha":814,"x_min":0,"x_max":0,"o":"m 597 -7 l 769 0 l 769 43 l 645 52 l 645 405 b 312 724 645 625 545 720 l 183 726 l 170 663 l 312 661 b 581 414 500 659 581 586 l 581 385 b 392 397 530 393 463 397 b 81 172 184 397 81 323 b 304 -14 81 54 162 -14 b 585 152 450 -14 564 57 l 590 152 z m 581 329 l 581 252 b 304 49 581 136 462 49 b 146 177 204 49 146 95 b 389 338 146 285 227 338 b 581 329 451 338 524 338 z m 393 840 b 620 1058 537 840 620 919 l 620 1087 l 559 1087 l 559 1058 b 393 897 559 955 500 897 b 228 1058 287 897 228 955 l 228 1087 l 167 1087 l 167 1058 b 393 840 167 919 250 840 z m 377 1172 l 446 1172 l 283 1430 l 208 1430 z "},"ẳ":{"ha":814,"x_min":0,"x_max":0,"o":"m 597 -7 l 769 0 l 769 43 l 645 52 l 645 405 b 312 724 645 625 545 720 l 183 726 l 170 663 l 312 661 b 581 414 500 659 581 586 l 581 385 b 392 397 530 393 463 397 b 81 172 184 397 81 323 b 304 -14 81 54 162 -14 b 585 152 450 -14 564 57 l 590 152 z m 581 329 l 581 252 b 304 49 581 136 462 49 b 146 177 204 49 146 95 b 389 338 146 285 227 338 b 581 329 451 338 524 338 z m 393 840 b 620 1058 537 840 620 919 l 620 1087 l 559 1087 l 559 1058 b 393 897 559 955 500 897 b 228 1058 287 897 228 955 l 228 1087 l 167 1087 l 167 1058 b 393 840 167 919 250 840 z m 361 1172 l 426 1172 l 426 1178 b 519 1369 426 1260 519 1269 b 392 1473 519 1438 477 1473 b 254 1426 336 1473 285 1455 l 285 1375 b 385 1411 311 1396 349 1411 b 454 1360 431 1411 454 1394 b 361 1183 454 1301 361 1275 z "},"ẵ":{"ha":814,"x_min":0,"x_max":0,"o":"m 597 -7 l 769 0 l 769 43 l 645 52 l 645 405 b 312 724 645 625 545 720 l 183 726 l 170 663 l 312 661 b 581 414 500 659 581 586 l 581 385 b 392 397 530 393 463 397 b 81 172 184 397 81 323 b 304 -14 81 54 162 -14 b 585 152 450 -14 564 57 l 590 152 z m 581 329 l 581 252 b 304 49 581 136 462 49 b 146 177 204 49 146 95 b 389 338 146 285 227 338 b 581 329 451 338 524 338 z m 167 1177 l 228 1177 l 228 1211 b 298 1309 228 1277 252 1309 b 391 1255 328 1309 359 1277 b 518 1194 439 1221 481 1194 b 629 1356 593 1194 629 1248 l 629 1411 l 570 1411 l 570 1350 b 519 1259 570 1289 553 1259 b 410 1317 496 1259 460 1278 b 293 1374 371 1348 335 1374 b 167 1204 209 1374 167 1318 z m 393 840 b 620 1058 537 840 620 919 l 620 1087 l 559 1087 l 559 1058 b 393 897 559 955 500 897 b 228 1058 287 897 228 955 l 228 1087 l 167 1087 l 167 1058 b 393 840 167 919 250 840 z "},"ǎ":{"ha":814,"x_min":0,"x_max":0,"o":"m 597 -7 l 769 0 l 769 43 l 645 52 l 645 405 b 312 724 645 625 545 720 l 183 726 l 170 663 l 312 661 b 581 414 500 659 581 586 l 581 385 b 392 397 530 393 463 397 b 81 172 184 397 81 323 b 304 -14 81 54 162 -14 b 585 152 450 -14 564 57 l 590 152 z m 581 329 l 581 252 b 304 49 581 136 462 49 b 146 177 204 49 146 95 b 389 338 146 285 227 338 b 581 329 451 338 524 338 z m 372 821 l 414 821 l 614 1078 l 532 1078 l 393 890 l 255 1078 l 172 1078 z "},"â":{"ha":814,"x_min":0,"x_max":0,"o":"m 597 -7 l 769 0 l 769 43 l 645 52 l 645 405 b 312 724 645 625 545 720 l 183 726 l 170 663 l 312 661 b 581 414 500 659 581 586 l 581 385 b 392 397 530 393 463 397 b 81 172 184 397 81 323 b 304 -14 81 54 162 -14 b 585 152 450 -14 564 57 l 590 152 z m 581 329 l 581 252 b 304 49 581 136 462 49 b 146 177 204 49 146 95 b 389 338 146 285 227 338 b 581 329 451 338 524 338 z m 172 846 l 255 846 l 393 1034 l 532 846 l 614 846 l 414 1104 l 372 1104 z "},"ấ":{"ha":814,"x_min":0,"x_max":0,"o":"m 597 -7 l 769 0 l 769 43 l 645 52 l 645 405 b 312 724 645 625 545 720 l 183 726 l 170 663 l 312 661 b 581 414 500 659 581 586 l 581 385 b 392 397 530 393 463 397 b 81 172 184 397 81 323 b 304 -14 81 54 162 -14 b 585 152 450 -14 564 57 l 590 152 z m 581 329 l 581 252 b 304 49 581 136 462 49 b 146 177 204 49 146 95 b 389 338 146 285 227 338 b 581 329 451 338 524 338 z m 172 846 l 255 846 l 393 1034 l 532 846 l 614 846 l 414 1104 l 372 1104 z m 597 1077 l 666 1077 l 836 1335 l 760 1335 z "},"ậ":{"ha":814,"x_min":0,"x_max":0,"o":"m 597 -7 l 769 0 l 769 43 l 645 52 l 645 405 b 312 724 645 625 545 720 l 183 726 l 170 663 l 312 661 b 581 414 500 659 581 586 l 581 385 b 392 397 530 393 463 397 b 81 172 184 397 81 323 b 304 -14 81 54 162 -14 b 585 152 450 -14 564 57 l 590 152 z m 581 329 l 581 252 b 304 49 581 136 462 49 b 146 177 204 49 146 95 b 389 338 146 285 227 338 b 581 329 451 338 524 338 z m 172 846 l 255 846 l 393 1034 l 532 846 l 614 846 l 414 1104 l 372 1104 z m 407 -262 b 475 -195 444 -262 475 -232 b 407 -127 475 -157 444 -127 b 339 -195 370 -127 339 -157 b 407 -262 339 -232 370 -262 z "},"ầ":{"ha":814,"x_min":0,"x_max":0,"o":"m 597 -7 l 769 0 l 769 43 l 645 52 l 645 405 b 312 724 645 625 545 720 l 183 726 l 170 663 l 312 661 b 581 414 500 659 581 586 l 581 385 b 392 397 530 393 463 397 b 81 172 184 397 81 323 b 304 -14 81 54 162 -14 b 585 152 450 -14 564 57 l 590 152 z m 581 329 l 581 252 b 304 49 581 136 462 49 b 146 177 204 49 146 95 b 389 338 146 285 227 338 b 581 329 451 338 524 338 z m 172 846 l 255 846 l 393 1034 l 532 846 l 614 846 l 414 1104 l 372 1104 z m 619 1077 l 688 1077 l 525 1335 l 450 1335 z "},"ẩ":{"ha":814,"x_min":0,"x_max":0,"o":"m 597 -7 l 769 0 l 769 43 l 645 52 l 645 405 b 312 724 645 625 545 720 l 183 726 l 170 663 l 312 661 b 581 414 500 659 581 586 l 581 385 b 392 397 530 393 463 397 b 81 172 184 397 81 323 b 304 -14 81 54 162 -14 b 585 152 450 -14 564 57 l 590 152 z m 581 329 l 581 252 b 304 49 581 136 462 49 b 146 177 204 49 146 95 b 389 338 146 285 227 338 b 581 329 451 338 524 338 z m 172 846 l 255 846 l 393 1034 l 532 846 l 614 846 l 414 1104 l 372 1104 z m 603 1077 l 668 1077 l 668 1083 b 762 1274 668 1165 762 1174 b 634 1378 762 1343 720 1378 b 496 1331 578 1378 527 1360 l 527 1280 b 627 1316 553 1301 591 1316 b 696 1265 673 1316 696 1299 b 603 1088 696 1206 603 1180 z "},"ẫ":{"ha":814,"x_min":0,"x_max":0,"o":"m 597 -7 l 769 0 l 769 43 l 645 52 l 645 405 b 312 724 645 625 545 720 l 183 726 l 170 663 l 312 661 b 581 414 500 659 581 586 l 581 385 b 392 397 530 393 463 397 b 81 172 184 397 81 323 b 304 -14 81 54 162 -14 b 585 152 450 -14 564 57 l 590 152 z m 581 329 l 581 252 b 304 49 581 136 462 49 b 146 177 204 49 146 95 b 389 338 146 285 227 338 b 581 329 451 338 524 338 z m 167 1204 l 228 1204 l 228 1238 b 298 1336 228 1304 252 1336 b 391 1282 328 1336 359 1304 b 518 1221 439 1248 481 1221 b 629 1383 593 1221 629 1275 l 629 1438 l 570 1438 l 570 1377 b 519 1286 570 1316 553 1286 b 410 1344 496 1286 460 1305 b 293 1401 371 1375 335 1401 b 167 1232 209 1401 167 1345 z m 172 846 l 255 846 l 393 1034 l 532 846 l 614 846 l 414 1104 l 372 1104 z "},"ä":{"ha":814,"x_min":0,"x_max":0,"o":"m 597 -7 l 769 0 l 769 43 l 645 52 l 645 405 b 312 724 645 625 545 720 l 183 726 l 170 663 l 312 661 b 581 414 500 659 581 586 l 581 385 b 392 397 530 393 463 397 b 81 172 184 397 81 323 b 304 -14 81 54 162 -14 b 585 152 450 -14 564 57 l 590 152 z m 581 329 l 581 252 b 304 49 581 136 462 49 b 146 177 204 49 146 95 b 389 338 146 285 227 338 b 581 329 451 338 524 338 z m 252 863 b 320 930 290 863 320 893 b 252 998 320 968 290 998 b 184 930 215 998 184 968 b 252 863 184 893 215 863 z m 537 863 b 605 930 574 863 605 893 b 537 998 605 968 574 998 b 469 930 500 998 469 968 b 537 863 469 893 500 863 z "},"ạ":{"ha":814,"x_min":0,"x_max":0,"o":"m 597 -7 l 769 0 l 769 43 l 645 52 l 645 405 b 312 724 645 625 545 720 l 183 726 l 170 663 l 312 661 b 581 414 500 659 581 586 l 581 385 b 392 397 530 393 463 397 b 81 172 184 397 81 323 b 304 -14 81 54 162 -14 b 585 152 450 -14 564 57 l 590 152 z m 581 329 l 581 252 b 304 49 581 136 462 49 b 146 177 204 49 146 95 b 389 338 146 285 227 338 b 581 329 451 338 524 338 z m 407 -262 b 475 -195 444 -262 475 -232 b 407 -127 475 -157 444 -127 b 339 -195 370 -127 339 -157 b 407 -262 339 -232 370 -262 z "},"à":{"ha":814,"x_min":0,"x_max":0,"o":"m 597 -7 l 769 0 l 769 43 l 645 52 l 645 405 b 312 724 645 625 545 720 l 183 726 l 170 663 l 312 661 b 581 414 500 659 581 586 l 581 385 b 392 397 530 393 463 397 b 81 172 184 397 81 323 b 304 -14 81 54 162 -14 b 585 152 450 -14 564 57 l 590 152 z m 581 329 l 581 252 b 304 49 581 136 462 49 b 146 177 204 49 146 95 b 389 338 146 285 227 338 b 581 329 451 338 524 338 z m 377 846 l 446 846 l 283 1104 l 208 1104 z "},"ả":{"ha":814,"x_min":0,"x_max":0,"o":"m 597 -7 l 769 0 l 769 43 l 645 52 l 645 405 b 312 724 645 625 545 720 l 183 726 l 170 663 l 312 661 b 581 414 500 659 581 586 l 581 385 b 392 397 530 393 463 397 b 81 172 184 397 81 323 b 304 -14 81 54 162 -14 b 585 152 450 -14 564 57 l 590 152 z m 581 329 l 581 252 b 304 49 581 136 462 49 b 146 177 204 49 146 95 b 389 338 146 285 227 338 b 581 329 451 338 524 338 z m 361 846 l 426 846 l 426 852 b 519 1044 426 935 519 943 b 392 1147 519 1113 477 1147 b 254 1101 336 1147 285 1130 l 285 1049 b 385 1085 311 1071 349 1085 b 454 1034 431 1085 454 1068 b 361 857 454 975 361 949 z "},"ɑ":{"ha":814,"x_min":0,"x_max":0,"o":"m 365 -14 b 591 137 494 -14 574 62 l 597 137 l 604 -7 l 776 0 l 776 42 l 652 52 l 652 719 l 588 719 l 588 582 l 582 582 b 366 732 561 671 490 732 b 75 353 180 732 75 594 b 365 -14 75 117 180 -14 z m 588 315 b 368 49 588 137 515 49 b 140 353 218 49 140 152 b 366 670 140 555 221 670 b 588 404 514 670 588 583 z "},"ā":{"ha":814,"x_min":0,"x_max":0,"o":"m 597 -7 l 769 0 l 769 43 l 645 52 l 645 405 b 312 724 645 625 545 720 l 183 726 l 170 663 l 312 661 b 581 414 500 659 581 586 l 581 385 b 392 397 530 393 463 397 b 81 172 184 397 81 323 b 304 -14 81 54 162 -14 b 585 152 450 -14 564 57 l 590 152 z m 581 329 l 581 252 b 304 49 581 136 462 49 b 146 177 204 49 146 95 b 389 338 146 285 227 338 b 581 329 451 338 524 338 z m 119 846 l 667 846 l 667 907 l 119 907 z "},"ą":{"ha":814,"x_min":0,"x_max":0,"o":"m 689 -288 b 753 -281 707 -288 731 -287 l 758 -228 b 707 -231 739 -230 721 -231 b 594 -141 635 -231 594 -199 b 745 -1 594 -65 649 -9 l 769 0 l 769 43 l 645 52 l 645 405 b 312 724 645 625 545 720 l 183 726 l 170 663 l 312 661 b 581 414 500 659 581 586 l 581 385 b 392 397 530 393 463 397 b 81 172 184 397 81 323 b 304 -14 81 54 162 -14 b 585 152 450 -14 564 57 l 590 152 l 597 -7 l 616 -6 l 616 -10 b 533 -148 564 -42 533 -92 b 689 -288 533 -237 590 -288 z m 581 329 l 581 252 b 304 49 581 136 462 49 b 146 177 204 49 146 95 b 389 338 146 285 227 338 b 581 329 451 338 524 338 z "},"å":{"ha":814,"x_min":0,"x_max":0,"o":"m 597 -7 l 769 0 l 769 43 l 645 52 l 645 405 b 312 724 645 625 545 720 l 183 726 l 170 663 l 312 661 b 581 414 500 659 581 586 l 581 385 b 392 397 530 393 463 397 b 81 172 184 397 81 323 b 304 -14 81 54 162 -14 b 585 152 450 -14 564 57 l 590 152 z m 581 329 l 581 252 b 304 49 581 136 462 49 b 146 177 204 49 146 95 b 389 338 146 285 227 338 b 581 329 451 338 524 338 z m 393 812 b 538 959 486 812 538 866 b 393 1105 538 1052 486 1105 b 248 959 301 1105 248 1052 b 393 812 248 866 301 812 z m 393 869 b 309 959 339 869 309 902 b 393 1048 309 1016 339 1048 b 477 959 448 1048 477 1016 b 393 869 477 902 448 869 z "},"ǻ":{"ha":814,"x_min":0,"x_max":0,"o":"m 597 -7 l 769 0 l 769 43 l 645 52 l 645 405 b 312 724 645 625 545 720 l 183 726 l 170 663 l 312 661 b 581 414 500 659 581 586 l 581 385 b 392 397 530 393 463 397 b 81 172 184 397 81 323 b 304 -14 81 54 162 -14 b 585 152 450 -14 564 57 l 590 152 z m 581 329 l 581 252 b 304 49 581 136 462 49 b 146 177 204 49 146 95 b 389 338 146 285 227 338 b 581 329 451 338 524 338 z m 393 812 b 538 959 486 812 538 866 b 416 1104 538 1044 494 1096 l 553 1311 l 477 1311 l 344 1099 b 248 959 282 1083 248 1034 b 393 812 248 866 301 812 z m 393 869 b 309 959 339 869 309 902 b 393 1048 309 1016 339 1048 b 477 959 448 1048 477 1016 b 393 869 477 902 448 869 z "},"ã":{"ha":814,"x_min":0,"x_max":0,"o":"m 597 -7 l 769 0 l 769 43 l 645 52 l 645 405 b 312 724 645 625 545 720 l 183 726 l 170 663 l 312 661 b 581 414 500 659 581 586 l 581 385 b 392 397 530 393 463 397 b 81 172 184 397 81 323 b 304 -14 81 54 162 -14 b 585 152 450 -14 564 57 l 590 152 z m 581 329 l 581 252 b 304 49 581 136 462 49 b 146 177 204 49 146 95 b 389 338 146 285 227 338 b 581 329 451 338 524 338 z m 167 852 l 228 852 l 228 886 b 298 983 228 951 252 983 b 391 929 328 983 359 951 b 518 868 439 895 481 868 b 629 1031 593 868 629 922 l 629 1085 l 570 1085 l 570 1024 b 519 933 570 963 553 933 b 410 991 496 933 460 953 b 293 1048 371 1022 335 1048 b 167 879 209 1048 167 992 z "},"æ":{"ha":814,"x_min":0,"x_max":0,"o":"m 215 -14 b 404 186 317 -14 387 59 l 408 186 b 640 -14 444 55 524 -14 b 738 3 675 -14 711 -7 l 728 66 b 656 49 705 55 677 49 b 433 317 526 49 446 146 l 769 317 b 773 377 772 335 773 357 b 587 732 773 614 711 732 b 401 528 493 732 428 660 b 159 724 372 649 288 718 l 111 726 l 98 663 l 145 661 b 366 452 286 655 366 580 l 366 399 b 254 408 334 405 295 408 b 23 184 100 408 23 333 b 215 -14 23 58 93 -14 z m 366 252 b 215 49 366 130 306 49 b 88 184 135 49 88 97 b 251 345 88 292 142 345 b 366 339 288 345 330 345 z m 431 378 b 588 670 433 564 491 670 b 708 378 668 670 708 573 z "},"ǽ":{"ha":814,"x_min":0,"x_max":0,"o":"m 215 -14 b 404 186 317 -14 387 59 l 408 186 b 640 -14 444 55 524 -14 b 738 3 675 -14 711 -7 l 728 66 b 656 49 705 55 677 49 b 433 317 526 49 446 146 l 769 317 b 773 377 772 335 773 357 b 587 732 773 614 711 732 b 401 528 493 732 428 660 b 159 724 372 649 288 718 l 111 726 l 98 663 l 145 661 b 366 452 286 655 366 580 l 366 399 b 254 408 334 405 295 408 b 23 184 100 408 23 333 b 215 -14 23 58 93 -14 z m 366 252 b 215 49 366 130 306 49 b 88 184 135 49 88 97 b 251 345 88 292 142 345 b 366 339 288 345 330 345 z m 431 378 b 588 670 433 564 491 670 b 708 378 668 670 708 573 z m 369 846 l 437 846 l 607 1104 l 532 1104 z "},"b":{"ha":814,"x_min":0,"x_max":0,"o":"m 269 -14 b 729 407 562 -14 729 140 b 444 732 729 614 625 732 b 195 589 310 732 227 685 l 188 589 l 188 1017 l 127 1017 l 127 0 b 269 -14 176 -8 221 -14 z m 188 404 b 437 670 188 583 271 670 b 664 407 583 670 664 575 b 298 49 664 179 531 49 b 188 56 261 49 222 52 z "},"c":{"ha":814,"x_min":0,"x_max":0,"o":"m 476 -14 b 704 10 551 -14 630 -9 l 696 72 b 479 49 626 58 553 49 b 174 368 278 49 174 158 b 452 670 174 561 276 670 b 671 547 543 670 623 639 l 728 583 b 457 732 688 678 589 732 b 109 361 233 732 109 595 b 476 -14 109 115 235 -14 z "},"ć":{"ha":814,"x_min":0,"x_max":0,"o":"m 476 -14 b 704 10 551 -14 630 -9 l 696 72 b 479 49 626 58 553 49 b 174 368 278 49 174 158 b 452 670 174 561 276 670 b 671 547 543 670 623 639 l 728 583 b 457 732 688 678 589 732 b 109 361 233 732 109 595 b 476 -14 109 115 235 -14 z m 403 846 l 471 846 l 641 1104 l 566 1104 z "},"č":{"ha":814,"x_min":0,"x_max":0,"o":"m 476 -14 b 704 10 551 -14 630 -9 l 696 72 b 479 49 626 58 553 49 b 174 368 278 49 174 158 b 452 670 174 561 276 670 b 671 547 543 670 623 639 l 728 583 b 457 732 688 678 589 732 b 109 361 233 732 109 595 b 476 -14 109 115 235 -14 z m 420 821 l 462 821 l 662 1078 l 579 1078 l 441 890 l 302 1078 l 220 1078 z "},"ç":{"ha":814,"x_min":0,"x_max":0,"o":"m 476 -14 b 704 10 551 -14 630 -9 l 696 72 b 479 49 626 58 553 49 b 174 368 278 49 174 158 b 452 670 174 561 276 670 b 671 547 543 670 623 639 l 728 583 b 457 732 688 678 589 732 b 109 361 233 732 109 595 b 407 -9 109 140 210 14 l 366 -115 b 516 -188 472 -115 516 -136 b 345 -271 516 -246 465 -271 l 345 -326 b 574 -188 506 -326 574 -284 b 444 -75 574 -122 536 -81 l 465 -14 b 476 -14 468 -14 472 -14 z "},"ĉ":{"ha":814,"x_min":0,"x_max":0,"o":"m 476 -14 b 704 10 551 -14 630 -9 l 696 72 b 479 49 626 58 553 49 b 174 368 278 49 174 158 b 452 670 174 561 276 670 b 671 547 543 670 623 639 l 728 583 b 457 732 688 678 589 732 b 109 361 233 732 109 595 b 476 -14 109 115 235 -14 z m 220 846 l 302 846 l 441 1034 l 579 846 l 662 846 l 462 1104 l 420 1104 z "},"ċ":{"ha":814,"x_min":0,"x_max":0,"o":"m 476 -14 b 704 10 551 -14 630 -9 l 696 72 b 479 49 626 58 553 49 b 174 368 278 49 174 158 b 452 670 174 561 276 670 b 671 547 543 670 623 639 l 728 583 b 457 732 688 678 589 732 b 109 361 233 732 109 595 b 476 -14 109 115 235 -14 z m 439 863 b 507 930 477 863 507 893 b 439 998 507 968 477 998 b 372 930 402 998 372 968 b 439 863 372 893 402 863 z "},"d":{"ha":814,"x_min":0,"x_max":0,"o":"m 368 -14 b 617 170 516 -14 594 56 l 621 170 l 634 -7 l 684 -3 l 684 1017 l 620 1017 l 620 557 l 614 557 b 372 732 592 673 509 732 b 81 353 181 732 81 602 b 368 -14 81 112 180 -14 z m 620 355 b 382 49 620 154 538 49 b 146 353 227 49 146 153 b 380 670 146 562 227 670 b 620 363 538 670 620 565 z "},"ð":{"ha":814,"x_min":0,"x_max":0,"o":"m 393 -14 b 715 309 595 -14 715 106 l 715 389 b 572 843 715 589 671 734 l 732 900 l 718 958 l 524 888 b 260 1028 456 946 368 991 l 233 975 b 460 866 325 945 400 909 l 165 761 l 180 703 l 513 822 b 649 480 602 736 644 626 l 644 480 b 387 624 613 572 517 624 b 93 298 199 624 93 505 b 393 -14 93 102 204 -14 z m 391 49 b 158 298 245 49 158 142 b 401 562 158 467 244 562 b 650 323 552 562 641 476 l 650 276 b 391 49 641 133 546 49 z "},"ď":{"ha":814,"x_min":0,"x_max":0,"o":"m 368 -14 b 617 170 516 -14 594 56 l 621 170 l 634 -7 l 684 -3 l 684 1017 l 620 1017 l 620 557 l 614 557 b 372 732 592 673 509 732 b 81 353 181 732 81 602 b 368 -14 81 112 180 -14 z m 620 355 b 382 49 620 154 538 49 b 146 353 227 49 146 153 b 380 670 146 562 227 670 b 620 363 538 670 620 565 z m 793 806 l 846 806 l 898 1063 l 836 1063 z "},"đ":{"ha":814,"x_min":0,"x_max":0,"o":"m 313 854 l 620 854 l 620 557 l 614 557 b 372 732 592 673 509 732 b 81 353 181 732 81 602 b 368 -14 81 112 180 -14 b 617 170 516 -14 594 56 l 621 170 l 634 -7 l 684 -3 l 684 854 l 772 854 l 772 916 l 684 916 l 684 1017 l 620 1017 l 620 916 l 313 916 z m 620 355 b 382 49 620 154 538 49 b 146 353 227 49 146 153 b 380 670 146 562 227 670 b 620 363 538 670 620 565 z "},"e":{"ha":814,"x_min":0,"x_max":0,"o":"m 477 -14 b 670 5 547 -14 618 -6 l 660 68 b 493 49 607 56 544 49 b 174 345 298 49 183 157 l 701 345 b 705 404 704 359 705 381 b 417 732 705 612 600 732 b 109 369 221 732 109 600 b 477 -14 109 126 243 -14 z m 175 406 b 418 670 186 574 274 670 b 640 406 559 670 640 574 z "},"é":{"ha":814,"x_min":0,"x_max":0,"o":"m 477 -14 b 670 5 547 -14 618 -6 l 660 68 b 493 49 607 56 544 49 b 174 345 298 49 183 157 l 701 345 b 705 404 704 359 705 381 b 417 732 705 612 600 732 b 109 369 221 732 109 600 b 477 -14 109 126 243 -14 z m 175 406 b 418 670 186 574 274 670 b 640 406 559 670 640 574 z m 376 846 l 444 846 l 614 1104 l 538 1104 z "},"ĕ":{"ha":814,"x_min":0,"x_max":0,"o":"m 477 -14 b 670 5 547 -14 618 -6 l 660 68 b 493 49 607 56 544 49 b 174 345 298 49 183 157 l 701 345 b 705 404 704 359 705 381 b 417 732 705 612 600 732 b 109 369 221 732 109 600 b 477 -14 109 126 243 -14 z m 175 406 b 418 670 186 574 274 670 b 640 406 559 670 640 574 z m 414 840 b 640 1058 557 840 640 919 l 640 1087 l 579 1087 l 579 1058 b 414 897 579 955 520 897 b 248 1058 307 897 248 955 l 248 1087 l 187 1087 l 187 1058 b 414 840 187 919 270 840 z "},"ě":{"ha":814,"x_min":0,"x_max":0,"o":"m 477 -14 b 670 5 547 -14 618 -6 l 660 68 b 493 49 607 56 544 49 b 174 345 298 49 183 157 l 701 345 b 705 404 704 359 705 381 b 417 732 705 612 600 732 b 109 369 221 732 109 600 b 477 -14 109 126 243 -14 z m 175 406 b 418 670 186 574 274 670 b 640 406 559 670 640 574 z m 393 821 l 435 821 l 635 1078 l 552 1078 l 414 890 l 275 1078 l 193 1078 z "},"ê":{"ha":814,"x_min":0,"x_max":0,"o":"m 477 -14 b 670 5 547 -14 618 -6 l 660 68 b 493 49 607 56 544 49 b 174 345 298 49 183 157 l 701 345 b 705 404 704 359 705 381 b 417 732 705 612 600 732 b 109 369 221 732 109 600 b 477 -14 109 126 243 -14 z m 175 406 b 418 670 186 574 274 670 b 640 406 559 670 640 574 z m 193 846 l 275 846 l 414 1034 l 552 846 l 635 846 l 435 1104 l 393 1104 z "},"ế":{"ha":814,"x_min":0,"x_max":0,"o":"m 477 -14 b 670 5 547 -14 618 -6 l 660 68 b 493 49 607 56 544 49 b 174 345 298 49 183 157 l 701 345 b 705 404 704 359 705 381 b 417 732 705 612 600 732 b 109 369 221 732 109 600 b 477 -14 109 126 243 -14 z m 175 406 b 418 670 186 574 274 670 b 640 406 559 670 640 574 z m 193 846 l 275 846 l 414 1034 l 552 846 l 635 846 l 435 1104 l 393 1104 z m 618 1077 l 686 1077 l 856 1335 l 781 1335 z "},"ệ":{"ha":814,"x_min":0,"x_max":0,"o":"m 477 -14 b 670 5 547 -14 618 -6 l 660 68 b 493 49 607 56 544 49 b 174 345 298 49 183 157 l 701 345 b 705 404 704 359 705 381 b 417 732 705 612 600 732 b 109 369 221 732 109 600 b 477 -14 109 126 243 -14 z m 175 406 b 418 670 186 574 274 670 b 640 406 559 670 640 574 z m 193 846 l 275 846 l 414 1034 l 552 846 l 635 846 l 435 1104 l 393 1104 z m 427 -262 b 495 -195 465 -262 495 -232 b 427 -127 495 -157 465 -127 b 359 -195 390 -127 359 -157 b 427 -262 359 -232 390 -262 z "},"ề":{"ha":814,"x_min":0,"x_max":0,"o":"m 477 -14 b 670 5 547 -14 618 -6 l 660 68 b 493 49 607 56 544 49 b 174 345 298 49 183 157 l 701 345 b 705 404 704 359 705 381 b 417 732 705 612 600 732 b 109 369 221 732 109 600 b 477 -14 109 126 243 -14 z m 175 406 b 418 670 186 574 274 670 b 640 406 559 670 640 574 z m 193 846 l 275 846 l 414 1034 l 552 846 l 635 846 l 435 1104 l 393 1104 z m 640 1077 l 708 1077 l 545 1335 l 470 1335 z "},"ể":{"ha":814,"x_min":0,"x_max":0,"o":"m 477 -14 b 670 5 547 -14 618 -6 l 660 68 b 493 49 607 56 544 49 b 174 345 298 49 183 157 l 701 345 b 705 404 704 359 705 381 b 417 732 705 612 600 732 b 109 369 221 732 109 600 b 477 -14 109 126 243 -14 z m 175 406 b 418 670 186 574 274 670 b 640 406 559 670 640 574 z m 193 846 l 275 846 l 414 1034 l 552 846 l 635 846 l 435 1104 l 393 1104 z m 623 1077 l 688 1077 l 688 1083 b 782 1274 688 1165 782 1174 b 654 1378 782 1343 740 1378 b 517 1331 598 1378 547 1360 l 547 1280 b 647 1316 574 1301 612 1316 b 717 1265 694 1316 717 1299 b 623 1088 717 1206 623 1180 z "},"ễ":{"ha":814,"x_min":0,"x_max":0,"o":"m 477 -14 b 670 5 547 -14 618 -6 l 660 68 b 493 49 607 56 544 49 b 174 345 298 49 183 157 l 701 345 b 705 404 704 359 705 381 b 417 732 705 612 600 732 b 109 369 221 732 109 600 b 477 -14 109 126 243 -14 z m 175 406 b 418 670 186 574 274 670 b 640 406 559 670 640 574 z m 187 1204 l 248 1204 l 248 1238 b 319 1336 248 1304 272 1336 b 411 1282 349 1336 380 1304 b 538 1221 459 1248 502 1221 b 650 1383 613 1221 650 1275 l 650 1438 l 590 1438 l 590 1377 b 540 1286 590 1316 573 1286 b 431 1344 517 1286 481 1305 b 313 1401 391 1375 355 1401 b 187 1232 229 1401 187 1345 z m 193 846 l 275 846 l 414 1034 l 552 846 l 635 846 l 435 1104 l 393 1104 z "},"ë":{"ha":814,"x_min":0,"x_max":0,"o":"m 477 -14 b 670 5 547 -14 618 -6 l 660 68 b 493 49 607 56 544 49 b 174 345 298 49 183 157 l 701 345 b 705 404 704 359 705 381 b 417 732 705 612 600 732 b 109 369 221 732 109 600 b 477 -14 109 126 243 -14 z m 175 406 b 418 670 186 574 274 670 b 640 406 559 670 640 574 z m 273 863 b 340 930 310 863 340 893 b 273 998 340 968 310 998 b 205 930 235 998 205 968 b 273 863 205 893 235 863 z m 557 863 b 625 930 595 863 625 893 b 557 998 625 968 595 998 b 490 930 520 998 490 968 b 557 863 490 893 520 863 z "},"ė":{"ha":814,"x_min":0,"x_max":0,"o":"m 477 -14 b 670 5 547 -14 618 -6 l 660 68 b 493 49 607 56 544 49 b 174 345 298 49 183 157 l 701 345 b 705 404 704 359 705 381 b 417 732 705 612 600 732 b 109 369 221 732 109 600 b 477 -14 109 126 243 -14 z m 175 406 b 418 670 186 574 274 670 b 640 406 559 670 640 574 z m 412 863 b 480 930 450 863 480 893 b 412 998 480 968 450 998 b 345 930 375 998 345 968 b 412 863 345 893 375 863 z "},"ẹ":{"ha":814,"x_min":0,"x_max":0,"o":"m 477 -14 b 670 5 547 -14 618 -6 l 660 68 b 493 49 607 56 544 49 b 174 345 298 49 183 157 l 701 345 b 705 404 704 359 705 381 b 417 732 705 612 600 732 b 109 369 221 732 109 600 b 477 -14 109 126 243 -14 z m 175 406 b 418 670 186 574 274 670 b 640 406 559 670 640 574 z m 427 -262 b 495 -195 465 -262 495 -232 b 427 -127 495 -157 465 -127 b 359 -195 390 -127 359 -157 b 427 -262 359 -232 390 -262 z "},"è":{"ha":814,"x_min":0,"x_max":0,"o":"m 477 -14 b 670 5 547 -14 618 -6 l 660 68 b 493 49 607 56 544 49 b 174 345 298 49 183 157 l 701 345 b 705 404 704 359 705 381 b 417 732 705 612 600 732 b 109 369 221 732 109 600 b 477 -14 109 126 243 -14 z m 175 406 b 418 670 186 574 274 670 b 640 406 559 670 640 574 z m 397 846 l 466 846 l 303 1104 l 228 1104 z "},"ẻ":{"ha":814,"x_min":0,"x_max":0,"o":"m 477 -14 b 670 5 547 -14 618 -6 l 660 68 b 493 49 607 56 544 49 b 174 345 298 49 183 157 l 701 345 b 705 404 704 359 705 381 b 417 732 705 612 600 732 b 109 369 221 732 109 600 b 477 -14 109 126 243 -14 z m 175 406 b 418 670 186 574 274 670 b 640 406 559 670 640 574 z m 381 846 l 446 846 l 446 852 b 540 1044 446 935 540 943 b 412 1147 540 1113 498 1147 b 275 1101 356 1147 305 1130 l 305 1049 b 405 1085 332 1071 370 1085 b 475 1034 452 1085 475 1068 b 381 857 475 975 381 949 z "},"ē":{"ha":814,"x_min":0,"x_max":0,"o":"m 477 -14 b 670 5 547 -14 618 -6 l 660 68 b 493 49 607 56 544 49 b 174 345 298 49 183 157 l 701 345 b 705 404 704 359 705 381 b 417 732 705 612 600 732 b 109 369 221 732 109 600 b 477 -14 109 126 243 -14 z m 175 406 b 418 670 186 574 274 670 b 640 406 559 670 640 574 z m 140 846 l 688 846 l 688 907 l 140 907 z "},"ę":{"ha":814,"x_min":0,"x_max":0,"o":"m 589 -288 b 652 -281 607 -288 631 -287 l 657 -228 b 606 -231 639 -230 621 -231 b 494 -141 534 -231 494 -199 b 670 5 494 -56 557 -29 l 660 68 b 493 49 607 56 544 49 b 174 345 298 49 183 157 l 701 345 b 705 404 704 359 705 381 b 417 732 705 612 600 732 b 109 369 221 732 109 600 b 477 -14 109 126 243 -14 b 508 -13 487 -14 498 -14 l 508 -23 b 433 -148 460 -45 433 -91 b 589 -288 433 -237 490 -288 z m 175 406 b 418 670 186 574 274 670 b 640 406 559 670 640 574 z "},"ɛ":{"ha":814,"x_min":0,"x_max":0,"o":"m 425 -14 b 689 19 531 -14 621 -2 l 669 83 b 430 49 610 66 542 49 b 194 183 273 49 194 94 b 528 326 194 278 305 326 l 553 326 l 562 387 b 214 537 330 397 214 448 b 450 670 214 626 293 670 b 674 634 535 670 609 659 l 696 693 b 435 732 642 720 556 732 b 149 551 244 732 149 672 b 320 370 149 460 205 401 l 320 355 b 129 176 192 335 129 275 b 425 -14 129 49 227 -14 z "},"ʃ":{"ha":814,"x_min":0,"x_max":0,"o":"m 87 -323 l 123 -317 b 404 9 319 -288 404 -210 l 404 705 b 636 968 404 882 481 968 b 758 959 672 968 708 966 l 773 1017 b 640 1031 728 1027 688 1031 b 340 699 439 1031 340 921 l 340 -12 b 136 -256 340 -172 278 -234 l 84 -264 z "},"ẽ":{"ha":814,"x_min":0,"x_max":0,"o":"m 477 -14 b 670 5 547 -14 618 -6 l 660 68 b 493 49 607 56 544 49 b 174 345 298 49 183 157 l 701 345 b 705 404 704 359 705 381 b 417 732 705 612 600 732 b 109 369 221 732 109 600 b 477 -14 109 126 243 -14 z m 175 406 b 418 670 186 574 274 670 b 640 406 559 670 640 574 z m 187 852 l 248 852 l 248 886 b 319 983 248 951 272 983 b 411 929 349 983 380 951 b 538 868 459 895 502 868 b 650 1031 613 868 650 922 l 650 1085 l 590 1085 l 590 1024 b 540 933 590 963 573 933 b 431 991 517 933 481 953 b 313 1048 391 1022 355 1048 b 187 879 229 1048 187 992 z "},"ǝ":{"ha":814,"x_min":0,"x_max":0,"o":"m 397 -14 b 705 350 593 -14 705 119 b 337 732 705 593 571 732 b 144 713 267 732 195 725 l 154 651 b 321 670 207 663 270 670 b 640 374 515 670 631 562 l 113 374 b 109 315 110 360 109 338 b 397 -14 109 107 214 -14 z m 639 313 b 395 49 628 145 540 49 b 174 313 254 49 174 145 z "},"ə":{"ha":814,"x_min":0,"x_max":0,"o":"m 397 -14 b 705 350 593 -14 705 119 b 337 732 705 593 571 732 b 144 713 267 732 195 725 l 154 651 b 321 670 207 663 270 670 b 640 374 515 670 631 562 l 113 374 b 109 315 110 360 109 338 b 397 -14 109 107 214 -14 z m 639 313 b 395 49 628 145 540 49 b 174 313 254 49 174 145 z "},"ʒ":{"ha":814,"x_min":0,"x_max":0,"o":"m 367 -312 b 703 -16 582 -312 703 -189 b 347 273 703 164 574 273 l 322 273 l 659 654 l 659 713 l 134 713 l 134 652 l 581 652 l 216 242 l 230 212 l 347 212 b 638 -16 532 212 638 130 b 374 -250 638 -159 541 -250 b 111 -147 263 -250 195 -219 l 70 -191 b 367 -312 144 -271 244 -312 z "},"f":{"ha":814,"x_min":0,"x_max":0,"o":"m 313 0 l 376 0 l 376 467 l 694 467 l 694 528 l 376 528 l 376 665 b 609 968 376 868 454 968 b 731 959 645 968 681 966 l 746 1017 b 613 1031 701 1027 661 1031 b 313 658 412 1031 313 907 l 313 528 l 62 528 l 62 467 l 313 467 z "},"g":{"ha":814,"x_min":0,"x_max":0,"o":"m 140 -324 l 334 -317 b 684 64 577 -309 684 -193 l 684 719 l 627 719 l 620 557 l 614 557 b 372 732 592 673 509 732 b 81 353 181 732 81 602 b 368 -14 81 112 180 -14 b 614 170 514 -14 591 56 l 620 170 l 620 42 b 347 -256 620 -151 536 -249 l 137 -264 z m 620 363 l 620 355 b 382 49 620 154 538 49 b 146 353 227 49 146 153 b 380 670 146 562 227 670 b 620 363 538 670 620 565 z "},"ɣ":{"ha":814,"x_min":0,"x_max":0,"o":"m 407 -313 b 586 -160 515 -313 586 -252 b 460 21 586 -96 552 -45 l 743 719 l 675 719 l 411 54 l 406 54 l 139 719 l 71 719 l 353 21 b 228 -160 262 -45 228 -96 b 407 -313 228 -252 299 -313 z m 286 -160 b 407 -2 286 -113 319 -68 b 528 -160 494 -68 528 -113 b 407 -258 528 -219 479 -258 b 286 -160 334 -258 286 -219 z "},"ğ":{"ha":814,"x_min":0,"x_max":0,"o":"m 140 -324 l 334 -317 b 684 64 577 -309 684 -193 l 684 719 l 627 719 l 620 557 l 614 557 b 372 732 592 673 509 732 b 81 353 181 732 81 602 b 368 -14 81 112 180 -14 b 614 170 514 -14 591 56 l 620 170 l 620 42 b 347 -256 620 -151 536 -249 l 137 -264 z m 620 363 l 620 355 b 382 49 620 154 538 49 b 146 353 227 49 146 153 b 380 670 146 562 227 670 b 620 363 538 670 620 565 z m 393 840 b 620 1058 537 840 620 919 l 620 1087 l 559 1087 l 559 1058 b 393 897 559 955 500 897 b 228 1058 287 897 228 955 l 228 1087 l 167 1087 l 167 1058 b 393 840 167 919 250 840 z "},"ǧ":{"ha":814,"x_min":0,"x_max":0,"o":"m 140 -324 l 334 -317 b 684 64 577 -309 684 -193 l 684 719 l 627 719 l 620 557 l 614 557 b 372 732 592 673 509 732 b 81 353 181 732 81 602 b 368 -14 81 112 180 -14 b 614 170 514 -14 591 56 l 620 170 l 620 42 b 347 -256 620 -151 536 -249 l 137 -264 z m 620 363 l 620 355 b 382 49 620 154 538 49 b 146 353 227 49 146 153 b 380 670 146 562 227 670 b 620 363 538 670 620 565 z m 372 821 l 414 821 l 614 1078 l 532 1078 l 393 890 l 255 1078 l 172 1078 z "},"ĝ":{"ha":814,"x_min":0,"x_max":0,"o":"m 140 -324 l 334 -317 b 684 64 577 -309 684 -193 l 684 719 l 627 719 l 620 557 l 614 557 b 372 732 592 673 509 732 b 81 353 181 732 81 602 b 368 -14 81 112 180 -14 b 614 170 514 -14 591 56 l 620 170 l 620 42 b 347 -256 620 -151 536 -249 l 137 -264 z m 620 363 l 620 355 b 382 49 620 154 538 49 b 146 353 227 49 146 153 b 380 670 146 562 227 670 b 620 363 538 670 620 565 z m 172 846 l 255 846 l 393 1034 l 532 846 l 614 846 l 414 1104 l 372 1104 z "},"ģ":{"ha":814,"x_min":0,"x_max":0,"o":"m 140 -324 l 334 -317 b 684 64 577 -309 684 -193 l 684 719 l 627 719 l 620 557 l 614 557 b 372 732 592 673 509 732 b 81 353 181 732 81 602 b 368 -14 81 112 180 -14 b 614 170 514 -14 591 56 l 620 170 l 620 42 b 347 -256 620 -151 536 -249 l 137 -264 z m 620 363 l 620 355 b 382 49 620 154 538 49 b 146 353 227 49 146 153 b 380 670 146 562 227 670 b 620 363 538 670 620 565 z m 361 819 l 427 819 l 457 1077 l 398 1077 z "},"ġ":{"ha":814,"x_min":0,"x_max":0,"o":"m 140 -324 l 334 -317 b 684 64 577 -309 684 -193 l 684 719 l 627 719 l 620 557 l 614 557 b 372 732 592 673 509 732 b 81 353 181 732 81 602 b 368 -14 81 112 180 -14 b 614 170 514 -14 591 56 l 620 170 l 620 42 b 347 -256 620 -151 536 -249 l 137 -264 z m 620 363 l 620 355 b 382 49 620 154 538 49 b 146 353 227 49 146 153 b 380 670 146 562 227 670 b 620 363 538 670 620 565 z m 392 863 b 460 930 429 863 460 893 b 392 998 460 968 429 998 b 324 930 355 998 324 968 b 392 863 324 893 355 863 z "},"ʔ":{"ha":814,"x_min":0,"x_max":0,"o":"m 353 0 l 417 0 l 417 229 b 516 460 417 329 446 398 b 673 768 625 557 673 645 b 384 1031 673 935 567 1031 b 102 909 277 1031 193 995 l 142 867 b 382 970 225 939 297 970 b 610 761 527 970 610 893 b 486 511 610 662 575 587 b 353 239 393 433 353 352 z "},"ʕ":{"ha":814,"x_min":0,"x_max":0,"o":"m 398 0 l 462 0 l 462 239 b 329 511 462 352 422 433 b 205 761 240 587 205 662 b 433 970 205 893 288 970 b 673 867 518 970 590 939 l 713 909 b 431 1031 622 995 538 1031 b 142 768 248 1031 142 935 b 299 460 142 645 190 557 b 398 229 369 398 398 329 z "},"ǥ":{"ha":814,"x_min":0,"x_max":0,"o":"m 30 -151 l 574 -151 b 347 -256 531 -217 457 -252 l 137 -264 l 140 -324 l 334 -317 b 645 -151 494 -311 595 -259 l 784 -151 l 784 -92 l 666 -92 b 684 64 678 -47 684 5 l 684 719 l 627 719 l 620 557 l 614 557 b 372 732 592 673 509 732 b 81 353 181 732 81 602 b 368 -14 81 112 180 -14 b 614 170 514 -14 591 56 l 620 170 l 620 42 b 602 -92 620 -9 614 -54 l 30 -92 z m 620 363 l 620 355 b 382 49 620 154 538 49 b 146 353 227 49 146 153 b 380 670 146 562 227 670 b 620 363 538 670 620 565 z "},"h":{"ha":814,"x_min":0,"x_max":0,"o":"m 620 0 l 684 0 l 684 468 b 421 732 684 636 588 732 b 199 589 299 732 226 685 l 194 589 l 194 1017 l 130 1017 l 130 0 l 194 0 l 194 407 b 427 670 194 583 273 670 b 620 471 549 670 620 598 z "},"ħ":{"ha":814,"x_min":0,"x_max":0,"o":"m 15 854 l 130 854 l 130 0 l 194 0 l 194 407 b 427 670 194 583 273 670 b 620 471 549 670 620 598 l 620 0 l 684 0 l 684 468 b 421 732 684 636 588 732 b 199 589 299 732 226 685 l 194 589 l 194 854 l 500 854 l 500 916 l 194 916 l 194 1017 l 130 1017 l 130 916 l 15 916 z "},"ȟ":{"ha":814,"x_min":0,"x_max":0,"o":"m 620 0 l 684 0 l 684 468 b 421 732 684 636 588 732 b 199 589 299 732 226 685 l 194 589 l 194 1017 l 130 1017 l 130 0 l 194 0 l 194 407 b 427 670 194 583 273 670 b 620 471 549 670 620 598 z m 134 1126 l 190 1126 l 383 1302 l 297 1302 l 162 1177 l 27 1302 l -59 1302 z "},"ĥ":{"ha":814,"x_min":0,"x_max":0,"o":"m 620 0 l 684 0 l 684 468 b 421 732 684 636 588 732 b 199 589 299 732 226 685 l 194 589 l 194 1017 l 130 1017 l 130 0 l 194 0 l 194 407 b 427 670 194 583 273 670 b 620 471 549 670 620 598 z m -59 1126 l 27 1126 l 162 1251 l 297 1126 l 383 1126 l 190 1302 l 134 1302 z "},"ḥ":{"ha":814,"x_min":0,"x_max":0,"o":"m 620 0 l 684 0 l 684 468 b 421 732 684 636 588 732 b 199 589 299 732 226 685 l 194 589 l 194 1017 l 130 1017 l 130 0 l 194 0 l 194 407 b 427 670 194 583 273 670 b 620 471 549 670 620 598 z m 407 -262 b 475 -195 444 -262 475 -232 b 407 -127 475 -157 444 -127 b 339 -195 370 -127 339 -157 b 407 -262 339 -232 370 -262 z "},"i":{"ha":814,"x_min":0,"x_max":0,"o":"m 125 0 l 731 0 l 731 61 l 486 61 l 486 719 l 165 719 l 165 658 l 422 658 l 422 61 l 125 61 z m 446 897 b 514 964 484 897 514 927 b 446 1032 514 1002 484 1032 b 378 964 409 1032 378 1002 b 446 897 378 927 409 897 z "},"ı":{"ha":814,"x_min":0,"x_max":0,"o":"m 125 0 l 731 0 l 731 61 l 486 61 l 486 719 l 165 719 l 165 658 l 422 658 l 422 61 l 125 61 z "},"í":{"ha":814,"x_min":0,"x_max":0,"o":"m 125 0 l 731 0 l 731 61 l 486 61 l 486 719 l 165 719 l 165 658 l 422 658 l 422 61 l 125 61 z m 403 846 l 471 846 l 641 1104 l 566 1104 z "},"ĭ":{"ha":814,"x_min":0,"x_max":0,"o":"m 125 0 l 731 0 l 731 61 l 486 61 l 486 719 l 165 719 l 165 658 l 422 658 l 422 61 l 125 61 z m 441 840 b 667 1058 585 840 667 919 l 667 1087 l 606 1087 l 606 1058 b 441 897 606 955 547 897 b 275 1058 334 897 275 955 l 275 1087 l 214 1087 l 214 1058 b 441 840 214 919 297 840 z "},"î":{"ha":814,"x_min":0,"x_max":0,"o":"m 125 0 l 731 0 l 731 61 l 486 61 l 486 719 l 165 719 l 165 658 l 422 658 l 422 61 l 125 61 z m 220 846 l 302 846 l 441 1034 l 579 846 l 662 846 l 462 1104 l 420 1104 z "},"ï":{"ha":814,"x_min":0,"x_max":0,"o":"m 125 0 l 731 0 l 731 61 l 486 61 l 486 719 l 165 719 l 165 658 l 422 658 l 422 61 l 125 61 z m 300 863 b 368 930 337 863 368 893 b 300 998 368 968 337 998 b 232 930 262 998 232 968 b 300 863 232 893 262 863 z m 585 863 b 652 930 622 863 652 893 b 585 998 652 968 622 998 b 517 930 547 998 517 968 b 585 863 517 893 547 863 z "},"ị":{"ha":814,"x_min":0,"x_max":0,"o":"m 125 0 l 731 0 l 731 61 l 486 61 l 486 719 l 165 719 l 165 658 l 422 658 l 422 61 l 125 61 z m 454 -262 b 522 -195 492 -262 522 -232 b 454 -127 522 -157 492 -127 b 387 -195 417 -127 387 -157 b 454 -262 387 -232 417 -262 z m 446 897 b 514 964 484 897 514 927 b 446 1032 514 1002 484 1032 b 378 964 409 1032 378 1002 b 446 897 378 927 409 897 z "},"ì":{"ha":814,"x_min":0,"x_max":0,"o":"m 125 0 l 731 0 l 731 61 l 486 61 l 486 719 l 165 719 l 165 658 l 422 658 l 422 61 l 125 61 z m 425 846 l 493 846 l 330 1104 l 255 1104 z "},"ỉ":{"ha":814,"x_min":0,"x_max":0,"o":"m 125 0 l 731 0 l 731 61 l 486 61 l 486 719 l 165 719 l 165 658 l 422 658 l 422 61 l 125 61 z m 408 846 l 473 846 l 473 852 b 567 1044 473 935 567 943 b 439 1147 567 1113 525 1147 b 302 1101 383 1147 332 1130 l 332 1049 b 432 1085 359 1071 397 1085 b 502 1034 479 1085 502 1068 b 408 857 502 975 408 949 z "},"ĳ":{"ha":814,"x_min":0,"x_max":0,"o":"m 183 -326 l 286 -317 b 637 64 532 -298 641 -193 l 635 260 l 635 719 l 571 719 l 571 237 l 571 237 l 574 42 b 300 -256 576 -154 491 -239 l 180 -267 z m 205 0 l 269 0 l 269 719 l 205 719 z m 237 897 b 305 964 275 897 305 927 b 237 1032 305 1002 275 1032 b 170 964 200 1032 170 1002 b 237 897 170 927 200 897 z m 603 897 b 671 964 640 897 671 927 b 603 1032 671 1002 640 1032 b 535 964 566 1032 535 1002 b 603 897 535 927 566 897 z "},"ī":{"ha":814,"x_min":0,"x_max":0,"o":"m 125 0 l 731 0 l 731 61 l 486 61 l 486 719 l 165 719 l 165 658 l 422 658 l 422 61 l 125 61 z m 167 846 l 715 846 l 715 907 l 167 907 z "},"į":{"ha":814,"x_min":0,"x_max":0,"o":"m 460 -288 b 524 -281 478 -288 502 -287 l 528 -228 b 477 -231 510 -230 492 -231 b 365 -141 406 -231 365 -199 b 540 0 365 -59 429 0 l 731 0 l 731 61 l 486 61 l 486 719 l 165 719 l 165 658 l 422 658 l 422 61 l 125 61 l 125 0 l 387 0 l 387 -7 b 304 -148 334 -33 304 -91 b 460 -288 304 -237 361 -288 z m 446 897 b 514 964 484 897 514 927 b 446 1032 514 1002 484 1032 b 378 964 409 1032 378 1002 b 446 897 378 927 409 897 z "},"ɩ":{"ha":814,"x_min":0,"x_max":0,"o":"m 559 -14 b 705 15 612 -14 655 -5 l 696 77 b 572 52 645 60 607 52 b 394 278 422 52 394 119 l 394 719 l 104 719 l 104 658 l 333 658 l 333 271 b 559 -14 333 72 399 -14 z "},"ĩ":{"ha":814,"x_min":0,"x_max":0,"o":"m 125 0 l 731 0 l 731 61 l 486 61 l 486 719 l 165 719 l 165 658 l 422 658 l 422 61 l 125 61 z m 214 852 l 275 852 l 275 886 b 346 983 275 951 299 983 b 438 929 376 983 407 951 b 566 868 486 895 529 868 b 677 1031 640 868 677 922 l 677 1085 l 617 1085 l 617 1024 b 567 933 617 963 600 933 b 458 991 544 933 508 953 b 340 1048 418 1022 382 1048 b 214 879 256 1048 214 992 z "},"j":{"ha":814,"x_min":0,"x_max":0,"o":"m 134 -326 l 237 -317 b 586 64 483 -298 586 -193 l 586 719 l 191 719 l 191 658 l 522 658 l 522 42 b 251 -256 522 -154 442 -239 l 132 -267 z m 541 897 b 609 964 578 897 609 927 b 541 1032 609 1002 578 1032 b 473 964 504 1032 473 1002 b 541 897 473 927 504 897 z "},"ȷ":{"ha":814,"x_min":0,"x_max":0,"o":"m 134 -326 l 237 -317 b 589 64 483 -298 592 -193 l 586 260 l 586 719 l 191 719 l 191 658 l 522 658 l 522 237 l 522 237 l 525 42 b 251 -256 528 -154 442 -239 l 132 -267 z "},"ǰ":{"ha":814,"x_min":0,"x_max":0,"o":"m 134 -326 l 237 -317 b 589 64 483 -298 592 -193 l 586 260 l 586 719 l 191 719 l 191 658 l 522 658 l 522 237 l 522 237 l 525 42 b 251 -256 528 -154 442 -239 l 132 -267 z m 533 821 l 575 821 l 775 1078 l 692 1078 l 554 890 l 416 1078 l 333 1078 z "},"ĵ":{"ha":814,"x_min":0,"x_max":0,"o":"m 134 -326 l 237 -317 b 589 64 483 -298 592 -193 l 586 260 l 586 719 l 191 719 l 191 658 l 522 658 l 522 237 l 522 237 l 525 42 b 251 -256 528 -154 442 -239 l 132 -267 z m 333 846 l 416 846 l 554 1034 l 692 846 l 775 846 l 575 1104 l 533 1104 z "},"k":{"ha":814,"x_min":0,"x_max":0,"o":"m 125 0 l 186 0 l 186 293 l 251 293 b 490 340 347 293 426 308 l 679 0 l 757 0 l 544 374 b 711 719 633 442 686 555 l 643 719 b 237 354 599 452 492 354 l 186 354 l 186 1017 l 125 1017 z "},"ķ":{"ha":814,"x_min":0,"x_max":0,"o":"m 125 0 l 186 0 l 186 293 l 251 293 b 490 340 347 293 426 308 l 679 0 l 757 0 l 544 374 b 711 719 633 442 686 555 l 643 719 b 237 354 599 452 492 354 l 186 354 l 186 1017 l 125 1017 z m 337 -326 l 399 -326 l 454 -95 l 388 -95 z "},"ḳ":{"ha":814,"x_min":0,"x_max":0,"o":"m 125 0 l 186 0 l 186 293 l 251 293 b 490 340 347 293 426 308 l 679 0 l 757 0 l 544 374 b 711 719 633 442 686 555 l 643 719 b 237 354 599 452 492 354 l 186 354 l 186 1017 l 125 1017 z m 420 -262 b 488 -195 458 -262 488 -232 b 420 -127 488 -157 458 -127 b 353 -195 383 -127 353 -157 b 420 -262 353 -232 383 -262 z "},"ĸ":{"ha":814,"x_min":0,"x_max":0,"o":"m 125 0 l 186 0 l 186 293 l 251 293 b 490 340 347 293 426 308 l 679 0 l 757 0 l 544 374 b 711 719 633 442 686 555 l 643 719 b 237 354 599 452 492 354 l 186 354 l 186 719 l 125 719 z "},"ḵ":{"ha":814,"x_min":0,"x_max":0,"o":"m 125 0 l 186 0 l 186 293 l 251 293 b 490 340 347 293 426 308 l 679 0 l 757 0 l 544 374 b 711 719 633 442 686 555 l 643 719 b 237 354 599 452 492 354 l 186 354 l 186 1017 l 125 1017 z m 146 -202 l 694 -202 l 694 -141 l 146 -141 z "},"l":{"ha":814,"x_min":0,"x_max":0,"o":"m 562 -14 b 712 8 616 -14 661 -7 l 705 68 b 568 49 648 55 607 49 b 382 237 444 49 382 111 l 382 1017 l 83 1017 l 83 956 l 318 956 l 318 237 b 562 -14 318 70 399 -14 z "},"ĺ":{"ha":814,"x_min":0,"x_max":0,"o":"m 562 -14 b 712 8 616 -14 661 -7 l 705 68 b 568 49 648 55 607 49 b 382 237 444 49 382 111 l 382 1017 l 83 1017 l 83 956 l 318 956 l 318 237 b 562 -14 318 70 399 -14 z m 312 1126 l 388 1126 l 547 1295 l 465 1295 z "},"ƛ":{"ha":814,"x_min":0,"x_max":0,"o":"m 102 669 l 366 751 l 370 739 l 62 0 l 127 0 l 356 550 b 376 688 376 599 384 631 l 383 690 l 545 136 b 724 -14 577 26 625 -14 b 780 -5 744 -14 759 -12 l 772 52 b 738 47 757 49 748 47 b 602 156 660 47 625 77 l 425 768 l 654 839 l 640 897 l 409 825 l 393 882 b 226 1017 364 981 320 1017 b 170 1009 206 1017 191 1015 l 180 953 b 212 956 193 956 201 956 b 332 868 281 956 313 932 l 349 808 l 87 727 z "},"ƚ":{"ha":814,"x_min":0,"x_max":0,"o":"m 73 460 l 318 460 l 318 237 b 562 -14 318 70 399 -14 b 712 8 616 -14 661 -7 l 705 68 b 568 49 648 55 607 49 b 382 237 444 49 382 111 l 382 460 l 627 460 l 627 519 l 382 519 l 382 1017 l 83 1017 l 83 956 l 318 956 l 318 519 l 73 519 z "},"ɬ":{"ha":814,"x_min":0,"x_max":0,"o":"m 203 446 l 318 446 l 318 237 b 562 -14 318 70 399 -14 b 712 8 616 -14 661 -7 l 705 68 b 568 49 648 55 607 49 b 382 237 444 49 382 111 l 382 446 l 627 446 l 627 507 l 382 507 l 382 1017 l 83 1017 l 83 956 l 318 956 l 318 692 l 311 692 b 190 783 300 752 264 783 b 37 612 93 783 37 721 b 203 446 37 507 98 446 z m 318 507 l 203 507 b 102 612 139 507 102 545 b 190 720 102 681 134 720 b 318 570 257 720 311 674 z "},"ľ":{"ha":814,"x_min":0,"x_max":0,"o":"m 562 -14 b 712 8 616 -14 661 -7 l 705 68 b 568 49 648 55 607 49 b 382 237 444 49 382 111 l 382 1017 l 83 1017 l 83 956 l 318 956 l 318 237 b 562 -14 318 70 399 -14 z m 551 806 l 620 806 l 688 1063 l 618 1063 z "},"ļ":{"ha":814,"x_min":0,"x_max":0,"o":"m 562 -14 b 712 8 616 -14 661 -7 l 705 68 b 568 49 648 55 607 49 b 382 237 444 49 382 111 l 382 1017 l 83 1017 l 83 956 l 318 956 l 318 237 b 562 -14 318 70 399 -14 z m 378 -326 l 440 -326 l 494 -95 l 429 -95 z "},"ŀ":{"ha":814,"x_min":0,"x_max":0,"o":"m 562 -14 b 712 8 616 -14 661 -7 l 705 68 b 568 49 648 55 607 49 b 382 237 444 49 382 111 l 382 1017 l 83 1017 l 83 956 l 318 956 l 318 237 b 562 -14 318 70 399 -14 z m 621 585 b 689 652 659 585 689 614 b 621 720 689 689 659 720 b 553 652 584 720 553 689 b 621 585 553 614 584 585 z "},"ḷ":{"ha":814,"x_min":0,"x_max":0,"o":"m 562 -14 b 712 8 616 -14 661 -7 l 705 68 b 568 49 648 55 607 49 b 382 237 444 49 382 111 l 382 1017 l 83 1017 l 83 956 l 318 956 l 318 237 b 562 -14 318 70 399 -14 z m 461 -262 b 529 -195 498 -262 529 -232 b 461 -127 529 -157 498 -127 b 393 -195 424 -127 393 -157 b 461 -262 393 -232 424 -262 z "},"ḻ":{"ha":814,"x_min":0,"x_max":0,"o":"m 562 -14 b 712 8 616 -14 661 -7 l 705 68 b 568 49 648 55 607 49 b 382 237 444 49 382 111 l 382 1017 l 83 1017 l 83 956 l 318 956 l 318 237 b 562 -14 318 70 399 -14 z m 187 -202 l 735 -202 l 735 -141 l 187 -141 z "},"ɫ":{"ha":814,"x_min":0,"x_max":0,"o":"m 70 399 l 125 399 l 125 475 b 203 570 125 541 149 570 b 318 517 237 570 267 557 l 318 237 b 562 -14 318 70 399 -14 b 712 8 616 -14 661 -7 l 705 68 b 568 49 648 55 607 49 b 382 237 444 49 382 111 l 382 467 b 510 418 433 428 460 418 b 627 570 592 418 627 463 l 627 640 l 572 640 l 572 564 b 509 470 572 498 553 470 b 382 530 475 470 443 483 l 382 1017 l 83 1017 l 83 956 l 318 956 l 318 578 b 203 622 269 613 243 622 b 70 470 110 622 70 576 z "},"ł":{"ha":814,"x_min":0,"x_max":0,"o":"m 87 309 l 318 452 l 318 237 b 562 -14 318 70 399 -14 b 712 8 616 -14 661 -7 l 705 68 b 568 49 648 55 607 49 b 382 237 444 49 382 111 l 382 491 l 633 647 l 633 719 l 382 563 l 382 1017 l 83 1017 l 83 956 l 318 956 l 318 524 l 87 380 z "},"m":{"ha":814,"x_min":0,"x_max":0,"o":"m 658 0 l 722 0 l 722 563 b 575 732 722 676 673 732 b 437 629 497 732 452 699 l 434 629 b 300 732 420 699 375 732 b 157 629 220 732 173 699 l 152 629 l 146 719 l 92 719 l 92 0 l 156 0 l 156 526 b 275 670 156 622 196 670 b 375 563 342 670 375 634 l 375 0 l 439 0 l 439 526 b 559 670 439 622 478 670 b 658 549 627 670 658 631 z "},"n":{"ha":814,"x_min":0,"x_max":0,"o":"m 620 0 l 684 0 l 684 468 b 421 732 684 636 588 732 b 199 589 299 732 226 685 l 193 589 l 189 719 l 130 719 l 130 0 l 194 0 l 194 407 b 427 670 194 583 273 670 b 620 471 549 670 620 598 z "},"ń":{"ha":814,"x_min":0,"x_max":0,"o":"m 620 0 l 684 0 l 684 468 b 421 732 684 636 588 732 b 199 589 299 732 226 685 l 193 589 l 189 719 l 130 719 l 130 0 l 194 0 l 194 407 b 427 670 194 583 273 670 b 620 471 549 670 620 598 z m 362 846 l 431 846 l 600 1104 l 525 1104 z "},"ŉ":{"ha":814,"x_min":0,"x_max":0,"o":"m 620 0 l 684 0 l 684 468 b 421 732 684 636 588 732 b 199 589 299 732 226 685 l 193 589 l 189 719 l 130 719 l 130 0 l 194 0 l 194 407 b 427 670 194 583 273 670 b 620 471 549 670 620 598 z m 14 846 l 83 846 l 171 1104 l 102 1104 z "},"ň":{"ha":814,"x_min":0,"x_max":0,"o":"m 620 0 l 684 0 l 684 468 b 421 732 684 636 588 732 b 199 589 299 732 226 685 l 193 589 l 189 719 l 130 719 l 130 0 l 194 0 l 194 407 b 427 670 194 583 273 670 b 620 471 549 670 620 598 z m 379 821 l 421 821 l 621 1078 l 538 1078 l 400 890 l 262 1078 l 179 1078 z "},"ņ":{"ha":814,"x_min":0,"x_max":0,"o":"m 620 0 l 684 0 l 684 468 b 421 732 684 636 588 732 b 199 589 299 732 226 685 l 193 589 l 189 719 l 130 719 l 130 0 l 194 0 l 194 407 b 427 670 194 583 273 670 b 620 471 549 670 620 598 z m 323 -326 l 386 -326 l 440 -95 l 374 -95 z "},"ŋ":{"ha":814,"x_min":0,"x_max":0,"o":"m 361 -319 l 382 -317 b 684 57 595 -304 684 -195 l 684 468 b 421 732 684 636 588 732 b 199 589 299 732 226 685 l 193 589 l 189 719 l 130 719 l 130 0 l 194 0 l 194 407 b 427 670 194 583 273 670 b 620 471 549 670 620 598 l 620 42 b 396 -256 620 -154 554 -239 l 359 -260 z "},"ɲ":{"ha":814,"x_min":0,"x_max":0,"o":"m 620 0 l 684 0 l 684 468 b 421 732 684 636 588 732 b 199 589 299 732 226 685 l 193 589 l 189 719 l 130 719 l 130 42 b -60 -256 130 -154 75 -245 l -83 -258 l -80 -317 l -68 -317 b 194 57 130 -306 194 -195 l 194 407 b 427 670 194 583 273 670 b 620 471 549 670 620 598 z "},"ṉ":{"ha":814,"x_min":0,"x_max":0,"o":"m 620 0 l 684 0 l 684 468 b 421 732 684 636 588 732 b 199 589 299 732 226 685 l 193 589 l 189 719 l 130 719 l 130 0 l 194 0 l 194 407 b 427 670 194 583 273 670 b 620 471 549 670 620 598 z m 133 -202 l 681 -202 l 681 -141 l 133 -141 z "},"ñ":{"ha":814,"x_min":0,"x_max":0,"o":"m 620 0 l 684 0 l 684 468 b 421 732 684 636 588 732 b 199 589 299 732 226 685 l 193 589 l 189 719 l 130 719 l 130 0 l 194 0 l 194 407 b 427 670 194 583 273 670 b 620 471 549 670 620 598 z m 174 852 l 235 852 l 235 886 b 305 983 235 951 258 983 b 397 929 335 983 366 951 b 525 868 446 895 488 868 b 636 1031 600 868 636 922 l 636 1085 l 576 1085 l 576 1024 b 526 933 576 963 559 933 b 417 991 503 933 467 953 b 300 1048 378 1022 342 1048 b 174 879 216 1048 174 992 z "},"o":{"ha":814,"x_min":0,"x_max":0,"o":"m 407 -14 b 705 359 595 -14 705 122 b 407 732 705 597 595 732 b 109 359 218 732 109 597 b 407 -14 109 122 218 -14 z m 407 49 b 174 359 258 49 174 161 b 407 670 174 557 258 670 b 640 359 555 670 640 557 b 407 49 640 161 555 49 z "},"ó":{"ha":814,"x_min":0,"x_max":0,"o":"m 407 -14 b 705 359 595 -14 705 122 b 407 732 705 597 595 732 b 109 359 218 732 109 597 b 407 -14 109 122 218 -14 z m 407 49 b 174 359 258 49 174 161 b 407 670 174 557 258 670 b 640 359 555 670 640 557 b 407 49 640 161 555 49 z m 369 846 l 437 846 l 607 1104 l 532 1104 z "},"ŏ":{"ha":814,"x_min":0,"x_max":0,"o":"m 407 -14 b 705 359 595 -14 705 122 b 407 732 705 597 595 732 b 109 359 218 732 109 597 b 407 -14 109 122 218 -14 z m 407 49 b 174 359 258 49 174 161 b 407 670 174 557 258 670 b 640 359 555 670 640 557 b 407 49 640 161 555 49 z m 407 840 b 633 1058 551 840 633 919 l 633 1087 l 572 1087 l 572 1058 b 407 897 572 955 513 897 b 241 1058 300 897 241 955 l 241 1087 l 180 1087 l 180 1058 b 407 840 180 919 263 840 z "},"ô":{"ha":814,"x_min":0,"x_max":0,"o":"m 407 -14 b 705 359 595 -14 705 122 b 407 732 705 597 595 732 b 109 359 218 732 109 597 b 407 -14 109 122 218 -14 z m 407 49 b 174 359 258 49 174 161 b 407 670 174 557 258 670 b 640 359 555 670 640 557 b 407 49 640 161 555 49 z m 186 846 l 269 846 l 407 1034 l 545 846 l 628 846 l 428 1104 l 386 1104 z "},"ố":{"ha":814,"x_min":0,"x_max":0,"o":"m 407 -14 b 705 359 595 -14 705 122 b 407 732 705 597 595 732 b 109 359 218 732 109 597 b 407 -14 109 122 218 -14 z m 407 49 b 174 359 258 49 174 161 b 407 670 174 557 258 670 b 640 359 555 670 640 557 b 407 49 640 161 555 49 z m 186 846 l 269 846 l 407 1034 l 545 846 l 628 846 l 428 1104 l 386 1104 z m 611 1077 l 680 1077 l 849 1335 l 774 1335 z "},"ộ":{"ha":814,"x_min":0,"x_max":0,"o":"m 407 -14 b 705 359 595 -14 705 122 b 407 732 705 597 595 732 b 109 359 218 732 109 597 b 407 -14 109 122 218 -14 z m 407 49 b 174 359 258 49 174 161 b 407 670 174 557 258 670 b 640 359 555 670 640 557 b 407 49 640 161 555 49 z m 186 846 l 269 846 l 407 1034 l 545 846 l 628 846 l 428 1104 l 386 1104 z m 407 -262 b 475 -195 444 -262 475 -232 b 407 -127 475 -157 444 -127 b 339 -195 370 -127 339 -157 b 407 -262 339 -232 370 -262 z "},"ồ":{"ha":814,"x_min":0,"x_max":0,"o":"m 407 -14 b 705 359 595 -14 705 122 b 407 732 705 597 595 732 b 109 359 218 732 109 597 b 407 -14 109 122 218 -14 z m 407 49 b 174 359 258 49 174 161 b 407 670 174 557 258 670 b 640 359 555 670 640 557 b 407 49 640 161 555 49 z m 186 846 l 269 846 l 407 1034 l 545 846 l 628 846 l 428 1104 l 386 1104 z m 633 1077 l 701 1077 l 538 1335 l 463 1335 z "},"ổ":{"ha":814,"x_min":0,"x_max":0,"o":"m 407 -14 b 705 359 595 -14 705 122 b 407 732 705 597 595 732 b 109 359 218 732 109 597 b 407 -14 109 122 218 -14 z m 407 49 b 174 359 258 49 174 161 b 407 670 174 557 258 670 b 640 359 555 670 640 557 b 407 49 640 161 555 49 z m 186 846 l 269 846 l 407 1034 l 545 846 l 628 846 l 428 1104 l 386 1104 z m 616 1077 l 682 1077 l 682 1083 b 775 1274 682 1165 775 1174 b 648 1378 775 1343 733 1378 b 510 1331 591 1378 541 1360 l 541 1280 b 640 1316 567 1301 605 1316 b 710 1265 687 1316 710 1299 b 616 1088 710 1206 616 1180 z "},"ỗ":{"ha":814,"x_min":0,"x_max":0,"o":"m 407 -14 b 705 359 595 -14 705 122 b 407 732 705 597 595 732 b 109 359 218 732 109 597 b 407 -14 109 122 218 -14 z m 407 49 b 174 359 258 49 174 161 b 407 670 174 557 258 670 b 640 359 555 670 640 557 b 407 49 640 161 555 49 z m 180 1204 l 241 1204 l 241 1238 b 312 1336 241 1304 265 1336 b 404 1282 342 1336 373 1304 b 532 1221 452 1248 495 1221 b 643 1383 606 1221 643 1275 l 643 1438 l 583 1438 l 583 1377 b 533 1286 583 1316 566 1286 b 424 1344 510 1286 474 1305 b 307 1401 385 1375 349 1401 b 180 1232 222 1401 180 1345 z m 186 846 l 269 846 l 407 1034 l 545 846 l 628 846 l 428 1104 l 386 1104 z "},"ö":{"ha":814,"x_min":0,"x_max":0,"o":"m 407 -14 b 705 359 595 -14 705 122 b 407 732 705 597 595 732 b 109 359 218 732 109 597 b 407 -14 109 122 218 -14 z m 407 49 b 174 359 258 49 174 161 b 407 670 174 557 258 670 b 640 359 555 670 640 557 b 407 49 640 161 555 49 z m 266 863 b 334 930 303 863 334 893 b 266 998 334 968 303 998 b 198 930 229 998 198 968 b 266 863 198 893 229 863 z m 551 863 b 618 930 588 863 618 893 b 551 998 618 968 588 998 b 483 930 513 998 483 968 b 551 863 483 893 513 863 z "},"ọ":{"ha":814,"x_min":0,"x_max":0,"o":"m 407 -14 b 705 359 595 -14 705 122 b 407 732 705 597 595 732 b 109 359 218 732 109 597 b 407 -14 109 122 218 -14 z m 407 49 b 174 359 258 49 174 161 b 407 670 174 557 258 670 b 640 359 555 670 640 557 b 407 49 640 161 555 49 z m 407 -262 b 475 -195 444 -262 475 -232 b 407 -127 475 -157 444 -127 b 339 -195 370 -127 339 -157 b 407 -262 339 -232 370 -262 z "},"ò":{"ha":814,"x_min":0,"x_max":0,"o":"m 407 -14 b 705 359 595 -14 705 122 b 407 732 705 597 595 732 b 109 359 218 732 109 597 b 407 -14 109 122 218 -14 z m 407 49 b 174 359 258 49 174 161 b 407 670 174 557 258 670 b 640 359 555 670 640 557 b 407 49 640 161 555 49 z m 391 846 l 459 846 l 296 1104 l 221 1104 z "},"ỏ":{"ha":814,"x_min":0,"x_max":0,"o":"m 407 -14 b 705 359 595 -14 705 122 b 407 732 705 597 595 732 b 109 359 218 732 109 597 b 407 -14 109 122 218 -14 z m 407 49 b 174 359 258 49 174 161 b 407 670 174 557 258 670 b 640 359 555 670 640 557 b 407 49 640 161 555 49 z m 374 846 l 439 846 l 439 852 b 533 1044 439 935 533 943 b 406 1147 533 1113 491 1147 b 268 1101 349 1147 298 1130 l 298 1049 b 398 1085 325 1071 363 1085 b 468 1034 445 1085 468 1068 b 374 857 468 975 374 949 z "},"ơ":{"ha":814,"x_min":0,"x_max":0,"o":"m 407 -14 b 705 359 595 -14 705 122 b 592 671 705 503 665 609 b 787 911 722 701 787 778 l 722 911 b 534 726 722 803 659 747 l 500 720 b 407 732 471 728 440 732 b 109 359 218 732 109 597 b 407 -14 109 122 218 -14 z m 407 49 b 174 359 258 49 174 161 b 407 670 174 557 258 670 b 640 359 555 670 640 557 b 407 49 640 161 555 49 z "},"ớ":{"ha":814,"x_min":0,"x_max":0,"o":"m 407 -14 b 705 359 595 -14 705 122 b 592 671 705 503 665 609 b 787 911 722 701 787 778 l 722 911 b 534 726 722 803 659 747 l 500 720 b 407 732 471 728 440 732 b 109 359 218 732 109 597 b 407 -14 109 122 218 -14 z m 407 49 b 174 359 258 49 174 161 b 407 670 174 557 258 670 b 640 359 555 670 640 557 b 407 49 640 161 555 49 z m 369 846 l 437 846 l 607 1104 l 532 1104 z "},"ợ":{"ha":814,"x_min":0,"x_max":0,"o":"m 407 -14 b 705 359 595 -14 705 122 b 592 671 705 503 665 609 b 787 911 722 701 787 778 l 722 911 b 534 726 722 803 659 747 l 500 720 b 407 732 471 728 440 732 b 109 359 218 732 109 597 b 407 -14 109 122 218 -14 z m 407 49 b 174 359 258 49 174 161 b 407 670 174 557 258 670 b 640 359 555 670 640 557 b 407 49 640 161 555 49 z m 407 -262 b 475 -195 444 -262 475 -232 b 407 -127 475 -157 444 -127 b 339 -195 370 -127 339 -157 b 407 -262 339 -232 370 -262 z "},"ờ":{"ha":814,"x_min":0,"x_max":0,"o":"m 407 -14 b 705 359 595 -14 705 122 b 592 671 705 503 665 609 b 787 911 722 701 787 778 l 722 911 b 534 726 722 803 659 747 l 500 720 b 407 732 471 728 440 732 b 109 359 218 732 109 597 b 407 -14 109 122 218 -14 z m 407 49 b 174 359 258 49 174 161 b 407 670 174 557 258 670 b 640 359 555 670 640 557 b 407 49 640 161 555 49 z m 391 846 l 459 846 l 296 1104 l 221 1104 z "},"ở":{"ha":814,"x_min":0,"x_max":0,"o":"m 407 -14 b 705 359 595 -14 705 122 b 592 671 705 503 665 609 b 787 911 722 701 787 778 l 722 911 b 534 726 722 803 659 747 l 500 720 b 407 732 471 728 440 732 b 109 359 218 732 109 597 b 407 -14 109 122 218 -14 z m 407 49 b 174 359 258 49 174 161 b 407 670 174 557 258 670 b 640 359 555 670 640 557 b 407 49 640 161 555 49 z m 374 846 l 439 846 l 439 852 b 533 1044 439 935 533 943 b 406 1147 533 1113 491 1147 b 268 1101 349 1147 298 1130 l 298 1049 b 398 1085 325 1071 363 1085 b 468 1034 445 1085 468 1068 b 374 857 468 975 374 949 z "},"ỡ":{"ha":814,"x_min":0,"x_max":0,"o":"m 407 -14 b 705 359 595 -14 705 122 b 592 671 705 503 665 609 b 787 911 722 701 787 778 l 722 911 b 534 726 722 803 659 747 l 500 720 b 407 732 471 728 440 732 b 109 359 218 732 109 597 b 407 -14 109 122 218 -14 z m 407 49 b 174 359 258 49 174 161 b 407 670 174 557 258 670 b 640 359 555 670 640 557 b 407 49 640 161 555 49 z m 180 852 l 241 852 l 241 886 b 312 983 241 951 265 983 b 404 929 342 983 373 951 b 532 868 452 895 495 868 b 643 1031 606 868 643 922 l 643 1085 l 583 1085 l 583 1024 b 533 933 583 963 566 933 b 424 991 510 933 474 953 b 307 1048 385 1022 349 1048 b 180 879 222 1048 180 992 z "},"ő":{"ha":814,"x_min":0,"x_max":0,"o":"m 407 -14 b 705 359 595 -14 705 122 b 407 732 705 597 595 732 b 109 359 218 732 109 597 b 407 -14 109 122 218 -14 z m 407 49 b 174 359 258 49 174 161 b 407 670 174 557 258 670 b 640 359 555 670 640 557 b 407 49 640 161 555 49 z m 231 846 l 299 846 l 414 1104 l 339 1104 z m 492 846 l 561 846 l 676 1104 l 601 1104 z "},"ō":{"ha":814,"x_min":0,"x_max":0,"o":"m 407 -14 b 705 359 595 -14 705 122 b 407 732 705 597 595 732 b 109 359 218 732 109 597 b 407 -14 109 122 218 -14 z m 407 49 b 174 359 258 49 174 161 b 407 670 174 557 258 670 b 640 359 555 670 640 557 b 407 49 640 161 555 49 z m 133 846 l 681 846 l 681 907 l 133 907 z "},"ṓ":{"ha":814,"x_min":0,"x_max":0,"o":"m 407 -14 b 705 359 595 -14 705 122 b 407 732 705 597 595 732 b 109 359 218 732 109 597 b 407 -14 109 122 218 -14 z m 407 49 b 174 359 258 49 174 161 b 407 670 174 557 258 670 b 640 359 555 670 640 557 b 407 49 640 161 555 49 z m 133 846 l 681 846 l 681 907 l 133 907 z m 369 1050 l 437 1050 l 607 1308 l 532 1308 z "},"ṑ":{"ha":814,"x_min":0,"x_max":0,"o":"m 407 -14 b 705 359 595 -14 705 122 b 407 732 705 597 595 732 b 109 359 218 732 109 597 b 407 -14 109 122 218 -14 z m 407 49 b 174 359 258 49 174 161 b 407 670 174 557 258 670 b 640 359 555 670 640 557 b 407 49 640 161 555 49 z m 133 846 l 681 846 l 681 907 l 133 907 z m 391 1050 l 459 1050 l 296 1308 l 221 1308 z "},"ǫ":{"ha":814,"x_min":0,"x_max":0,"o":"m 447 -288 b 511 -281 465 -288 489 -287 l 515 -228 b 465 -231 497 -230 479 -231 b 352 -141 393 -231 352 -199 b 496 -2 352 -62 404 -35 b 705 359 629 35 705 163 b 407 732 705 597 595 732 b 109 359 218 732 109 597 b 373 -12 109 137 205 3 l 373 -20 b 291 -155 321 -44 291 -93 b 447 -288 291 -239 348 -288 z m 407 49 b 174 359 258 49 174 161 b 407 670 174 557 258 670 b 640 359 555 670 640 557 b 407 49 640 161 555 49 z "},"ɔ":{"ha":814,"x_min":0,"x_max":0,"o":"m 357 -14 b 705 358 581 -14 705 123 b 338 732 705 600 572 732 b 138 701 256 732 203 724 l 160 642 b 335 670 228 663 275 670 b 640 351 530 670 640 559 b 362 49 640 158 538 49 b 136 117 269 49 187 80 l 106 70 b 357 -14 156 23 247 -14 z "},"ø":{"ha":814,"x_min":0,"x_max":0,"o":"m 204 -91 l 262 20 b 407 -14 304 -2 352 -14 b 705 359 595 -14 705 122 b 601 663 705 497 669 600 l 665 785 l 608 812 l 549 700 b 407 732 509 722 461 732 b 109 359 218 732 109 597 b 212 56 109 222 145 119 l 153 -57 z m 407 49 b 293 77 363 49 325 58 l 569 602 b 640 359 615 549 640 467 b 407 49 640 161 555 49 z m 245 117 b 174 359 198 170 174 252 b 407 670 174 557 258 670 b 519 643 450 670 487 661 z "},"ǿ":{"ha":814,"x_min":0,"x_max":0,"o":"m 204 -91 l 262 20 b 407 -14 304 -2 352 -14 b 705 359 595 -14 705 122 b 601 663 705 497 669 600 l 665 785 l 608 812 l 549 700 b 407 732 509 722 461 732 b 109 359 218 732 109 597 b 212 56 109 222 145 119 l 153 -57 z m 407 49 b 293 77 363 49 325 58 l 569 602 b 640 359 615 549 640 467 b 407 49 640 161 555 49 z m 245 117 b 174 359 198 170 174 252 b 407 670 174 557 258 670 b 519 643 450 670 487 661 z m 369 846 l 437 846 l 607 1104 l 532 1104 z "},"õ":{"ha":814,"x_min":0,"x_max":0,"o":"m 407 -14 b 705 359 595 -14 705 122 b 407 732 705 597 595 732 b 109 359 218 732 109 597 b 407 -14 109 122 218 -14 z m 407 49 b 174 359 258 49 174 161 b 407 670 174 557 258 670 b 640 359 555 670 640 557 b 407 49 640 161 555 49 z m 180 852 l 241 852 l 241 886 b 312 983 241 951 265 983 b 404 929 342 983 373 951 b 532 868 452 895 495 868 b 643 1031 606 868 643 922 l 643 1085 l 583 1085 l 583 1024 b 533 933 583 963 566 933 b 424 991 510 933 474 953 b 307 1048 385 1022 349 1048 b 180 879 222 1048 180 992 z "},"œ":{"ha":814,"x_min":0,"x_max":0,"o":"m 240 -14 b 414 193 333 -14 391 55 b 647 -14 449 57 530 -14 b 745 3 682 -14 719 -7 l 735 66 b 663 49 712 55 685 49 b 441 317 533 49 454 146 l 777 317 b 781 377 779 335 781 357 b 594 732 781 614 719 732 b 411 541 503 732 440 665 b 240 732 387 669 330 732 b 30 359 100 732 30 609 b 240 -14 30 110 100 -14 z m 240 49 b 95 359 142 49 95 151 b 240 670 95 568 142 670 b 377 359 332 670 377 568 b 240 49 377 151 332 49 z m 439 378 b 595 670 441 564 498 670 b 715 378 675 670 715 573 z "},"p":{"ha":814,"x_min":0,"x_max":0,"o":"m 130 -312 l 194 -312 l 194 170 l 200 170 b 446 -14 223 56 300 -14 b 732 353 634 -14 732 112 b 441 732 732 602 633 732 b 199 557 305 732 222 673 l 193 557 l 180 719 l 130 719 z m 194 355 l 194 363 b 433 670 194 565 276 670 b 667 353 587 670 667 562 b 432 49 667 153 587 49 b 194 355 275 49 194 154 z "},"þ":{"ha":814,"x_min":0,"x_max":0,"o":"m 130 -312 l 194 -312 l 194 170 l 200 170 b 446 -14 223 56 300 -14 b 732 353 634 -14 732 112 b 441 732 732 602 633 732 b 200 557 306 732 222 673 l 194 557 l 194 1017 l 130 1017 z m 194 355 l 194 363 b 433 670 194 565 276 670 b 667 353 587 670 667 562 b 432 49 667 153 587 49 b 194 355 275 49 194 154 z "},"q":{"ha":814,"x_min":0,"x_max":0,"o":"m 378 -14 b 614 111 505 -14 591 32 l 620 111 l 620 -312 l 684 -312 l 684 719 l 633 719 l 622 589 l 614 589 b 380 732 587 680 502 732 b 81 353 190 732 81 594 b 378 -14 81 120 190 -14 z m 620 404 l 620 231 b 381 49 620 115 533 49 b 146 353 232 49 146 159 b 380 670 146 555 231 670 b 620 404 532 670 620 573 z "},"r":{"ha":814,"x_min":0,"x_max":0,"o":"m 318 309 b 540 670 318 540 391 670 b 700 463 652 670 700 609 l 765 463 b 543 732 765 652 698 732 b 323 534 417 732 345 667 l 317 534 l 304 719 l 98 719 l 98 658 l 254 658 l 254 61 l 71 61 l 71 0 l 534 0 l 534 61 l 318 61 z "},"ŕ":{"ha":814,"x_min":0,"x_max":0,"o":"m 318 309 b 540 670 318 540 391 670 b 700 463 652 670 700 609 l 765 463 b 543 732 765 652 698 732 b 323 534 417 732 345 667 l 317 534 l 304 719 l 98 719 l 98 658 l 254 658 l 254 61 l 71 61 l 71 0 l 534 0 l 534 61 l 318 61 z m 369 846 l 437 846 l 607 1104 l 532 1104 z "},"ř":{"ha":814,"x_min":0,"x_max":0,"o":"m 318 309 b 540 670 318 540 391 670 b 700 463 652 670 700 609 l 765 463 b 543 732 765 652 698 732 b 323 534 417 732 345 667 l 317 534 l 304 719 l 98 719 l 98 658 l 254 658 l 254 61 l 71 61 l 71 0 l 534 0 l 534 61 l 318 61 z m 386 821 l 428 821 l 628 1078 l 545 1078 l 407 890 l 269 1078 l 186 1078 z "},"ŗ":{"ha":814,"x_min":0,"x_max":0,"o":"m 318 309 b 540 670 318 540 391 670 b 700 463 652 670 700 609 l 765 463 b 543 732 765 652 698 732 b 323 534 417 732 345 667 l 317 534 l 304 719 l 98 719 l 98 658 l 254 658 l 254 61 l 71 61 l 71 0 l 534 0 l 534 61 l 318 61 z m 208 -326 l 271 -326 l 325 -95 l 259 -95 z "},"ṛ":{"ha":814,"x_min":0,"x_max":0,"o":"m 318 309 b 540 670 318 540 391 670 b 700 463 652 670 700 609 l 765 463 b 543 732 765 652 698 732 b 323 534 417 732 345 667 l 317 534 l 304 719 l 98 719 l 98 658 l 254 658 l 254 61 l 71 61 l 71 0 l 534 0 l 534 61 l 318 61 z m 292 -262 b 359 -195 329 -262 359 -232 b 292 -127 359 -157 329 -127 b 224 -195 254 -127 224 -157 b 292 -262 224 -232 254 -262 z "},"s":{"ha":814,"x_min":0,"x_max":0,"o":"m 351 -14 b 692 180 591 -14 692 43 b 486 380 692 281 633 345 l 359 411 b 198 536 245 439 198 481 b 495 670 198 630 286 670 b 665 661 541 670 591 667 l 673 719 b 499 732 605 728 559 732 b 133 536 241 732 133 675 b 328 352 133 448 189 387 l 488 312 b 627 180 585 288 627 244 b 351 49 627 88 544 49 b 130 71 288 49 222 56 l 122 7 b 351 -14 179 -7 248 -14 z "},"ś":{"ha":814,"x_min":0,"x_max":0,"o":"m 351 -14 b 692 180 591 -14 692 43 b 486 380 692 281 633 345 l 359 411 b 198 536 245 439 198 481 b 495 670 198 630 286 670 b 665 661 541 670 591 667 l 673 719 b 499 732 605 728 559 732 b 133 536 241 732 133 675 b 328 352 133 448 189 387 l 488 312 b 627 180 585 288 627 244 b 351 49 627 88 544 49 b 130 71 288 49 222 56 l 122 7 b 351 -14 179 -7 248 -14 z m 389 846 l 458 846 l 627 1104 l 552 1104 z "},"š":{"ha":814,"x_min":0,"x_max":0,"o":"m 351 -14 b 692 180 591 -14 692 43 b 486 380 692 281 633 345 l 359 411 b 198 536 245 439 198 481 b 495 670 198 630 286 670 b 665 661 541 670 591 667 l 673 719 b 499 732 605 728 559 732 b 133 536 241 732 133 675 b 328 352 133 448 189 387 l 488 312 b 627 180 585 288 627 244 b 351 49 627 88 544 49 b 130 71 288 49 222 56 l 122 7 b 351 -14 179 -7 248 -14 z m 406 821 l 448 821 l 648 1078 l 566 1078 l 427 890 l 289 1078 l 206 1078 z "},"ş":{"ha":814,"x_min":0,"x_max":0,"o":"m 351 -14 b 364 -14 356 -14 360 -14 l 326 -115 b 475 -188 431 -115 475 -136 b 304 -271 475 -246 425 -271 l 304 -326 b 534 -188 465 -326 534 -284 b 404 -75 534 -122 495 -81 l 424 -12 b 692 180 611 0 692 58 b 486 380 692 281 633 345 l 359 411 b 198 536 245 439 198 481 b 495 670 198 630 286 670 b 665 661 541 670 591 667 l 673 719 b 499 732 605 728 559 732 b 133 536 241 732 133 675 b 328 352 133 448 189 387 l 488 312 b 627 180 585 288 627 244 b 351 49 627 88 544 49 b 130 71 288 49 222 56 l 122 7 b 351 -14 179 -7 248 -14 z "},"ŝ":{"ha":814,"x_min":0,"x_max":0,"o":"m 351 -14 b 692 180 591 -14 692 43 b 486 380 692 281 633 345 l 359 411 b 198 536 245 439 198 481 b 495 670 198 630 286 670 b 665 661 541 670 591 667 l 673 719 b 499 732 605 728 559 732 b 133 536 241 732 133 675 b 328 352 133 448 189 387 l 488 312 b 627 180 585 288 627 244 b 351 49 627 88 544 49 b 130 71 288 49 222 56 l 122 7 b 351 -14 179 -7 248 -14 z m 206 846 l 289 846 l 427 1034 l 566 846 l 648 846 l 448 1104 l 406 1104 z "},"ș":{"ha":814,"x_min":0,"x_max":0,"o":"m 351 -14 b 692 180 591 -14 692 43 b 486 380 692 281 633 345 l 359 411 b 198 536 245 439 198 481 b 495 670 198 630 286 670 b 665 661 541 670 591 667 l 673 719 b 499 732 605 728 559 732 b 133 536 241 732 133 675 b 328 352 133 448 189 387 l 488 312 b 627 180 585 288 627 244 b 351 49 627 88 544 49 b 130 71 288 49 222 56 l 122 7 b 351 -14 179 -7 248 -14 z m 317 -326 l 379 -326 l 433 -95 l 368 -95 z "},"ṣ":{"ha":814,"x_min":0,"x_max":0,"o":"m 351 -14 b 692 180 591 -14 692 43 b 486 380 692 281 633 345 l 359 411 b 198 536 245 439 198 481 b 495 670 198 630 286 670 b 665 661 541 670 591 667 l 673 719 b 499 732 605 728 559 732 b 133 536 241 732 133 675 b 328 352 133 448 189 387 l 488 312 b 627 180 585 288 627 244 b 351 49 627 88 544 49 b 130 71 288 49 222 56 l 122 7 b 351 -14 179 -7 248 -14 z m 400 -262 b 468 -195 437 -262 468 -232 b 400 -127 468 -157 437 -127 b 332 -195 363 -127 332 -157 b 400 -262 332 -232 363 -262 z "},"ß":{"ha":814,"x_min":0,"x_max":0,"o":"m 555 -14 b 773 194 694 -14 773 62 b 648 406 773 290 707 349 b 575 529 608 446 575 485 b 613 642 575 581 594 611 b 682 821 644 692 682 725 b 450 1031 682 954 597 1031 b 167 726 270 1031 167 920 l 167 527 l 62 527 l 62 466 l 167 466 l 167 0 l 231 0 l 231 732 b 446 968 231 882 309 968 b 616 821 555 966 616 911 b 561 672 616 755 590 715 b 510 529 535 633 510 589 b 625 335 510 429 570 391 b 708 191 665 294 708 258 b 555 49 708 101 652 49 b 400 71 515 49 466 57 l 384 7 b 555 -14 428 -6 483 -14 z "},"ſ":{"ha":814,"x_min":0,"x_max":0,"o":"m 340 0 l 403 0 l 403 665 b 636 968 403 868 480 968 b 758 959 672 968 708 966 l 773 1017 b 640 1031 728 1027 688 1031 b 340 658 439 1031 340 907 l 340 528 l 62 528 l 62 467 l 340 467 z "},"t":{"ha":814,"x_min":0,"x_max":0,"o":"m 537 -14 b 709 3 599 -14 651 -8 l 702 63 b 551 49 654 54 607 49 b 348 278 415 49 348 125 l 348 658 l 682 658 l 682 719 l 348 719 l 348 936 l 284 936 l 284 719 l 64 719 l 64 658 l 284 658 l 284 278 b 537 -14 284 83 368 -14 z "},"ŧ":{"ha":814,"x_min":0,"x_max":0,"o":"m 64 365 l 284 365 l 284 278 b 537 -14 284 83 368 -14 b 709 3 599 -14 651 -8 l 702 63 b 551 49 654 54 607 49 b 348 278 415 49 348 125 l 348 365 l 682 365 l 682 426 l 348 426 l 348 658 l 682 658 l 682 719 l 348 719 l 348 936 l 284 936 l 284 719 l 64 719 l 64 658 l 284 658 l 284 426 l 64 426 z "},"ť":{"ha":814,"x_min":0,"x_max":0,"o":"m 537 -14 b 709 3 599 -14 651 -8 l 702 63 b 551 49 654 54 607 49 b 348 278 415 49 348 125 l 348 658 l 682 658 l 682 719 l 348 719 l 348 936 l 284 936 l 284 719 l 64 719 l 64 658 l 284 658 l 284 278 b 537 -14 284 83 368 -14 z m 496 833 l 559 833 l 606 1090 l 544 1090 z "},"ţ":{"ha":814,"x_min":0,"x_max":0,"o":"m 537 -14 b 709 3 599 -14 651 -8 l 702 63 b 551 49 654 54 607 49 b 348 278 415 49 348 125 l 348 658 l 682 658 l 682 719 l 348 719 l 348 936 l 284 936 l 284 719 l 64 719 l 64 658 l 284 658 l 284 278 b 423 6 284 134 330 43 l 376 -115 b 526 -188 482 -115 526 -136 b 355 -271 526 -246 475 -271 l 355 -326 b 585 -188 516 -326 585 -284 b 454 -75 585 -122 546 -81 l 476 -9 b 537 -14 495 -12 515 -14 z "},"ț":{"ha":814,"x_min":0,"x_max":0,"o":"m 537 -14 b 709 3 599 -14 651 -8 l 702 63 b 551 49 654 54 607 49 b 348 278 415 49 348 125 l 348 658 l 682 658 l 682 719 l 348 719 l 348 936 l 284 936 l 284 719 l 64 719 l 64 658 l 284 658 l 284 278 b 537 -14 284 83 368 -14 z m 368 -326 l 430 -326 l 484 -95 l 418 -95 z "},"ʧ":{"ha":814,"x_min":0,"x_max":0,"o":"m 354 -14 b 441 -4 385 -14 412 -10 l 433 56 b 368 49 406 52 386 49 b 243 197 281 49 243 93 l 243 658 l 536 658 l 536 -12 b 319 -257 536 -165 472 -237 l 265 -264 l 270 -323 l 303 -321 b 600 -11 512 -304 600 -212 l 600 800 b 758 968 600 907 658 968 b 820 964 778 968 801 967 l 827 1024 b 749 1031 804 1029 776 1031 b 536 807 614 1031 536 949 l 536 719 l 243 719 l 243 936 l 180 936 l 180 719 l 30 719 l 30 658 l 180 658 l 180 190 b 354 -14 180 47 231 -14 z "},"u":{"ha":814,"x_min":0,"x_max":0,"o":"m 370 -14 b 595 138 486 -14 568 42 l 602 138 l 612 -7 l 762 0 l 762 43 l 663 50 l 663 719 l 600 719 l 600 332 b 377 49 600 127 524 49 b 179 244 252 49 179 119 l 179 719 l 115 719 l 115 244 b 370 -14 115 80 208 -14 z "},"ú":{"ha":814,"x_min":0,"x_max":0,"o":"m 370 -14 b 595 138 486 -14 568 42 l 602 138 l 612 -7 l 762 0 l 762 43 l 663 50 l 663 719 l 600 719 l 600 332 b 377 49 600 127 524 49 b 179 244 252 49 179 119 l 179 719 l 115 719 l 115 244 b 370 -14 115 80 208 -14 z m 355 846 l 424 846 l 593 1104 l 518 1104 z "},"ŭ":{"ha":814,"x_min":0,"x_max":0,"o":"m 370 -14 b 595 138 486 -14 568 42 l 602 138 l 612 -7 l 762 0 l 762 43 l 663 50 l 663 719 l 600 719 l 600 332 b 377 49 600 127 524 49 b 179 244 252 49 179 119 l 179 719 l 115 719 l 115 244 b 370 -14 115 80 208 -14 z m 393 840 b 620 1058 537 840 620 919 l 620 1087 l 559 1087 l 559 1058 b 393 897 559 955 500 897 b 228 1058 287 897 228 955 l 228 1087 l 167 1087 l 167 1058 b 393 840 167 919 250 840 z "},"û":{"ha":814,"x_min":0,"x_max":0,"o":"m 370 -14 b 595 138 486 -14 568 42 l 602 138 l 612 -7 l 762 0 l 762 43 l 663 50 l 663 719 l 600 719 l 600 332 b 377 49 600 127 524 49 b 179 244 252 49 179 119 l 179 719 l 115 719 l 115 244 b 370 -14 115 80 208 -14 z m 172 846 l 255 846 l 393 1034 l 532 846 l 614 846 l 414 1104 l 372 1104 z "},"ü":{"ha":814,"x_min":0,"x_max":0,"o":"m 370 -14 b 595 138 486 -14 568 42 l 602 138 l 612 -7 l 762 0 l 762 43 l 663 50 l 663 719 l 600 719 l 600 332 b 377 49 600 127 524 49 b 179 244 252 49 179 119 l 179 719 l 115 719 l 115 244 b 370 -14 115 80 208 -14 z m 252 863 b 320 930 290 863 320 893 b 252 998 320 968 290 998 b 184 930 215 998 184 968 b 252 863 184 893 215 863 z m 537 863 b 605 930 574 863 605 893 b 537 998 605 968 574 998 b 469 930 500 998 469 968 b 537 863 469 893 500 863 z "},"ụ":{"ha":814,"x_min":0,"x_max":0,"o":"m 370 -14 b 595 138 486 -14 568 42 l 602 138 l 612 -7 l 762 0 l 762 43 l 663 50 l 663 719 l 600 719 l 600 332 b 377 49 600 127 524 49 b 179 244 252 49 179 119 l 179 719 l 115 719 l 115 244 b 370 -14 115 80 208 -14 z m 380 -262 b 448 -195 417 -262 448 -232 b 380 -127 448 -157 417 -127 b 312 -195 342 -127 312 -157 b 380 -262 312 -232 342 -262 z "},"ù":{"ha":814,"x_min":0,"x_max":0,"o":"m 370 -14 b 595 138 486 -14 568 42 l 602 138 l 612 -7 l 762 0 l 762 43 l 663 50 l 663 719 l 600 719 l 600 332 b 377 49 600 127 524 49 b 179 244 252 49 179 119 l 179 719 l 115 719 l 115 244 b 370 -14 115 80 208 -14 z m 377 846 l 446 846 l 283 1104 l 208 1104 z "},"ủ":{"ha":814,"x_min":0,"x_max":0,"o":"m 370 -14 b 595 138 486 -14 568 42 l 602 138 l 612 -7 l 762 0 l 762 43 l 663 50 l 663 719 l 600 719 l 600 332 b 377 49 600 127 524 49 b 179 244 252 49 179 119 l 179 719 l 115 719 l 115 244 b 370 -14 115 80 208 -14 z m 361 846 l 426 846 l 426 852 b 519 1044 426 935 519 943 b 392 1147 519 1113 477 1147 b 254 1101 336 1147 285 1130 l 285 1049 b 385 1085 311 1071 349 1085 b 454 1034 431 1085 454 1068 b 361 857 454 975 361 949 z "},"ư":{"ha":814,"x_min":0,"x_max":0,"o":"m 370 -14 b 595 138 486 -14 568 42 l 602 138 l 612 -7 l 762 0 l 762 43 l 663 50 l 663 682 b 817 911 766 709 817 784 l 751 911 b 627 726 751 808 710 746 l 600 719 l 600 332 b 377 49 600 127 524 49 b 179 244 252 49 179 119 l 179 719 l 115 719 l 115 244 b 370 -14 115 80 208 -14 z "},"ứ":{"ha":814,"x_min":0,"x_max":0,"o":"m 370 -14 b 595 138 486 -14 568 42 l 602 138 l 612 -7 l 762 0 l 762 43 l 663 50 l 663 682 b 817 911 766 709 817 784 l 751 911 b 627 726 751 808 710 746 l 600 719 l 600 332 b 377 49 600 127 524 49 b 179 244 252 49 179 119 l 179 719 l 115 719 l 115 244 b 370 -14 115 80 208 -14 z m 355 846 l 424 846 l 593 1104 l 518 1104 z "},"ự":{"ha":814,"x_min":0,"x_max":0,"o":"m 370 -14 b 595 138 486 -14 568 42 l 602 138 l 612 -7 l 762 0 l 762 43 l 663 50 l 663 682 b 817 911 766 709 817 784 l 751 911 b 627 726 751 808 710 746 l 600 719 l 600 332 b 377 49 600 127 524 49 b 179 244 252 49 179 119 l 179 719 l 115 719 l 115 244 b 370 -14 115 80 208 -14 z m 380 -262 b 448 -195 417 -262 448 -232 b 380 -127 448 -157 417 -127 b 312 -195 342 -127 312 -157 b 380 -262 312 -232 342 -262 z "},"ừ":{"ha":814,"x_min":0,"x_max":0,"o":"m 370 -14 b 595 138 486 -14 568 42 l 602 138 l 612 -7 l 762 0 l 762 43 l 663 50 l 663 682 b 817 911 766 709 817 784 l 751 911 b 627 726 751 808 710 746 l 600 719 l 600 332 b 377 49 600 127 524 49 b 179 244 252 49 179 119 l 179 719 l 115 719 l 115 244 b 370 -14 115 80 208 -14 z m 377 846 l 446 846 l 283 1104 l 208 1104 z "},"ử":{"ha":814,"x_min":0,"x_max":0,"o":"m 370 -14 b 595 138 486 -14 568 42 l 602 138 l 612 -7 l 762 0 l 762 43 l 663 50 l 663 682 b 817 911 766 709 817 784 l 751 911 b 627 726 751 808 710 746 l 600 719 l 600 332 b 377 49 600 127 524 49 b 179 244 252 49 179 119 l 179 719 l 115 719 l 115 244 b 370 -14 115 80 208 -14 z m 361 846 l 426 846 l 426 852 b 519 1044 426 935 519 943 b 392 1147 519 1113 477 1147 b 254 1101 336 1147 285 1130 l 285 1049 b 385 1085 311 1071 349 1085 b 454 1034 431 1085 454 1068 b 361 857 454 975 361 949 z "},"ữ":{"ha":814,"x_min":0,"x_max":0,"o":"m 370 -14 b 595 138 486 -14 568 42 l 602 138 l 612 -7 l 762 0 l 762 43 l 663 50 l 663 682 b 817 911 766 709 817 784 l 751 911 b 627 726 751 808 710 746 l 600 719 l 600 332 b 377 49 600 127 524 49 b 179 244 252 49 179 119 l 179 719 l 115 719 l 115 244 b 370 -14 115 80 208 -14 z m 167 852 l 228 852 l 228 886 b 298 983 228 951 252 983 b 391 929 328 983 359 951 b 518 868 439 895 481 868 b 629 1031 593 868 629 922 l 629 1085 l 570 1085 l 570 1024 b 519 933 570 963 553 933 b 410 991 496 933 460 953 b 293 1048 371 1022 335 1048 b 167 879 209 1048 167 992 z "},"ű":{"ha":814,"x_min":0,"x_max":0,"o":"m 370 -14 b 595 138 486 -14 568 42 l 602 138 l 612 -7 l 762 0 l 762 43 l 663 50 l 663 719 l 600 719 l 600 332 b 377 49 600 127 524 49 b 179 244 252 49 179 119 l 179 719 l 115 719 l 115 244 b 370 -14 115 80 208 -14 z m 217 846 l 286 846 l 401 1104 l 326 1104 z m 479 846 l 547 846 l 663 1104 l 587 1104 z "},"ū":{"ha":814,"x_min":0,"x_max":0,"o":"m 370 -14 b 595 138 486 -14 568 42 l 602 138 l 612 -7 l 762 0 l 762 43 l 663 50 l 663 719 l 600 719 l 600 332 b 377 49 600 127 524 49 b 179 244 252 49 179 119 l 179 719 l 115 719 l 115 244 b 370 -14 115 80 208 -14 z m 119 846 l 667 846 l 667 907 l 119 907 z "},"ų":{"ha":814,"x_min":0,"x_max":0,"o":"m 682 -288 b 746 -281 701 -288 724 -287 l 751 -228 b 700 -231 732 -230 714 -231 b 587 -141 628 -231 587 -199 b 735 -1 587 -66 641 -10 l 762 0 l 762 43 l 663 50 l 663 719 l 600 719 l 600 332 b 377 49 600 127 524 49 b 179 244 252 49 179 119 l 179 719 l 115 719 l 115 244 b 370 -14 115 80 208 -14 b 595 138 486 -14 568 42 l 602 138 l 612 -7 l 623 -6 l 623 -10 b 526 -151 562 -43 526 -94 b 682 -288 526 -238 583 -288 z "},"ʊ":{"ha":814,"x_min":0,"x_max":0,"o":"m 87 718 l 87 657 l 237 657 l 237 652 b 68 339 135 608 68 484 b 407 -10 68 129 203 -10 b 746 339 611 -10 746 129 b 593 652 746 486 685 610 l 593 657 l 727 657 l 727 718 l 471 718 l 471 657 b 681 359 597 625 681 507 b 407 52 681 174 572 52 b 133 359 241 52 133 174 b 359 657 133 504 223 623 l 359 718 z "},"ů":{"ha":814,"x_min":0,"x_max":0,"o":"m 370 -14 b 595 138 486 -14 568 42 l 602 138 l 612 -7 l 762 0 l 762 43 l 663 50 l 663 719 l 600 719 l 600 332 b 377 49 600 127 524 49 b 179 244 252 49 179 119 l 179 719 l 115 719 l 115 244 b 370 -14 115 80 208 -14 z m 393 812 b 538 959 486 812 538 866 b 393 1105 538 1052 486 1105 b 248 959 301 1105 248 1052 b 393 812 248 866 301 812 z m 393 869 b 309 959 339 869 309 902 b 393 1048 309 1016 339 1048 b 477 959 448 1048 477 1016 b 393 869 477 902 448 869 z "},"ũ":{"ha":814,"x_min":0,"x_max":0,"o":"m 370 -14 b 595 138 486 -14 568 42 l 602 138 l 612 -7 l 762 0 l 762 43 l 663 50 l 663 719 l 600 719 l 600 332 b 377 49 600 127 524 49 b 179 244 252 49 179 119 l 179 719 l 115 719 l 115 244 b 370 -14 115 80 208 -14 z m 167 852 l 228 852 l 228 886 b 298 983 228 951 252 983 b 391 929 328 983 359 951 b 518 868 439 895 481 868 b 629 1031 593 868 629 922 l 629 1085 l 570 1085 l 570 1024 b 519 933 570 963 553 933 b 410 991 496 933 460 953 b 293 1048 371 1022 335 1048 b 167 879 209 1048 167 992 z "},"v":{"ha":814,"x_min":0,"x_max":0,"o":"m 362 0 l 452 0 l 743 719 l 675 719 l 411 54 l 406 54 l 139 719 l 71 719 z "},"ʋ":{"ha":814,"x_min":0,"x_max":0,"o":"m 407 -14 b 685 278 589 -14 685 86 l 685 563 b 559 719 685 667 643 719 l 468 719 l 468 658 l 548 658 b 624 563 599 658 624 627 l 624 278 b 407 49 624 127 549 49 b 190 278 264 49 190 127 l 190 719 l 129 719 l 129 278 b 407 -14 129 86 224 -14 z "},"ʌ":{"ha":814,"x_min":0,"x_max":0,"o":"m 81 0 l 149 0 l 401 656 l 413 656 l 665 0 l 733 0 l 454 719 l 359 719 z "},"w":{"ha":814,"x_min":0,"x_max":0,"o":"m 513 0 l 612 0 l 750 719 l 693 719 l 571 54 l 562 54 l 450 719 l 351 719 l 238 54 l 229 54 l 121 719 l 64 719 l 182 0 l 290 0 l 396 665 l 404 665 z "},"ẃ":{"ha":814,"x_min":0,"x_max":0,"o":"m 513 0 l 612 0 l 750 719 l 693 719 l 571 54 l 562 54 l 450 719 l 351 719 l 238 54 l 229 54 l 121 719 l 64 719 l 182 0 l 290 0 l 396 665 l 404 665 z m 362 846 l 431 846 l 600 1104 l 525 1104 z "},"ŵ":{"ha":814,"x_min":0,"x_max":0,"o":"m 513 0 l 612 0 l 750 719 l 693 719 l 571 54 l 562 54 l 450 719 l 351 719 l 238 54 l 229 54 l 121 719 l 64 719 l 182 0 l 290 0 l 396 665 l 404 665 z m 179 846 l 262 846 l 400 1034 l 538 846 l 621 846 l 421 1104 l 379 1104 z "},"ẅ":{"ha":814,"x_min":0,"x_max":0,"o":"m 513 0 l 612 0 l 750 719 l 693 719 l 571 54 l 562 54 l 450 719 l 351 719 l 238 54 l 229 54 l 121 719 l 64 719 l 182 0 l 290 0 l 396 665 l 404 665 z m 259 863 b 327 930 296 863 327 893 b 259 998 327 968 296 998 b 191 930 222 998 191 968 b 259 863 191 893 222 863 z m 544 863 b 612 930 581 863 612 893 b 544 998 612 968 581 998 b 476 930 507 998 476 968 b 544 863 476 893 507 863 z "},"ẁ":{"ha":814,"x_min":0,"x_max":0,"o":"m 513 0 l 612 0 l 750 719 l 693 719 l 571 54 l 562 54 l 450 719 l 351 719 l 238 54 l 229 54 l 121 719 l 64 719 l 182 0 l 290 0 l 396 665 l 404 665 z m 384 846 l 452 846 l 290 1104 l 214 1104 z "},"x":{"ha":814,"x_min":0,"x_max":0,"o":"m 88 0 l 168 0 l 409 309 l 646 0 l 726 0 l 448 359 l 726 719 l 646 719 l 410 408 l 168 719 l 88 719 l 371 358 z "},"y":{"ha":814,"x_min":0,"x_max":0,"o":"m 67 -326 l 126 -317 b 473 64 273 -295 368 -196 l 740 719 l 668 719 l 425 98 b 410 61 420 85 414 73 l 407 61 l 125 719 l 54 719 l 368 0 l 382 0 b 110 -256 302 -168 221 -235 l 64 -264 z "},"ý":{"ha":814,"x_min":0,"x_max":0,"o":"m 67 -326 l 126 -317 b 473 64 273 -295 368 -196 l 740 719 l 668 719 l 425 98 b 410 61 420 85 414 73 l 407 61 l 125 719 l 54 719 l 368 0 l 382 0 b 110 -256 302 -168 221 -235 l 64 -264 z m 379 846 l 448 846 l 617 1104 l 542 1104 z "},"ŷ":{"ha":814,"x_min":0,"x_max":0,"o":"m 67 -326 l 126 -317 b 473 64 273 -295 368 -196 l 740 719 l 668 719 l 425 98 b 410 61 420 85 414 73 l 407 61 l 125 719 l 54 719 l 368 0 l 382 0 b 110 -256 302 -168 221 -235 l 64 -264 z m 196 846 l 279 846 l 417 1034 l 555 846 l 638 846 l 438 1104 l 396 1104 z "},"ÿ":{"ha":814,"x_min":0,"x_max":0,"o":"m 67 -326 l 126 -317 b 473 64 273 -295 368 -196 l 740 719 l 668 719 l 425 98 b 410 61 420 85 414 73 l 407 61 l 125 719 l 54 719 l 368 0 l 382 0 b 110 -256 302 -168 221 -235 l 64 -264 z m 276 863 b 344 930 313 863 344 893 b 276 998 344 968 313 998 b 208 930 239 998 208 968 b 276 863 208 893 239 863 z m 561 863 b 629 930 598 863 629 893 b 561 998 629 968 598 998 b 493 930 524 998 493 968 b 561 863 493 893 524 863 z "},"ỵ":{"ha":814,"x_min":0,"x_max":0,"o":"m 67 -326 l 126 -317 b 473 64 273 -295 368 -196 l 740 719 l 668 719 l 425 98 b 410 61 420 85 414 73 l 407 61 l 125 719 l 54 719 l 368 0 l 382 0 b 110 -256 302 -168 221 -235 l 64 -264 z m 641 -262 b 709 -195 678 -262 709 -232 b 641 -127 709 -157 678 -127 b 573 -195 604 -127 573 -157 b 641 -262 573 -232 604 -262 z "},"ỳ":{"ha":814,"x_min":0,"x_max":0,"o":"m 67 -326 l 126 -317 b 473 64 273 -295 368 -196 l 740 719 l 668 719 l 425 98 b 410 61 420 85 414 73 l 407 61 l 125 719 l 54 719 l 368 0 l 382 0 b 110 -256 302 -168 221 -235 l 64 -264 z m 401 846 l 469 846 l 307 1104 l 231 1104 z "},"ỷ":{"ha":814,"x_min":0,"x_max":0,"o":"m 67 -326 l 126 -317 b 473 64 273 -295 368 -196 l 740 719 l 668 719 l 425 98 b 410 61 420 85 414 73 l 407 61 l 125 719 l 54 719 l 368 0 l 382 0 b 110 -256 302 -168 221 -235 l 64 -264 z m 385 846 l 450 846 l 450 852 b 543 1044 450 935 543 943 b 416 1147 543 1113 501 1147 b 278 1101 359 1147 309 1130 l 309 1049 b 408 1085 335 1071 373 1085 b 478 1034 455 1085 478 1068 b 385 857 478 975 385 949 z "},"ȳ":{"ha":814,"x_min":0,"x_max":0,"o":"m 67 -326 l 126 -317 b 473 64 273 -295 368 -196 l 740 719 l 668 719 l 425 98 b 410 61 420 85 414 73 l 407 61 l 125 719 l 54 719 l 368 0 l 382 0 b 110 -256 302 -168 221 -235 l 64 -264 z m 143 846 l 691 846 l 691 907 l 143 907 z "},"ỹ":{"ha":814,"x_min":0,"x_max":0,"o":"m 67 -326 l 126 -317 b 473 64 273 -295 368 -196 l 740 719 l 668 719 l 425 98 b 410 61 420 85 414 73 l 407 61 l 125 719 l 54 719 l 368 0 l 382 0 b 110 -256 302 -168 221 -235 l 64 -264 z m 191 852 l 252 852 l 252 886 b 322 983 252 951 275 983 b 414 929 352 983 383 951 b 542 868 463 895 505 868 b 653 1031 616 868 653 922 l 653 1085 l 593 1085 l 593 1024 b 543 933 593 963 576 933 b 434 991 520 933 484 953 b 317 1048 395 1022 359 1048 b 191 879 233 1048 191 992 z "},"z":{"ha":814,"x_min":0,"x_max":0,"o":"m 125 0 l 686 0 l 686 61 l 199 61 l 673 658 l 673 719 l 125 719 l 125 658 l 599 658 l 125 61 z "},"ź":{"ha":814,"x_min":0,"x_max":0,"o":"m 125 0 l 686 0 l 686 61 l 199 61 l 673 658 l 673 719 l 125 719 l 125 658 l 599 658 l 125 61 z m 369 846 l 437 846 l 607 1104 l 532 1104 z "},"ž":{"ha":814,"x_min":0,"x_max":0,"o":"m 125 0 l 686 0 l 686 61 l 199 61 l 673 658 l 673 719 l 125 719 l 125 658 l 599 658 l 125 61 z m 386 821 l 428 821 l 628 1078 l 545 1078 l 407 890 l 269 1078 l 186 1078 z "},"ż":{"ha":814,"x_min":0,"x_max":0,"o":"m 125 0 l 686 0 l 686 61 l 199 61 l 673 658 l 673 719 l 125 719 l 125 658 l 599 658 l 125 61 z m 406 863 b 473 930 443 863 473 893 b 406 998 473 968 443 998 b 338 930 368 998 338 968 b 406 863 338 893 368 863 z "},"ﬁ":{"ha":814,"x_min":0,"x_max":0,"o":"m 232 0 l 296 0 l 296 467 l 620 467 l 620 0 l 684 0 l 684 528 l 296 528 l 296 665 b 542 968 296 868 378 968 b 650 959 574 968 606 966 l 665 1017 b 546 1031 625 1027 589 1031 b 232 658 336 1031 232 907 l 232 528 l 62 528 l 62 467 l 232 467 z "},"ﬂ":{"ha":814,"x_min":0,"x_max":0,"o":"m 238 0 l 302 0 l 302 467 l 513 467 l 513 528 l 302 528 l 302 665 b 551 968 302 868 385 968 b 642 964 579 968 608 967 l 642 0 l 705 0 l 705 1017 b 555 1031 655 1027 610 1031 b 238 658 342 1031 238 907 l 238 528 l 62 528 l 62 467 l 238 467 z "},"ª":{"ha":814,"x_min":0,"x_max":0,"o":"m 505 528 l 624 532 l 624 581 l 551 590 l 551 786 b 328 976 551 909 491 975 l 235 977 l 227 918 l 336 918 b 489 799 437 918 489 875 l 489 794 b 352 802 452 800 404 802 b 175 655 239 802 175 749 b 326 524 175 572 231 524 b 490 620 425 524 465 557 l 501 620 z m 489 731 l 489 705 b 336 578 489 644 437 578 b 237 660 270 578 237 607 b 355 748 237 718 277 748 b 489 741 400 748 444 748 z "},"º":{"ha":814,"x_min":0,"x_max":0,"o":"m 407 522 b 623 749 537 522 623 612 b 407 977 623 886 537 977 b 191 749 277 977 191 886 b 407 522 191 612 277 522 z m 407 576 b 253 749 314 576 253 646 b 407 922 253 854 314 922 b 561 749 500 922 561 854 b 407 576 561 646 500 576 z "},"ⁿ":{"ha":814,"x_min":0,"x_max":0,"o":"m 535 536 l 597 536 l 597 818 b 437 977 597 918 538 977 b 287 863 348 977 294 936 l 279 863 l 271 968 l 217 968 l 217 536 l 279 536 l 279 762 b 423 922 279 851 328 922 b 535 801 498 922 535 882 z "},"ʷ":{"ha":814,"x_min":0,"x_max":0,"o":"m 472 536 l 549 536 l 635 964 l 579 964 l 511 586 l 505 586 l 437 964 l 369 964 l 300 586 l 294 586 l 233 964 l 179 964 l 252 536 l 334 536 l 400 901 l 406 901 z "},"ʸ":{"ha":814,"x_min":0,"x_max":0,"o":"m 180 342 l 220 342 b 478 574 333 342 410 411 l 640 964 l 578 964 l 432 594 b 427 582 431 590 429 586 l 423 582 l 250 964 l 188 964 l 387 536 l 406 536 b 210 396 356 438 294 396 l 180 396 z "},"А":{"ha":814,"x_min":0,"x_max":0,"o":"m 47 0 l 109 0 l 196 269 l 618 269 l 705 0 l 767 0 l 450 963 l 363 963 z m 215 329 l 404 911 l 410 911 l 599 329 z "},"Б":{"ha":814,"x_min":0,"x_max":0,"o":"m 125 0 l 441 0 b 743 280 633 0 743 102 b 441 553 743 454 633 553 l 186 553 l 186 903 l 673 903 l 673 963 l 125 963 z m 186 60 l 186 493 l 429 493 b 681 280 589 493 681 416 b 429 60 681 140 589 60 z "},"В":{"ha":814,"x_min":0,"x_max":0,"o":"m 125 0 l 450 0 b 753 258 643 0 753 94 b 477 509 753 414 653 506 l 477 515 b 685 726 610 522 685 597 b 395 963 685 876 579 963 l 125 963 z m 186 60 l 186 479 l 456 479 b 690 258 605 479 690 398 b 452 60 690 132 604 60 z m 186 538 l 186 903 l 401 903 b 623 726 542 903 623 839 b 397 538 623 607 541 538 z "},"Г":{"ha":814,"x_min":0,"x_max":0,"o":"m 138 0 l 199 0 l 199 903 l 723 903 l 723 963 l 138 963 z "},"Ѓ":{"ha":814,"x_min":0,"x_max":0,"o":"m 138 0 l 199 0 l 199 903 l 723 903 l 723 963 l 138 963 z m 382 1072 l 458 1072 l 618 1241 l 535 1241 z "},"Ґ":{"ha":814,"x_min":0,"x_max":0,"o":"m 122 0 l 183 0 l 183 903 l 736 903 l 736 1173 l 675 1173 l 675 963 l 122 963 z "},"Д":{"ha":814,"x_min":0,"x_max":0,"o":"m 37 -197 l 98 -197 l 98 0 l 716 0 l 716 -197 l 777 -197 l 777 60 l 688 60 l 688 963 l 177 963 l 177 589 b 82 60 177 418 144 154 l 37 60 z m 627 60 l 153 60 b 238 593 212 174 238 427 l 238 903 l 627 903 z "},"Е":{"ha":814,"x_min":0,"x_max":0,"o":"m 125 0 l 730 0 l 730 60 l 186 60 l 186 452 l 608 452 l 608 512 l 186 512 l 186 903 l 730 903 l 730 963 l 125 963 z "},"Ѐ":{"ha":814,"x_min":0,"x_max":0,"o":"m 125 0 l 730 0 l 730 60 l 186 60 l 186 452 l 608 452 l 608 512 l 186 512 l 186 903 l 730 903 l 730 963 l 125 963 z m 390 1072 l 466 1072 l 313 1241 l 231 1241 z "},"Ё":{"ha":814,"x_min":0,"x_max":0,"o":"m 125 0 l 730 0 l 730 60 l 186 60 l 186 452 l 608 452 l 608 512 l 186 512 l 186 903 l 730 903 l 730 963 l 125 963 z m 286 1095 b 354 1162 323 1095 354 1124 b 286 1230 354 1199 323 1230 b 218 1162 249 1230 218 1199 b 286 1095 218 1124 249 1095 z m 568 1095 b 636 1162 606 1095 636 1124 b 568 1230 636 1199 606 1230 b 500 1162 531 1230 500 1199 b 568 1095 500 1124 531 1095 z "},"Ж":{"ha":814,"x_min":0,"x_max":0,"o":"m 5 -3 l 29 -3 b 155 123 108 -3 141 33 l 189 335 b 323 452 205 431 230 452 l 376 452 l 376 0 l 437 0 l 437 452 l 490 452 b 625 335 584 452 609 431 l 659 123 b 785 -3 673 33 706 -3 l 809 -3 l 809 56 l 793 56 b 720 134 759 56 728 77 l 686 342 b 570 479 672 427 640 474 l 545 481 l 570 484 b 686 627 640 489 671 539 l 720 829 b 793 907 729 885 759 907 l 809 907 l 809 966 l 785 966 b 659 840 706 966 673 928 l 625 635 b 490 511 608 535 584 511 l 437 511 l 437 963 l 376 963 l 376 511 l 323 511 b 189 635 230 511 205 535 l 155 840 b 29 966 140 928 108 966 l 5 966 l 5 907 l 20 907 b 94 829 55 907 85 885 l 128 627 b 243 484 143 539 174 489 l 269 481 l 243 479 b 128 342 174 474 142 427 l 94 134 b 20 56 85 77 55 56 l 5 56 z "},"З":{"ha":814,"x_min":0,"x_max":0,"o":"m 370 -14 b 711 267 580 -14 711 97 b 455 512 711 422 589 505 l 455 519 b 673 741 610 552 673 629 b 361 977 673 899 570 977 b 144 945 281 977 176 958 l 154 884 b 359 916 207 899 302 916 b 608 731 526 916 608 854 b 250 536 608 604 507 545 l 257 475 l 362 475 b 648 275 533 475 648 404 b 374 47 648 132 545 47 b 103 147 261 47 196 75 l 60 102 b 370 -14 140 25 241 -14 z "},"И":{"ha":814,"x_min":0,"x_max":0,"o":"m 117 0 l 191 0 l 623 841 l 636 841 l 636 0 l 697 0 l 697 963 l 623 963 l 191 122 l 178 122 l 178 963 l 117 963 z "},"Й":{"ha":814,"x_min":0,"x_max":0,"o":"m 117 0 l 191 0 l 623 841 l 636 841 l 636 0 l 697 0 l 697 963 l 623 963 l 191 122 l 178 122 l 178 963 l 117 963 z m 407 1065 b 624 1261 545 1065 624 1137 l 563 1261 b 407 1119 563 1171 506 1119 b 251 1261 308 1119 251 1171 l 190 1261 b 407 1065 190 1137 269 1065 z "},"Ѝ":{"ha":814,"x_min":0,"x_max":0,"o":"m 117 0 l 191 0 l 623 841 l 636 841 l 636 0 l 697 0 l 697 963 l 623 963 l 191 122 l 178 122 l 178 963 l 117 963 z m 370 1072 l 446 1072 l 293 1241 l 210 1241 z "},"К":{"ha":814,"x_min":0,"x_max":0,"o":"m 111 0 l 172 0 l 172 452 l 370 452 b 496 337 429 452 467 418 l 587 95 b 728 -3 614 22 663 -3 l 750 -3 l 750 58 l 734 58 b 642 127 687 58 659 78 l 565 340 b 399 481 530 436 481 479 l 399 483 b 565 623 481 485 530 528 l 642 837 b 734 906 659 886 687 906 l 750 906 l 750 967 l 728 967 b 587 869 663 967 614 942 l 496 627 b 370 511 466 545 429 511 l 172 511 l 172 963 l 111 963 z "},"Ќ":{"ha":814,"x_min":0,"x_max":0,"o":"m 111 0 l 172 0 l 172 452 l 370 452 b 496 337 429 452 467 418 l 587 95 b 728 -3 614 22 663 -3 l 750 -3 l 750 58 l 734 58 b 642 127 687 58 659 78 l 565 340 b 399 481 530 436 481 479 l 399 483 b 565 623 481 485 530 528 l 642 837 b 734 906 659 886 687 906 l 750 906 l 750 967 l 728 967 b 587 869 663 967 614 942 l 496 627 b 370 511 466 545 429 511 l 172 511 l 172 963 l 111 963 z m 369 1072 l 445 1072 l 604 1241 l 522 1241 z "},"Л":{"ha":814,"x_min":0,"x_max":0,"o":"m 41 1 b 250 340 233 1 250 130 l 250 903 l 642 903 l 642 0 l 703 0 l 703 963 l 189 963 l 189 335 b 41 62 189 166 182 62 z "},"М":{"ha":814,"x_min":0,"x_max":0,"o":"m 103 0 l 164 0 l 164 903 l 171 903 l 369 448 l 445 448 l 643 903 l 650 903 l 650 0 l 711 0 l 711 963 l 606 963 l 408 507 l 406 507 l 208 963 l 103 963 z "},"Н":{"ha":814,"x_min":0,"x_max":0,"o":"m 642 0 l 703 0 l 703 963 l 642 963 l 642 509 l 172 509 l 172 963 l 111 963 l 111 0 l 172 0 l 172 450 l 642 450 z "},"О":{"ha":814,"x_min":0,"x_max":0,"o":"m 407 -14 b 746 475 632 -14 746 148 b 407 977 746 810 632 977 b 68 475 182 977 68 810 b 407 -14 68 148 182 -14 z m 407 41 b 130 475 222 41 130 185 b 407 916 130 770 222 916 b 684 475 591 916 684 770 b 407 41 684 185 591 41 z "},"П":{"ha":814,"x_min":0,"x_max":0,"o":"m 642 0 l 703 0 l 703 963 l 111 963 l 111 0 l 172 0 l 172 903 l 642 903 z "},"Р":{"ha":814,"x_min":0,"x_max":0,"o":"m 125 0 l 186 0 l 186 332 l 406 332 b 743 648 621 332 743 447 b 406 963 743 848 621 963 l 125 963 z m 186 392 l 186 903 l 406 903 b 681 648 581 903 681 810 b 406 392 681 485 581 392 z "},"С":{"ha":814,"x_min":0,"x_max":0,"o":"m 500 -14 b 732 33 581 -14 658 1 l 715 93 b 510 47 648 62 581 47 b 130 490 258 47 130 195 b 486 916 130 762 271 916 b 705 810 575 916 656 877 l 749 855 b 484 977 707 932 610 977 b 68 483 219 977 68 796 b 500 -14 68 152 213 -14 z "},"Т":{"ha":814,"x_min":0,"x_max":0,"o":"m 376 0 l 437 0 l 437 903 l 743 903 l 743 963 l 71 963 l 71 903 l 376 903 z "},"У":{"ha":814,"x_min":0,"x_max":0,"o":"m 147 0 b 538 271 366 0 469 72 l 774 963 l 709 963 l 486 292 b 447 201 474 257 461 227 l 440 201 l 140 963 l 75 963 l 399 138 b 147 60 344 82 265 60 z "},"Ў":{"ha":814,"x_min":0,"x_max":0,"o":"m 147 0 b 538 271 366 0 469 72 l 774 963 l 709 963 l 486 292 b 447 201 474 257 461 227 l 440 201 l 140 963 l 75 963 l 399 138 b 147 60 344 82 265 60 z m 434 1065 b 651 1261 572 1065 651 1137 l 590 1261 b 434 1119 590 1171 533 1119 b 278 1261 335 1119 278 1171 l 217 1261 b 434 1065 217 1137 296 1065 z "},"Ф":{"ha":814,"x_min":0,"x_max":0,"o":"m 376 -14 l 437 -14 l 437 82 b 753 481 647 94 753 225 b 437 895 753 745 647 883 l 437 990 l 376 990 l 376 895 b 61 481 167 882 61 745 b 376 82 61 226 167 94 z m 437 833 b 690 481 606 821 690 705 b 437 143 690 267 606 155 z m 376 144 b 123 481 208 155 123 268 b 376 833 123 704 208 821 z "},"Х":{"ha":814,"x_min":0,"x_max":0,"o":"m 686 0 l 753 0 l 437 475 l 753 963 l 686 963 l 407 524 l 128 963 l 60 963 l 376 475 l 60 0 l 128 0 l 407 429 z "},"Ч":{"ha":814,"x_min":0,"x_max":0,"o":"m 373 397 l 621 397 l 621 0 l 682 0 l 682 963 l 621 963 l 621 456 l 373 456 b 152 722 218 456 152 536 l 152 963 l 91 963 l 91 722 b 373 397 91 494 175 397 z "},"Ц":{"ha":814,"x_min":0,"x_max":0,"o":"m 111 0 l 709 0 l 709 -197 l 770 -197 l 770 60 l 712 60 l 712 963 l 651 963 l 651 60 l 172 60 l 172 963 l 111 963 z "},"Ш":{"ha":814,"x_min":0,"x_max":0,"o":"m 103 0 l 711 0 l 711 963 l 650 963 l 650 60 l 437 60 l 437 963 l 376 963 l 376 60 l 164 60 l 164 963 l 103 963 z "},"Щ":{"ha":814,"x_min":0,"x_max":0,"o":"m 103 0 l 709 0 l 709 -197 l 770 -197 l 770 60 l 711 60 l 711 963 l 650 963 l 650 60 l 437 60 l 437 963 l 376 963 l 376 60 l 164 60 l 164 963 l 103 963 z "},"Џ":{"ha":814,"x_min":0,"x_max":0,"o":"m 376 -197 l 437 -197 l 437 0 l 703 0 l 703 963 l 642 963 l 642 60 l 172 60 l 172 963 l 111 963 l 111 0 l 376 0 z "},"Ь":{"ha":814,"x_min":0,"x_max":0,"o":"m 111 0 l 437 0 b 739 294 629 0 739 107 b 437 587 739 480 629 587 l 172 587 l 172 963 l 111 963 z m 172 60 l 172 528 l 431 528 b 677 294 587 528 677 442 b 431 60 677 145 587 60 z "},"Ъ":{"ha":814,"x_min":0,"x_max":0,"o":"m 179 0 l 430 0 b 746 294 631 0 746 107 b 430 587 746 480 631 587 l 240 587 l 240 963 l 9 963 l 9 903 l 179 903 z m 240 60 l 240 528 l 425 528 b 684 294 589 528 684 442 b 425 60 684 145 589 60 z "},"Ы":{"ha":814,"x_min":0,"x_max":0,"o":"m 103 0 l 241 0 b 497 294 404 0 497 107 b 241 587 497 480 404 587 l 164 587 l 164 963 l 103 963 z m 164 60 l 164 528 l 241 528 b 435 294 364 528 435 442 b 241 60 435 145 364 60 z m 650 0 l 711 0 l 711 963 l 650 963 z "},"Љ":{"ha":814,"x_min":0,"x_max":0,"o":"m 52 0 b 227 232 185 0 227 54 l 227 903 l 414 903 l 414 0 l 525 0 b 746 294 659 0 746 117 b 525 587 746 471 659 587 l 475 587 l 475 963 l 165 963 l 165 227 b 52 61 165 100 139 61 z m 475 60 l 475 528 l 526 528 b 684 294 621 528 684 435 b 526 60 684 152 621 60 z "},"Њ":{"ha":814,"x_min":0,"x_max":0,"o":"m 103 0 l 164 0 l 164 449 l 416 449 l 416 0 l 525 0 b 746 294 665 0 746 107 b 525 587 746 480 665 587 l 477 587 l 477 963 l 416 963 l 416 510 l 164 510 l 164 963 l 103 963 z m 477 60 l 477 525 l 526 525 b 684 294 626 525 684 441 b 526 60 684 145 626 60 z "},"Ѕ":{"ha":814,"x_min":0,"x_max":0,"o":"m 374 -14 b 701 224 592 -14 701 65 b 543 459 701 325 649 404 l 302 584 b 192 739 230 621 192 668 b 412 916 192 857 264 916 b 661 819 494 916 577 884 l 705 863 b 411 977 627 939 529 977 b 130 732 223 977 130 895 b 269 530 130 640 178 578 l 528 392 b 638 222 602 353 638 296 b 385 47 638 105 554 47 b 113 98 296 47 206 64 l 104 33 b 374 -14 184 2 273 -14 z "},"Є":{"ha":814,"x_min":0,"x_max":0,"o":"m 507 -14 b 739 33 587 -14 665 1 l 722 93 b 517 47 654 62 587 47 b 138 463 272 47 145 186 l 585 463 l 585 523 l 138 523 b 492 916 149 774 286 916 b 712 810 582 916 663 877 l 756 855 b 491 977 713 932 616 977 b 75 483 226 977 75 796 b 507 -14 75 152 220 -14 z "},"Э":{"ha":814,"x_min":0,"x_max":0,"o":"m 323 -14 b 732 484 595 -14 732 174 b 309 977 732 802 587 977 b 74 943 226 977 149 966 l 91 884 b 286 916 154 905 217 916 b 669 524 525 916 655 773 l 226 524 l 226 463 l 670 463 b 330 47 665 203 540 47 b 73 134 227 47 166 68 l 28 89 b 323 -14 104 20 207 -14 z "},"І":{"ha":814,"x_min":0,"x_max":0,"o":"m 130 0 l 684 0 l 684 60 l 437 60 l 437 903 l 684 903 l 684 963 l 130 963 l 130 903 l 376 903 l 376 60 l 130 60 z "},"Ї":{"ha":814,"x_min":0,"x_max":0,"o":"m 130 0 l 684 0 l 684 60 l 437 60 l 437 903 l 684 903 l 684 963 l 130 963 l 130 903 l 376 903 l 376 60 l 130 60 z m 266 1095 b 334 1162 303 1095 334 1124 b 266 1230 334 1199 303 1230 b 198 1162 229 1230 198 1199 b 266 1095 198 1124 229 1095 z m 548 1095 b 616 1162 585 1095 616 1124 b 548 1230 616 1199 585 1230 b 480 1162 511 1230 480 1199 b 548 1095 480 1124 511 1095 z "},"Ј":{"ha":814,"x_min":0,"x_max":0,"o":"m 389 -14 b 704 323 600 -14 704 98 l 704 963 l 332 963 l 332 903 l 643 903 l 643 323 b 393 47 643 139 560 47 b 137 323 222 47 137 139 l 75 323 b 389 -14 75 98 179 -14 z "},"Ћ":{"ha":814,"x_min":0,"x_max":0,"o":"m 643 0 l 704 0 l 704 264 b 441 559 704 471 625 559 l 261 559 l 261 903 l 553 903 l 553 963 l 30 963 l 30 903 l 200 903 l 200 0 l 261 0 l 261 500 l 441 500 b 643 264 583 500 643 429 z "},"Ю":{"ha":814,"x_min":0,"x_max":0,"o":"m 526 -14 b 745 475 680 -14 745 132 b 526 977 745 827 680 977 b 306 509 377 977 311 837 l 132 509 l 132 963 l 71 963 l 71 0 l 132 0 l 132 450 l 306 450 b 526 -14 309 125 376 -14 z m 526 47 b 368 475 415 47 368 175 b 526 916 368 784 415 916 b 683 475 636 916 683 784 b 526 47 683 175 636 47 z "},"Я":{"ha":814,"x_min":0,"x_max":0,"o":"m 369 426 l 370 426 l 370 422 b 214 288 298 418 239 392 l 190 186 b 71 56 168 95 132 56 l 65 56 l 65 -3 l 78 -3 b 239 140 164 -3 212 39 l 273 272 b 411 394 295 355 309 394 l 643 394 l 643 0 l 704 0 l 704 963 l 396 963 b 92 675 203 963 92 859 b 369 426 92 426 289 426 z m 560 454 l 396 454 b 155 671 243 455 155 534 b 396 903 155 819 243 903 l 643 903 l 643 454 z "},"Ђ":{"ha":814,"x_min":0,"x_max":0,"o":"m 415 0 b 718 298 608 0 718 109 b 427 565 718 468 612 565 l 261 565 l 261 903 l 549 903 l 549 963 l 9 963 l 9 903 l 200 903 l 200 0 l 261 0 l 261 505 l 427 505 b 656 298 573 505 656 430 b 415 61 656 148 568 61 z "},"Ғ":{"ha":814,"x_min":0,"x_max":0,"o":"m 14 431 l 138 431 l 138 0 l 199 0 l 199 431 l 480 431 l 480 492 l 199 492 l 199 903 l 723 903 l 723 963 l 138 963 l 138 492 l 14 492 z "},"Җ":{"ha":814,"x_min":0,"x_max":0,"o":"m 5 -3 l 29 -3 b 155 123 108 -3 141 33 l 189 335 b 323 452 205 431 230 452 l 376 452 l 376 0 l 437 0 l 437 452 l 490 452 b 625 335 584 452 609 431 l 659 123 b 748 0 670 49 695 11 l 748 -197 l 809 -197 l 809 60 l 793 60 b 720 134 759 60 728 80 l 686 342 b 570 479 672 427 640 474 l 545 481 l 570 484 b 686 627 640 489 671 539 l 720 829 b 793 907 729 885 759 907 l 809 907 l 809 966 l 785 966 b 659 840 706 966 673 928 l 625 635 b 490 511 608 535 584 511 l 437 511 l 437 963 l 376 963 l 376 511 l 323 511 b 189 635 230 511 205 535 l 155 840 b 29 966 140 928 108 966 l 5 966 l 5 907 l 20 907 b 94 829 55 907 85 885 l 128 627 b 243 484 143 539 174 489 l 269 481 l 243 479 b 128 342 174 474 142 427 l 94 134 b 20 56 85 77 55 56 l 5 56 z "},"Қ":{"ha":814,"x_min":0,"x_max":0,"o":"m 111 0 l 172 0 l 172 452 l 370 452 b 496 337 429 452 467 418 l 587 95 b 709 -3 611 28 654 2 l 709 -197 l 770 -197 l 770 60 l 734 60 b 642 127 687 60 659 79 l 565 340 b 399 481 530 436 481 479 l 399 483 b 565 623 481 485 530 528 l 642 837 b 734 906 659 886 687 906 l 750 906 l 750 967 l 728 967 b 587 869 663 967 614 942 l 496 627 b 370 511 466 545 429 511 l 172 511 l 172 963 l 111 963 z "},"Ң":{"ha":814,"x_min":0,"x_max":0,"o":"m 699 -197 l 760 -197 l 760 60 l 703 60 l 703 963 l 642 963 l 642 509 l 172 509 l 172 963 l 111 963 l 111 0 l 172 0 l 172 450 l 642 450 l 642 0 l 699 0 z "},"Ү":{"ha":814,"x_min":0,"x_max":0,"o":"m 376 0 l 437 0 l 437 346 l 781 963 l 713 963 l 410 410 l 404 410 l 100 963 l 33 963 l 376 346 z "},"Ұ":{"ha":814,"x_min":0,"x_max":0,"o":"m 174 235 l 376 235 l 376 0 l 437 0 l 437 235 l 642 235 l 642 294 l 437 294 l 437 346 l 781 963 l 713 963 l 410 410 l 404 410 l 100 963 l 33 963 l 376 346 l 376 294 l 174 294 z "},"Ҳ":{"ha":814,"x_min":0,"x_max":0,"o":"m 709 -197 l 770 -197 l 770 60 l 714 60 l 437 475 l 753 963 l 686 963 l 407 524 l 128 963 l 60 963 l 376 475 l 60 0 l 128 0 l 407 429 l 686 0 l 709 0 z "},"Ҷ":{"ha":814,"x_min":0,"x_max":0,"o":"m 669 -197 l 730 -197 l 730 60 l 682 60 l 682 963 l 621 963 l 621 456 l 373 456 b 152 722 218 456 152 536 l 152 963 l 91 963 l 91 722 b 373 397 91 494 175 397 l 621 397 l 621 0 l 669 0 z "},"Һ":{"ha":814,"x_min":0,"x_max":0,"o":"m 642 0 l 703 0 l 703 268 b 420 559 703 472 618 559 l 172 559 l 172 963 l 111 963 l 111 0 l 172 0 l 172 499 l 420 499 b 642 268 575 499 642 430 z "},"Ӏ":{"ha":814,"x_min":0,"x_max":0,"o":"m 130 0 l 684 0 l 684 60 l 437 60 l 437 903 l 684 903 l 684 963 l 130 963 l 130 903 l 376 903 l 376 60 l 130 60 z "},"Ә":{"ha":814,"x_min":0,"x_max":0,"o":"m 407 -14 b 745 475 631 -14 745 148 b 339 977 745 810 608 977 b 132 945 267 977 197 966 l 144 886 b 339 916 204 905 271 916 b 682 507 559 916 673 781 l 72 507 b 69 427 70 482 69 455 b 407 -14 69 132 182 -14 z m 682 446 b 407 47 676 180 584 47 b 132 427 224 47 132 174 b 132 446 132 434 132 440 z "},"Ӣ":{"ha":814,"x_min":0,"x_max":0,"o":"m 117 0 l 191 0 l 623 841 l 636 841 l 636 0 l 697 0 l 697 963 l 623 963 l 191 122 l 178 122 l 178 963 l 117 963 z m 144 1105 l 669 1105 l 669 1165 l 144 1165 z "},"Ө":{"ha":814,"x_min":0,"x_max":0,"o":"m 407 -14 b 746 475 632 -14 746 148 b 407 977 746 810 632 977 b 68 475 182 977 68 810 b 407 -14 68 148 182 -14 z m 407 41 b 130 450 228 41 136 177 l 684 450 b 407 41 678 177 586 41 z m 131 509 b 407 916 138 781 230 916 b 683 509 584 916 676 781 z "},"Ӯ":{"ha":814,"x_min":0,"x_max":0,"o":"m 147 0 b 538 271 366 0 469 72 l 774 963 l 709 963 l 486 292 b 447 201 474 257 461 227 l 440 201 l 140 963 l 75 963 l 399 138 b 147 60 344 82 265 60 z m 172 1105 l 696 1105 l 696 1165 l 172 1165 z "},"а":{"ha":814,"x_min":0,"x_max":0,"o":"m 597 -7 l 769 0 l 769 43 l 645 52 l 645 405 b 312 724 645 625 545 720 l 183 726 l 170 663 l 312 661 b 581 414 500 659 581 586 l 581 385 b 392 397 530 393 463 397 b 81 172 184 397 81 323 b 304 -14 81 54 162 -14 b 585 152 450 -14 564 57 l 590 152 z m 581 329 l 581 252 b 304 49 581 136 462 49 b 146 177 204 49 146 95 b 389 338 146 285 227 338 b 581 329 451 338 524 338 z "},"б":{"ha":814,"x_min":0,"x_max":0,"o":"m 412 -14 b 726 319 612 -14 726 108 b 431 637 726 522 618 637 b 175 480 301 637 205 581 l 170 480 l 170 492 b 562 878 170 732 264 826 l 697 902 l 690 966 l 524 937 b 106 477 233 886 106 757 l 106 336 b 412 -14 106 106 211 -14 z m 425 49 b 173 312 267 49 173 146 b 427 575 173 477 267 575 b 661 312 574 575 661 477 b 425 49 661 146 573 49 z "},"в":{"ha":814,"x_min":0,"x_max":0,"o":"m 137 0 l 525 0 b 726 190 652 0 726 69 b 510 370 726 304 647 370 l 498 370 l 498 376 b 699 536 625 376 699 433 b 483 719 699 652 620 719 l 137 719 z m 201 61 l 201 342 l 476 342 b 661 190 593 342 661 287 b 519 61 661 108 609 61 z m 201 404 l 201 658 l 483 658 b 633 536 578 658 633 613 b 458 404 633 452 570 404 z "},"г":{"ha":814,"x_min":0,"x_max":0,"o":"m 203 0 l 267 0 l 267 658 l 682 658 l 682 719 l 203 719 z "},"ѓ":{"ha":814,"x_min":0,"x_max":0,"o":"m 203 0 l 267 0 l 267 658 l 682 658 l 682 719 l 203 719 z m 430 846 l 498 846 l 668 1104 l 593 1104 z "},"ґ":{"ha":814,"x_min":0,"x_max":0,"o":"m 203 0 l 267 0 l 267 658 l 696 658 l 696 895 l 632 895 l 632 719 l 203 719 z "},"д":{"ha":814,"x_min":0,"x_max":0,"o":"m 43 -183 l 107 -183 l 107 0 l 686 0 l 686 -183 l 750 -183 l 750 61 l 667 61 l 667 719 l 176 719 l 176 457 b 96 61 176 283 153 154 l 43 61 z m 604 61 l 171 61 b 239 462 220 162 239 294 l 239 658 l 604 658 z "},"е":{"ha":814,"x_min":0,"x_max":0,"o":"m 477 -14 b 670 5 547 -14 618 -6 l 660 68 b 493 49 607 56 544 49 b 174 345 298 49 183 157 l 701 345 b 705 404 704 359 705 381 b 417 732 705 612 600 732 b 109 369 221 732 109 600 b 477 -14 109 126 243 -14 z m 175 406 b 418 670 186 574 274 670 b 640 406 559 670 640 574 z "},"ѐ":{"ha":814,"x_min":0,"x_max":0,"o":"m 477 -14 b 670 5 547 -14 618 -6 l 660 68 b 493 49 607 56 544 49 b 174 345 298 49 183 157 l 701 345 b 705 404 704 359 705 381 b 417 732 705 612 600 732 b 109 369 221 732 109 600 b 477 -14 109 126 243 -14 z m 175 406 b 418 670 186 574 274 670 b 640 406 559 670 640 574 z m 397 846 l 466 846 l 303 1104 l 228 1104 z "},"ё":{"ha":814,"x_min":0,"x_max":0,"o":"m 477 -14 b 670 5 547 -14 618 -6 l 660 68 b 493 49 607 56 544 49 b 174 345 298 49 183 157 l 701 345 b 705 404 704 359 705 381 b 417 732 705 612 600 732 b 109 369 221 732 109 600 b 477 -14 109 126 243 -14 z m 175 406 b 418 670 186 574 274 670 b 640 406 559 670 640 574 z m 273 863 b 340 930 310 863 340 893 b 273 998 340 968 310 998 b 205 930 235 998 205 968 b 273 863 205 893 235 863 z m 557 863 b 625 930 595 863 625 893 b 557 998 625 968 595 998 b 490 930 520 998 490 968 b 557 863 490 893 520 863 z "},"ж":{"ha":814,"x_min":0,"x_max":0,"o":"m 25 -7 l 54 -7 b 155 69 103 -7 140 21 l 216 267 b 294 329 228 307 256 329 l 376 329 l 376 0 l 437 0 l 437 329 l 519 329 b 598 267 557 329 586 307 l 659 69 b 760 -7 674 21 711 -7 l 789 -7 l 789 54 l 766 54 b 713 94 740 54 721 68 l 648 300 b 565 355 637 338 612 354 l 565 363 b 648 418 612 365 637 381 l 713 625 b 766 665 721 650 740 665 l 789 665 l 789 726 l 760 726 b 659 650 711 726 674 698 l 598 452 b 519 390 586 412 557 390 l 437 390 l 437 719 l 376 719 l 376 390 l 294 390 b 216 452 256 390 228 412 l 155 650 b 54 726 140 698 103 726 l 25 726 l 25 665 l 47 665 b 101 625 74 665 93 650 l 165 418 b 249 363 177 381 202 365 l 249 355 b 165 300 202 354 177 338 l 101 94 b 47 54 93 68 74 54 l 25 54 z "},"з":{"ha":814,"x_min":0,"x_max":0,"o":"m 377 -14 b 686 197 581 -14 686 58 b 465 374 686 302 610 363 l 465 380 b 659 534 623 389 659 464 b 346 732 659 665 551 732 b 152 715 258 732 214 727 l 159 655 b 331 670 234 667 271 670 b 593 530 503 670 593 622 b 296 404 593 450 553 404 l 272 404 l 279 343 l 294 343 b 621 200 509 343 621 294 b 372 49 621 100 536 49 b 123 121 297 49 195 67 l 87 71 b 377 -14 161 3 270 -14 z "},"и":{"ha":814,"x_min":0,"x_max":0,"o":"m 130 0 l 197 0 l 606 610 l 620 610 l 620 0 l 684 0 l 684 719 l 616 719 l 208 109 l 194 109 l 194 719 l 130 719 z "},"й":{"ha":814,"x_min":0,"x_max":0,"o":"m 130 0 l 197 0 l 606 610 l 620 610 l 620 0 l 684 0 l 684 719 l 616 719 l 208 109 l 194 109 l 194 719 l 130 719 z m 407 840 b 626 1087 557 840 626 920 l 562 1087 b 407 898 562 958 522 898 b 252 1087 294 898 252 955 l 188 1087 b 407 840 188 921 256 840 z "},"ѝ":{"ha":814,"x_min":0,"x_max":0,"o":"m 130 0 l 197 0 l 606 610 l 620 610 l 620 0 l 684 0 l 684 719 l 616 719 l 208 109 l 194 109 l 194 719 l 130 719 z m 391 846 l 459 846 l 296 1104 l 221 1104 z "},"к":{"ha":814,"x_min":0,"x_max":0,"o":"m 123 0 l 187 0 l 187 329 l 404 329 b 487 267 443 329 470 309 l 571 62 b 685 -3 589 18 627 -3 l 714 -3 l 714 58 l 688 58 b 628 94 659 58 638 70 l 554 273 b 444 357 532 328 494 356 l 444 362 b 554 446 494 363 532 391 l 628 625 b 688 661 638 649 659 661 l 714 661 l 714 722 l 685 722 b 571 656 627 722 589 701 l 487 452 b 404 390 470 410 443 390 l 187 390 l 187 719 l 123 719 z "},"ќ":{"ha":814,"x_min":0,"x_max":0,"o":"m 123 0 l 187 0 l 187 329 l 404 329 b 487 267 443 329 470 309 l 571 62 b 685 -3 589 18 627 -3 l 714 -3 l 714 58 l 688 58 b 628 94 659 58 638 70 l 554 273 b 444 357 532 328 494 356 l 444 362 b 554 446 494 363 532 391 l 628 625 b 688 661 638 649 659 661 l 714 661 l 714 722 l 685 722 b 571 656 627 722 589 701 l 487 452 b 404 390 470 410 443 390 l 187 390 l 187 719 l 123 719 z m 355 846 l 424 846 l 593 1104 l 518 1104 z "},"л":{"ha":814,"x_min":0,"x_max":0,"o":"m 59 0 b 264 272 203 0 264 81 l 264 658 l 624 658 l 624 0 l 688 0 l 688 719 l 201 719 l 201 267 b 59 61 201 123 159 61 z "},"м":{"ha":814,"x_min":0,"x_max":0,"o":"m 104 0 l 168 0 l 168 658 l 172 658 l 364 149 l 450 149 l 642 658 l 646 658 l 646 0 l 710 0 l 710 719 l 599 719 l 410 210 l 404 210 l 215 719 l 104 719 z "},"н":{"ha":814,"x_min":0,"x_max":0,"o":"m 620 0 l 684 0 l 684 719 l 620 719 l 620 390 l 194 390 l 194 719 l 130 719 l 130 0 l 194 0 l 194 329 l 620 329 z "},"о":{"ha":814,"x_min":0,"x_max":0,"o":"m 407 -14 b 705 359 595 -14 705 122 b 407 732 705 597 595 732 b 109 359 218 732 109 597 b 407 -14 109 122 218 -14 z m 407 49 b 174 359 258 49 174 161 b 407 670 174 557 258 670 b 640 359 555 670 640 557 b 407 49 640 161 555 49 z "},"п":{"ha":814,"x_min":0,"x_max":0,"o":"m 620 0 l 684 0 l 684 719 l 130 719 l 130 0 l 194 0 l 194 658 l 620 658 z "},"р":{"ha":814,"x_min":0,"x_max":0,"o":"m 130 -312 l 194 -312 l 194 170 l 200 170 b 446 -14 223 56 300 -14 b 732 353 634 -14 732 112 b 441 732 732 602 633 732 b 199 557 305 732 222 673 l 193 557 l 180 719 l 130 719 z m 194 355 l 194 363 b 433 670 194 565 276 670 b 667 353 587 670 667 562 b 432 49 667 153 587 49 b 194 355 275 49 194 154 z "},"с":{"ha":814,"x_min":0,"x_max":0,"o":"m 476 -14 b 704 10 551 -14 630 -9 l 696 72 b 479 49 626 58 553 49 b 174 368 278 49 174 158 b 452 670 174 561 276 670 b 671 547 543 670 623 639 l 728 583 b 457 732 688 678 589 732 b 109 361 233 732 109 595 b 476 -14 109 115 235 -14 z "},"т":{"ha":814,"x_min":0,"x_max":0,"o":"m 375 0 l 439 0 l 439 658 l 736 658 l 736 719 l 77 719 l 77 658 l 375 658 z "},"у":{"ha":814,"x_min":0,"x_max":0,"o":"m 67 -326 l 126 -317 b 473 64 273 -295 368 -196 l 740 719 l 668 719 l 425 98 b 410 61 420 85 414 73 l 407 61 l 125 719 l 54 719 l 368 0 l 382 0 b 110 -256 302 -168 221 -235 l 64 -264 z "},"ў":{"ha":814,"x_min":0,"x_max":0,"o":"m 67 -326 l 126 -317 b 473 64 273 -295 368 -196 l 740 719 l 668 719 l 425 98 b 410 61 420 85 414 73 l 407 61 l 125 719 l 54 719 l 368 0 l 382 0 b 110 -256 302 -168 221 -235 l 64 -264 z m 417 840 b 636 1087 567 840 636 920 l 572 1087 b 417 898 572 958 532 898 b 262 1087 304 898 262 955 l 198 1087 b 417 840 198 921 267 840 z "},"ф":{"ha":814,"x_min":0,"x_max":0,"o":"m 575 -14 b 767 353 709 -14 767 96 b 574 732 767 619 709 732 b 446 595 496 732 454 687 l 442 595 l 442 1017 l 378 1017 l 378 595 l 375 595 b 240 732 366 687 321 732 b 47 353 104 732 47 619 b 239 -14 47 96 104 -14 b 375 91 316 -14 368 22 l 378 91 l 378 -298 l 442 -298 l 442 91 l 446 91 b 575 -14 452 22 502 -14 z m 378 404 l 378 231 b 262 49 378 109 341 49 b 112 353 157 49 112 139 b 260 670 112 576 157 670 b 378 404 339 670 378 583 z m 442 231 l 442 404 b 553 670 442 583 479 670 b 702 353 657 670 702 576 b 552 49 702 139 657 49 b 442 231 477 49 442 109 z "},"х":{"ha":814,"x_min":0,"x_max":0,"o":"m 88 0 l 168 0 l 409 309 l 646 0 l 726 0 l 448 359 l 726 719 l 646 719 l 410 408 l 168 719 l 88 719 l 371 358 z "},"ч":{"ha":814,"x_min":0,"x_max":0,"o":"m 353 286 l 606 286 l 606 0 l 670 0 l 670 719 l 606 719 l 606 347 l 353 347 b 153 563 219 347 153 419 l 153 719 l 90 719 l 90 563 b 353 286 90 378 176 286 z "},"ц":{"ha":814,"x_min":0,"x_max":0,"o":"m 111 0 l 686 0 l 686 -183 l 750 -183 l 750 61 l 675 61 l 675 719 l 611 719 l 611 61 l 175 61 l 175 719 l 111 719 z "},"ш":{"ha":814,"x_min":0,"x_max":0,"o":"m 92 0 l 722 0 l 722 719 l 658 719 l 658 61 l 438 61 l 438 719 l 374 719 l 374 61 l 156 61 l 156 719 l 92 719 z "},"щ":{"ha":814,"x_min":0,"x_max":0,"o":"m 92 0 l 705 0 l 705 -183 l 769 -183 l 769 61 l 724 61 l 724 719 l 661 719 l 661 61 l 431 61 l 431 719 l 368 719 l 368 61 l 156 61 l 156 719 l 92 719 z "},"џ":{"ha":814,"x_min":0,"x_max":0,"o":"m 379 -183 l 443 -183 l 443 0 l 680 0 l 680 719 l 616 719 l 616 61 l 197 61 l 197 719 l 134 719 l 134 0 l 379 0 z "},"ь":{"ha":814,"x_min":0,"x_max":0,"o":"m 144 0 l 505 0 b 732 226 650 0 732 82 b 505 452 732 370 650 452 l 208 452 l 208 719 l 144 719 z m 208 61 l 208 391 l 492 391 b 667 226 604 391 667 330 b 492 61 667 121 604 61 z "},"ъ":{"ha":814,"x_min":0,"x_max":0,"o":"m 209 0 l 477 0 b 732 226 640 0 732 82 b 477 452 732 370 640 452 l 270 452 l 270 719 l 16 719 l 16 658 l 209 658 z m 270 61 l 270 391 l 472 391 b 667 226 596 391 667 330 b 472 61 667 121 596 61 z "},"ы":{"ha":814,"x_min":0,"x_max":0,"o":"m 92 0 l 269 0 b 507 229 420 0 507 83 b 269 458 507 375 420 458 l 156 458 l 156 719 l 92 719 z m 156 61 l 156 397 l 264 397 b 441 229 377 397 441 336 b 264 61 441 122 377 61 z m 658 0 l 722 0 l 722 719 l 658 719 z "},"љ":{"ha":814,"x_min":0,"x_max":0,"o":"m 59 0 b 230 184 179 0 230 55 l 230 658 l 420 658 l 420 0 l 570 0 b 778 243 703 0 778 88 b 570 486 778 397 703 486 l 484 486 l 484 719 l 166 719 l 166 179 b 59 61 166 96 134 61 z m 484 61 l 484 425 l 558 425 b 713 243 656 425 713 359 b 558 61 713 127 656 61 z "},"њ":{"ha":814,"x_min":0,"x_max":0,"o":"m 76 0 l 140 0 l 140 376 l 400 376 l 400 0 l 564 0 b 778 218 707 0 778 73 b 564 437 778 364 707 437 l 464 437 l 464 719 l 400 719 l 400 437 l 140 437 l 140 719 l 76 719 z m 464 61 l 464 376 l 558 376 b 713 218 661 376 713 323 b 558 61 713 113 661 61 z "},"ѕ":{"ha":814,"x_min":0,"x_max":0,"o":"m 351 -14 b 692 180 591 -14 692 43 b 486 380 692 281 633 345 l 359 411 b 198 536 245 439 198 481 b 495 670 198 630 286 670 b 665 661 541 670 591 667 l 673 719 b 499 732 605 728 559 732 b 133 536 241 732 133 675 b 328 352 133 448 189 387 l 488 312 b 627 180 585 288 627 244 b 351 49 627 88 544 49 b 130 71 288 49 222 56 l 122 7 b 351 -14 179 -7 248 -14 z "},"є":{"ha":814,"x_min":0,"x_max":0,"o":"m 463 -14 b 704 10 542 -14 626 -9 l 696 72 b 479 49 626 58 553 49 b 175 331 295 49 187 147 l 532 331 l 532 392 l 174 392 b 452 670 182 570 283 670 b 671 547 543 670 623 639 l 728 583 b 457 732 688 678 589 732 b 109 361 233 732 109 595 b 463 -14 109 119 237 -14 z "},"э":{"ha":814,"x_min":0,"x_max":0,"o":"m 357 -14 b 705 358 581 -14 705 123 b 324 732 705 600 568 732 b 165 721 263 732 210 728 l 161 659 b 308 670 213 666 260 670 b 639 392 507 670 624 573 l 282 392 l 282 331 l 640 331 b 362 49 633 151 532 49 b 140 120 271 49 191 82 l 106 70 b 357 -14 156 23 247 -14 z "},"і":{"ha":814,"x_min":0,"x_max":0,"o":"m 125 0 l 731 0 l 731 61 l 486 61 l 486 719 l 165 719 l 165 658 l 422 658 l 422 61 l 125 61 z m 446 897 b 514 964 484 897 514 927 b 446 1032 514 1002 484 1032 b 378 964 409 1032 378 1002 b 446 897 378 927 409 897 z "},"ї":{"ha":814,"x_min":0,"x_max":0,"o":"m 125 0 l 731 0 l 731 61 l 486 61 l 486 719 l 165 719 l 165 658 l 422 658 l 422 61 l 125 61 z m 300 863 b 368 930 337 863 368 893 b 300 998 368 968 337 998 b 232 930 262 998 232 968 b 300 863 232 893 262 863 z m 585 863 b 652 930 622 863 652 893 b 585 998 652 968 622 998 b 517 930 547 998 517 968 b 585 863 517 893 547 863 z "},"ј":{"ha":814,"x_min":0,"x_max":0,"o":"m 134 -326 l 237 -317 b 586 64 483 -298 586 -193 l 586 719 l 191 719 l 191 658 l 522 658 l 522 42 b 251 -256 522 -154 442 -239 l 132 -267 z m 541 897 b 609 964 578 897 609 927 b 541 1032 609 1002 578 1032 b 473 964 504 1032 473 1002 b 541 897 473 927 504 897 z "},"ћ":{"ha":814,"x_min":0,"x_max":0,"o":"m 620 0 l 684 0 l 684 387 b 441 624 684 538 595 624 b 228 507 331 624 260 585 l 221 507 l 221 806 l 522 806 l 522 867 l 221 867 l 221 1017 l 157 1017 l 157 867 l 17 867 l 17 806 l 157 806 l 157 0 l 221 0 l 221 323 b 434 562 221 483 292 562 b 620 387 551 562 620 498 z "},"ю":{"ha":814,"x_min":0,"x_max":0,"o":"m 524 -14 b 746 353 680 -14 746 96 b 524 732 746 619 680 732 b 303 388 375 732 309 629 l 155 388 l 155 719 l 91 719 l 91 0 l 155 0 l 155 327 l 302 327 b 524 -14 307 88 374 -14 z m 524 38 b 368 353 415 38 368 132 b 524 681 368 583 415 681 b 681 353 633 681 681 583 b 524 38 681 132 633 38 z "},"я":{"ha":814,"x_min":0,"x_max":0,"o":"m 323 298 l 393 298 l 393 292 b 287 209 349 292 317 267 l 257 152 b 108 59 223 87 178 59 l 102 59 l 102 -3 l 115 -3 b 317 134 210 -3 263 33 l 346 189 b 469 278 380 254 412 278 l 616 278 l 616 0 l 680 0 l 680 719 l 378 719 b 121 503 214 719 121 640 b 323 298 121 373 195 298 z m 616 339 l 378 339 b 186 495 256 339 186 395 b 378 658 186 599 256 658 l 616 658 z "},"ђ":{"ha":814,"x_min":0,"x_max":0,"o":"m 157 0 l 221 0 l 221 323 b 434 562 221 483 292 562 b 620 387 551 562 620 498 l 620 -12 b 465 -256 620 -172 574 -246 l 372 -267 l 375 -326 l 451 -317 b 684 -11 615 -304 684 -217 l 684 387 b 441 624 684 538 595 624 b 228 507 331 624 260 585 l 221 507 l 221 806 l 522 806 l 522 867 l 221 867 l 221 1017 l 157 1017 l 157 867 l 17 867 l 17 806 l 157 806 z "},"ғ":{"ha":814,"x_min":0,"x_max":0,"o":"m 54 315 l 203 315 l 203 0 l 267 0 l 267 315 l 500 315 l 500 376 l 267 376 l 267 658 l 682 658 l 682 719 l 203 719 l 203 376 l 54 376 z "},"җ":{"ha":814,"x_min":0,"x_max":0,"o":"m 25 -7 l 54 -7 b 155 69 103 -7 140 21 l 216 267 b 294 329 228 307 256 329 l 376 329 l 376 0 l 437 0 l 437 329 l 519 329 b 598 267 557 329 586 307 l 659 69 b 725 -1 670 33 694 9 l 725 -183 l 789 -183 l 789 61 l 766 61 b 713 94 740 61 720 73 l 648 300 b 565 355 637 338 612 354 l 565 363 b 648 418 612 365 637 381 l 713 625 b 766 665 721 650 740 665 l 789 665 l 789 726 l 760 726 b 659 650 711 726 674 698 l 598 452 b 519 390 586 412 557 390 l 437 390 l 437 719 l 376 719 l 376 390 l 294 390 b 216 452 256 390 228 412 l 155 650 b 54 726 140 698 103 726 l 25 726 l 25 665 l 47 665 b 101 625 74 665 93 650 l 165 418 b 249 363 177 381 202 365 l 249 355 b 165 300 202 354 177 338 l 101 94 b 47 54 93 68 74 54 l 25 54 z "},"қ":{"ha":814,"x_min":0,"x_max":0,"o":"m 123 0 l 187 0 l 187 329 l 404 329 b 487 267 443 329 470 309 l 571 62 b 685 -3 589 18 627 -3 l 704 -3 l 704 -183 l 768 -183 l 768 61 l 688 61 b 628 94 659 61 637 72 l 554 273 b 444 357 532 328 494 356 l 444 362 b 554 446 494 363 532 391 l 628 625 b 688 661 638 649 659 661 l 714 661 l 714 722 l 685 722 b 571 656 627 722 589 701 l 487 452 b 404 390 470 410 443 390 l 187 390 l 187 719 l 123 719 z "},"ң":{"ha":814,"x_min":0,"x_max":0,"o":"m 682 -183 l 746 -183 l 746 61 l 684 61 l 684 719 l 620 719 l 620 390 l 194 390 l 194 719 l 130 719 l 130 0 l 194 0 l 194 329 l 620 329 l 620 0 l 682 0 z "},"ү":{"ha":814,"x_min":0,"x_max":0,"o":"m 375 -312 l 439 -312 l 439 16 l 743 719 l 674 719 l 407 96 l 140 719 l 71 719 l 375 16 z "},"ұ":{"ha":814,"x_min":0,"x_max":0,"o":"m 146 -61 l 375 -61 l 375 -312 l 439 -312 l 439 -61 l 669 -61 l 669 0 l 439 0 l 439 16 l 743 719 l 674 719 l 407 96 l 140 719 l 71 719 l 375 16 l 375 0 l 146 0 z "},"ҳ":{"ha":814,"x_min":0,"x_max":0,"o":"m 680 -183 l 745 -183 l 744 61 l 679 61 l 679 60 l 448 359 l 726 719 l 646 719 l 410 408 l 168 719 l 88 719 l 371 358 l 88 0 l 168 0 l 409 309 l 646 0 l 679 0 z "},"ҷ":{"ha":814,"x_min":0,"x_max":0,"o":"m 650 -183 l 713 -183 l 713 61 l 670 61 l 670 719 l 606 719 l 606 347 l 353 347 b 153 563 219 347 153 419 l 153 719 l 90 719 l 90 563 b 353 286 90 378 176 286 l 606 286 l 606 0 l 650 0 z "},"һ":{"ha":814,"x_min":0,"x_max":0,"o":"m 620 0 l 684 0 l 684 468 b 421 732 684 636 588 732 b 199 589 299 732 226 685 l 194 589 l 194 1017 l 130 1017 l 130 0 l 194 0 l 194 407 b 427 670 194 583 273 670 b 620 471 549 670 620 598 z "},"ӏ":{"ha":814,"x_min":0,"x_max":0,"o":"m 125 0 l 731 0 l 731 61 l 486 61 l 486 719 l 165 719 l 165 658 l 422 658 l 422 61 l 125 61 z "},"ә":{"ha":814,"x_min":0,"x_max":0,"o":"m 397 -14 b 705 350 593 -14 705 119 b 337 732 705 593 571 732 b 144 713 267 732 195 725 l 154 651 b 321 670 207 663 270 670 b 640 374 515 670 631 562 l 113 374 b 109 315 110 360 109 338 b 397 -14 109 107 214 -14 z m 639 313 b 395 49 628 145 540 49 b 174 313 254 49 174 145 z "},"ӣ":{"ha":814,"x_min":0,"x_max":0,"o":"m 130 0 l 197 0 l 606 610 l 620 610 l 620 0 l 684 0 l 684 719 l 616 719 l 208 109 l 194 109 l 194 719 l 130 719 z m 133 846 l 681 846 l 681 907 l 133 907 z "},"ө":{"ha":814,"x_min":0,"x_max":0,"o":"m 407 -14 b 705 359 595 -14 705 122 b 407 732 705 597 595 732 b 109 359 218 732 109 597 b 407 -14 109 122 218 -14 z m 407 49 b 174 329 267 49 182 150 l 640 329 b 407 49 631 150 547 49 z m 174 390 b 407 670 182 569 267 670 b 640 390 547 670 631 569 z "},"ӯ":{"ha":814,"x_min":0,"x_max":0,"o":"m 67 -326 l 126 -317 b 473 64 273 -295 368 -196 l 740 719 l 668 719 l 425 98 b 410 61 420 85 414 73 l 407 61 l 125 719 l 54 719 l 368 0 l 382 0 b 110 -256 302 -168 221 -235 l 64 -264 z m 143 846 l 691 846 l 691 907 l 143 907 z "},"Α":{"ha":814,"x_min":0,"x_max":0,"o":"m 47 0 l 109 0 l 196 269 l 618 269 l 705 0 l 767 0 l 450 963 l 363 963 z m 215 329 l 404 911 l 410 911 l 599 329 z "},"Β":{"ha":814,"x_min":0,"x_max":0,"o":"m 125 0 l 450 0 b 753 258 643 0 753 94 b 477 509 753 414 653 506 l 477 515 b 685 726 610 522 685 597 b 395 963 685 876 579 963 l 125 963 z m 186 60 l 186 479 l 456 479 b 690 258 605 479 690 398 b 452 60 690 132 604 60 z m 186 538 l 186 903 l 401 903 b 623 726 542 903 623 839 b 397 538 623 607 541 538 z "},"Γ":{"ha":814,"x_min":0,"x_max":0,"o":"m 138 0 l 199 0 l 199 903 l 723 903 l 723 963 l 138 963 z "},"Δ":{"ha":814,"x_min":0,"x_max":0,"o":"m 47 0 l 767 0 l 456 963 l 357 963 z m 130 60 l 404 914 l 410 914 l 684 60 z "},"Ε":{"ha":814,"x_min":0,"x_max":0,"o":"m 125 0 l 730 0 l 730 60 l 186 60 l 186 452 l 608 452 l 608 512 l 186 512 l 186 903 l 730 903 l 730 963 l 125 963 z "},"Ζ":{"ha":814,"x_min":0,"x_max":0,"o":"m 118 0 l 709 0 l 709 60 l 188 60 l 696 903 l 696 963 l 118 963 l 118 903 l 626 903 l 118 60 z "},"Η":{"ha":814,"x_min":0,"x_max":0,"o":"m 642 0 l 703 0 l 703 963 l 642 963 l 642 509 l 172 509 l 172 963 l 111 963 l 111 0 l 172 0 l 172 450 l 642 450 z "},"Θ":{"ha":814,"x_min":0,"x_max":0,"o":"m 407 -14 b 746 475 632 -14 746 148 b 407 977 746 810 632 977 b 68 475 182 977 68 810 b 407 -14 68 148 182 -14 z m 407 41 b 130 452 227 41 135 178 l 684 452 b 407 41 679 178 587 41 z m 131 511 b 407 916 138 782 231 916 b 683 511 583 916 675 782 z "},"Ι":{"ha":814,"x_min":0,"x_max":0,"o":"m 130 0 l 684 0 l 684 60 l 437 60 l 437 903 l 684 903 l 684 963 l 130 963 l 130 903 l 376 903 l 376 60 l 130 60 z "},"Κ":{"ha":814,"x_min":0,"x_max":0,"o":"m 118 0 l 179 0 l 179 334 b 488 421 301 336 404 366 l 699 0 l 772 0 l 541 461 b 726 963 661 568 726 739 l 663 963 b 179 395 663 604 487 397 l 179 963 l 118 963 z "},"Λ":{"ha":814,"x_min":0,"x_max":0,"o":"m 47 0 l 109 0 l 404 911 l 410 911 l 705 0 l 767 0 l 450 963 l 363 963 z "},"Μ":{"ha":814,"x_min":0,"x_max":0,"o":"m 103 0 l 164 0 l 164 903 l 171 903 l 369 448 l 445 448 l 643 903 l 650 903 l 650 0 l 711 0 l 711 963 l 606 963 l 408 507 l 406 507 l 208 963 l 103 963 z "},"Ν":{"ha":814,"x_min":0,"x_max":0,"o":"m 597 0 l 697 0 l 697 963 l 636 963 l 636 60 l 631 60 l 217 963 l 117 963 l 117 0 l 178 0 l 178 903 l 183 903 z "},"Ξ":{"ha":814,"x_min":0,"x_max":0,"o":"m 84 0 l 730 0 l 730 60 l 84 60 z m 84 903 l 730 903 l 730 963 l 84 963 z m 132 452 l 682 452 l 682 512 l 132 512 z "},"Ο":{"ha":814,"x_min":0,"x_max":0,"o":"m 407 -14 b 746 475 632 -14 746 148 b 407 977 746 810 632 977 b 68 475 182 977 68 810 b 407 -14 68 148 182 -14 z m 407 41 b 130 475 222 41 130 185 b 407 916 130 770 222 916 b 684 475 591 916 684 770 b 407 41 684 185 591 41 z "},"Π":{"ha":814,"x_min":0,"x_max":0,"o":"m 642 0 l 703 0 l 703 963 l 111 963 l 111 0 l 172 0 l 172 903 l 642 903 z "},"Ρ":{"ha":814,"x_min":0,"x_max":0,"o":"m 125 0 l 186 0 l 186 332 l 406 332 b 743 648 621 332 743 447 b 406 963 743 848 621 963 l 125 963 z m 186 392 l 186 903 l 406 903 b 681 648 581 903 681 810 b 406 392 681 485 581 392 z "},"Σ":{"ha":814,"x_min":0,"x_max":0,"o":"m 118 0 l 709 0 l 709 61 l 196 61 l 547 484 l 195 903 l 696 903 l 696 963 l 118 963 l 118 903 l 462 484 l 118 61 z "},"Τ":{"ha":814,"x_min":0,"x_max":0,"o":"m 376 0 l 437 0 l 437 903 l 743 903 l 743 963 l 71 963 l 71 903 l 376 903 z "},"Υ":{"ha":814,"x_min":0,"x_max":0,"o":"m 376 0 l 437 0 l 437 346 l 781 963 l 713 963 l 410 410 l 404 410 l 100 963 l 33 963 l 376 346 z "},"Φ":{"ha":814,"x_min":0,"x_max":0,"o":"m 376 -14 l 437 -14 l 437 82 b 753 481 647 94 753 225 b 437 895 753 745 647 883 l 437 990 l 376 990 l 376 895 b 61 481 167 882 61 745 b 376 82 61 226 167 94 z m 437 833 b 690 481 606 821 690 705 b 437 143 690 267 606 155 z m 376 144 b 123 481 208 155 123 268 b 376 833 123 704 208 821 z "},"Χ":{"ha":814,"x_min":0,"x_max":0,"o":"m 686 0 l 753 0 l 437 475 l 753 963 l 686 963 l 407 524 l 128 963 l 60 963 l 376 475 l 60 0 l 128 0 l 407 429 z "},"Ψ":{"ha":814,"x_min":0,"x_max":0,"o":"m 376 305 b 129 576 212 315 129 405 l 129 963 l 68 963 l 68 576 b 376 244 68 364 171 254 l 376 0 l 437 0 l 437 244 b 746 576 642 254 746 363 l 746 963 l 685 963 l 685 576 b 437 305 685 405 602 315 l 437 963 l 376 963 z "},"Ω":{"ha":814,"x_min":0,"x_max":0,"o":"m 87 0 l 359 0 l 359 60 b 130 515 207 106 130 258 b 407 916 130 783 222 916 b 684 515 592 916 684 783 b 471 60 684 253 612 102 l 471 0 l 727 0 l 727 60 l 593 60 l 593 66 b 746 515 682 113 746 241 b 407 977 746 824 633 977 b 68 515 180 977 68 824 b 237 66 68 245 138 117 l 237 60 l 87 60 z "},"Ά":{"ha":814,"x_min":0,"x_max":0,"o":"m 229 0 l 293 0 l 345 269 l 602 269 l 654 0 l 718 0 l 523 963 l 424 963 z m 357 329 l 470 914 l 477 914 l 590 329 z m 50 705 l 98 705 l 180 963 l 111 963 z "},"Έ":{"ha":814,"x_min":0,"x_max":0,"o":"m 244 0 l 730 0 l 730 60 l 305 60 l 305 452 l 608 452 l 608 512 l 305 512 l 305 903 l 730 903 l 730 963 l 244 963 z m 16 705 l 64 705 l 146 963 l 77 963 z "},"Ή":{"ha":814,"x_min":0,"x_max":0,"o":"m 642 0 l 703 0 l 703 963 l 642 963 l 642 509 l 291 509 l 290 963 l 231 963 l 231 0 l 292 0 l 291 450 l 642 450 z m 16 705 l 64 705 l 146 963 l 77 963 z "},"Ί":{"ha":814,"x_min":0,"x_max":0,"o":"m 250 0 l 684 0 l 684 60 l 504 60 l 504 903 l 684 903 l 684 963 l 250 963 l 250 903 l 443 903 l 443 60 l 250 60 z m 16 705 l 64 705 l 146 963 l 77 963 z "},"Ό":{"ha":814,"x_min":0,"x_max":0,"o":"m 467 -14 b 746 475 652 -14 746 148 b 467 977 746 810 652 977 b 187 475 281 977 187 810 b 467 -14 187 148 281 -14 z m 467 41 b 250 475 322 41 250 185 b 467 916 250 770 322 916 b 684 475 611 916 684 770 b 467 41 684 185 611 41 z m 16 705 l 64 705 l 146 963 l 77 963 z "},"Ύ":{"ha":814,"x_min":0,"x_max":0,"o":"m 478 0 l 539 0 l 539 328 l 781 963 l 713 963 l 515 407 l 503 407 l 304 963 l 237 963 l 478 328 z m 16 705 l 64 705 l 146 963 l 77 963 z "},"Ώ":{"ha":814,"x_min":0,"x_max":0,"o":"m 222 0 l 454 0 l 454 60 b 269 515 330 106 269 258 b 475 916 269 783 337 916 b 681 515 612 916 681 783 b 511 60 681 254 625 102 l 511 0 l 727 0 l 727 60 l 600 60 l 600 73 b 746 515 697 99 746 245 b 475 977 746 824 656 977 b 203 515 294 977 203 824 b 366 71 203 250 258 102 l 366 60 l 222 60 z m 16 705 l 64 705 l 146 963 l 77 963 z "}}}
